{"glyphs":{"0":{"ha":725,"x_min":49,"x_max":683,"o":"m 413 718 q 614 641 544 718 q 683 408 683 564 q 640 189 683 285 q 513 40 596 93 q 319 -14 431 -14 q 118 64 188 -14 q 49 296 49 142 q 92 514 49 418 q 218 664 136 610 q 413 718 300 718 m 383 518 q 218 324 218 518 q 247 210 218 246 q 346 175 276 175 q 513 369 513 175 q 483 483 513 449 q 383 518 453 518 z "},"1":{"ha":510,"x_min":25,"x_max":429,"o":"m 368 290 l 342 0 l 124 0 l 165 268 l 190 469 l 39 433 l 25 444 l 46 618 l 400 715 l 429 693 l 368 290 z "},"2":{"ha":664,"x_min":11,"x_max":614,"o":"m 372 715 q 535 670 471 715 q 599 544 599 625 q 556 428 599 489 q 404 261 513 367 l 313 171 l 317 164 l 474 164 l 603 176 l 614 163 l 567 -10 l 389 0 l 72 0 l 21 -4 l 11 4 l 28 136 l 229 310 q 342 417 307 378 q 376 488 376 457 q 360 521 376 508 q 314 533 344 533 q 222 512 272 533 q 124 454 171 490 l 100 454 l 85 622 q 372 715 238 715 z "},"3":{"ha":610,"x_min":-11,"x_max":571,"o":"m 324 718 q 502 668 433 718 q 571 539 571 618 q 530 419 571 481 q 415 322 489 358 l 415 315 q 508 249 478 288 q 539 149 539 211 q 490 5 539 68 q 353 -94 442 -58 q 153 -131 265 -131 q -11 -115 61 -131 l -3 50 l 14 64 q 169 33 99 33 q 288 61 246 33 q 329 139 329 89 q 235 210 329 208 l 131 210 l 122 224 l 146 372 l 222 375 q 305 408 265 376 q 344 483 344 440 q 269 543 344 543 q 101 485 203 543 l 79 485 l 67 638 q 324 718 199 718 z "},"4":{"ha":711,"x_min":-4,"x_max":663,"o":"m 526 65 l 514 -107 l 500 -122 l 331 -133 l 321 -119 l 350 67 l 142 67 l 7 61 l -4 79 l 13 217 l 407 707 l 607 707 l 544 231 l 651 231 l 663 213 l 635 61 l 526 65 m 375 231 l 404 465 l 392 465 l 201 231 l 375 231 z "},"5":{"ha":607,"x_min":-18,"x_max":608,"o":"m 568 536 l 551 521 l 417 538 l 275 538 l 257 407 l 340 389 q 542 185 542 346 q 490 21 542 93 q 349 -92 439 -51 q 146 -133 258 -133 q -18 -117 68 -133 l -10 46 l 6 61 q 172 31 92 31 q 290 63 247 31 q 333 149 333 94 q 232 235 333 218 l 89 260 l 76 276 l 128 688 l 154 711 l 236 707 l 447 707 l 599 715 l 608 701 l 568 536 z "},"6":{"ha":679,"x_min":33,"x_max":647,"o":"m 644 711 q 289 492 385 633 l 297 479 q 411 510 361 510 q 530 478 479 510 q 608 392 581 446 q 635 278 635 339 q 600 141 635 208 q 494 29 565 74 q 317 -15 422 -15 q 108 60 182 -15 q 33 267 33 136 q 153 583 33 433 q 503 829 274 733 l 514 829 l 647 733 l 644 711 m 347 358 q 231 322 292 358 q 228 268 228 286 q 249 163 228 197 q 325 128 271 128 q 410 165 383 128 q 438 258 438 201 q 347 358 438 358 z "},"7":{"ha":610,"x_min":43,"x_max":621,"o":"m 549 707 l 621 710 l 603 551 l 333 89 l 219 -137 l 53 -87 l 43 -54 l 390 528 l 192 528 l 53 514 l 43 532 l 79 713 l 247 707 l 549 707 z "},"8":{"ha":697,"x_min":40,"x_max":651,"o":"m 401 828 q 585 775 518 828 q 651 632 651 722 q 510 433 651 510 l 508 424 q 599 347 568 389 q 631 236 631 304 q 592 106 631 163 q 485 18 554 50 q 324 -14 415 -14 q 116 41 192 -14 q 40 189 40 96 q 83 311 40 264 q 211 392 126 358 l 213 401 q 135 474 163 432 q 107 582 107 517 q 144 710 107 654 q 247 797 181 765 q 401 828 314 828 m 389 681 q 312 656 340 681 q 283 593 283 632 q 309 531 283 554 q 388 486 335 507 q 479 604 479 539 q 456 660 479 640 q 389 681 432 681 m 333 335 q 249 289 276 314 q 221 221 221 264 q 328 129 221 129 q 420 157 386 129 q 454 224 454 185 q 424 286 454 263 q 333 335 394 310 z "},"9":{"ha":679,"x_min":39,"x_max":653,"o":"m 42 -6 q 397 214 301 72 l 389 226 q 275 196 325 196 q 156 228 207 196 q 78 313 106 260 q 51 428 51 367 q 86 565 51 497 q 192 676 121 632 q 369 721 264 721 q 578 645 504 721 q 653 439 653 569 q 533 122 653 272 q 183 -124 413 -28 l 172 -124 l 39 -28 l 42 -6 m 339 347 q 456 383 394 347 q 458 438 458 419 q 437 543 458 508 q 361 578 415 578 q 276 541 303 578 q 249 447 249 504 q 339 347 249 347 z "}," ":{"ha":186,"x_min":0,"x_max":0,"o":""},"!":{"ha":386,"x_min":61,"x_max":396,"o":"m 268 340 l 144 322 l 125 344 l 178 892 l 199 917 l 374 928 l 396 901 l 268 340 m 176 215 q 255 187 228 215 q 282 107 282 158 q 251 21 282 53 q 168 -11 221 -11 q 89 17 117 -11 q 61 97 61 46 q 92 183 61 151 q 176 215 124 215 z "},"\"":{"ha":532,"x_min":110,"x_max":547,"o":"m 226 554 l 125 538 l 110 551 l 143 883 l 311 893 l 322 879 l 226 554 m 451 554 l 351 538 l 336 551 l 369 883 l 538 893 l 547 879 l 451 554 z "},"#":{"ha":782,"x_min":28,"x_max":753,"o":"m 581 351 l 696 351 l 708 339 l 700 229 l 557 229 l 524 43 l 400 43 l 390 58 l 421 229 l 286 229 l 253 43 l 129 43 l 118 58 l 149 229 l 40 229 l 28 243 l 38 351 l 172 351 l 197 490 l 85 490 l 72 503 l 81 613 l 219 613 l 253 796 l 372 796 l 386 781 l 356 613 l 490 613 l 524 796 l 644 796 l 658 781 l 628 613 l 740 613 l 753 599 l 743 490 l 606 490 l 581 351 m 333 490 l 308 351 l 443 351 l 468 490 l 333 490 z "},"$":{"ha":632,"x_min":13,"x_max":590,"o":"m 286 513 q 308 474 286 489 q 381 438 331 460 q 470 392 435 414 q 532 333 506 371 q 558 239 558 296 q 505 90 558 158 q 349 -3 451 22 l 328 -189 l 221 -189 l 207 -174 l 224 -14 q 13 28 106 -8 l 61 213 l 82 226 q 183 159 126 185 q 282 133 239 133 q 333 149 313 133 q 353 189 353 165 q 330 227 353 211 q 258 264 307 243 q 168 308 204 286 q 106 369 132 331 q 79 464 79 407 q 141 621 79 553 q 310 710 203 689 l 331 894 l 436 894 l 453 876 l 433 715 q 590 681 521 708 l 542 504 l 511 497 q 427 547 469 529 q 351 564 385 564 q 303 549 321 564 q 286 513 286 535 z "},"%":{"ha":1214,"x_min":74,"x_max":1168,"o":"m 1022 875 l 251 -129 l 167 -74 l 161 -53 l 933 957 l 1013 904 l 1022 875 m 346 906 q 482 853 435 906 q 529 707 529 801 q 458 478 529 561 q 258 396 388 396 q 121 447 168 396 q 74 594 74 499 q 145 823 74 740 q 346 906 217 906 m 315 769 q 206 615 206 769 q 283 521 206 521 q 371 560 346 521 q 396 675 396 600 q 315 769 396 769 m 985 501 q 1121 450 1074 501 q 1168 303 1168 399 q 1097 74 1168 157 q 897 -8 1026 -8 q 760 43 808 -8 q 713 190 713 94 q 784 419 713 336 q 985 501 856 501 m 954 365 q 846 211 846 365 q 922 117 846 117 q 1010 156 985 117 q 1035 271 1035 196 q 954 365 1035 365 z "},"&":{"ha":972,"x_min":35,"x_max":979,"o":"m 965 375 l 949 242 l 763 242 q 406 -17 688 -17 q 133 81 231 -17 q 35 353 35 178 q 74 545 35 463 q 185 673 113 628 q 353 718 257 718 q 490 681 443 718 q 536 583 536 644 l 536 578 q 879 989 781 769 l 896 989 q 979 853 958 931 q 829 648 944 765 q 556 419 714 531 q 239 238 397 308 q 419 133 286 133 q 578 197 522 133 q 640 378 635 260 l 656 392 l 951 392 l 965 375 m 347 582 q 251 531 286 582 q 214 386 217 479 q 369 465 293 421 q 406 536 406 496 q 347 582 401 582 z "},"'":{"ha":307,"x_min":110,"x_max":322,"o":"m 226 554 l 125 538 l 110 551 l 143 883 l 311 893 l 322 879 l 226 554 z "},"(":{"ha":417,"x_min":79,"x_max":469,"o":"m 467 835 q 300 553 349 733 q 251 201 251 372 q 275 20 251 94 q 351 -111 299 -54 l 349 -128 l 264 -192 l 244 -192 q 119 -26 158 -122 q 79 208 79 69 q 147 610 79 417 q 381 917 215 804 l 400 917 l 469 853 l 467 835 z "},")":{"ha":417,"x_min":-44,"x_max":346,"o":"m -42 -111 q 125 171 76 -10 q 174 522 174 351 q 150 703 174 629 q 74 835 126 778 l 76 851 l 161 915 l 181 915 q 306 750 267 846 q 346 515 346 654 q 278 113 346 307 q 44 -193 210 -81 l 25 -193 l -44 -129 l -42 -111 z "},"*":{"ha":538,"x_min":99,"x_max":589,"o":"m 365 850 l 303 843 l 292 853 l 286 1015 q 403 1035 340 1035 l 410 1022 l 365 850 m 264 774 l 250 767 l 99 810 q 114 928 96 867 l 129 932 l 275 836 l 264 774 m 535 893 q 589 788 568 847 l 581 778 l 408 767 l 379 824 l 386 838 l 535 893 m 499 614 q 417 529 475 576 l 403 533 l 342 701 l 386 743 l 401 742 l 499 614 m 317 699 l 231 563 q 122 615 183 578 l 124 629 l 258 742 l 314 713 l 317 699 z "},"+":{"ha":663,"x_min":24,"x_max":647,"o":"m 417 432 l 635 432 l 647 417 l 621 286 l 399 286 l 372 64 l 240 53 l 226 67 l 254 286 l 35 286 l 24 301 l 50 432 l 272 432 l 299 654 l 431 665 l 444 651 l 417 432 z "},",":{"ha":318,"x_min":-10,"x_max":244,"o":"m 181 208 q 244 79 244 154 q 61 -183 244 -56 l -7 -124 l -10 -108 q 68 33 68 -43 q 24 125 68 85 l 24 143 q 181 208 103 188 z "},"-":{"ha":419,"x_min":31,"x_max":396,"o":"m 381 304 l 44 253 l 31 269 l 46 403 l 382 453 l 396 438 l 381 304 z "},".":{"ha":319,"x_min":21,"x_max":242,"o":"m 136 215 q 215 187 188 215 q 242 107 242 158 q 211 21 242 53 q 128 -11 181 -11 q 49 17 76 -11 q 21 97 21 46 q 52 183 21 151 q 136 215 83 215 z "},"/":{"ha":393,"x_min":-53,"x_max":472,"o":"m 108 -161 l -40 -161 l -53 -144 l 311 946 l 457 946 l 472 928 l 108 -161 z "},":":{"ha":319,"x_min":21,"x_max":286,"o":"m 136 215 q 215 187 188 215 q 242 107 242 158 q 211 21 242 53 q 128 -11 181 -11 q 49 17 76 -11 q 21 97 21 46 q 52 183 21 151 q 136 215 83 215 m 181 576 q 259 548 232 576 q 286 468 286 519 q 256 382 286 414 q 172 350 225 350 q 93 378 121 350 q 65 458 65 407 q 97 544 65 513 q 181 576 128 576 z "},";":{"ha":318,"x_min":-14,"x_max":279,"o":"m 176 208 q 240 79 240 154 q 57 -183 240 -56 l -11 -124 l -14 -108 q 64 33 64 -43 q 19 125 64 85 l 19 143 q 176 208 99 188 m 174 576 q 252 548 225 576 q 279 468 279 519 q 249 382 279 414 q 165 350 218 350 q 86 378 114 350 q 58 458 58 407 q 90 544 58 513 q 174 576 121 576 z "},"<":{"ha":686,"x_min":44,"x_max":650,"o":"m 639 521 l 207 369 l 206 358 l 601 213 l 558 92 l 536 78 l 44 272 l 65 446 l 82 465 l 619 658 l 650 536 l 639 521 z "},"=":{"ha":664,"x_min":17,"x_max":661,"o":"m 650 422 l 64 422 l 50 438 l 61 568 l 647 568 l 661 553 l 650 422 m 617 149 l 31 149 l 17 164 l 28 294 l 614 294 l 628 279 l 617 149 z "},">":{"ha":699,"x_min":64,"x_max":657,"o":"m 657 446 l 636 272 l 94 78 l 78 92 l 64 213 l 496 358 l 497 369 l 100 521 l 94 536 l 154 658 l 644 465 l 657 446 z "},"?":{"ha":479,"x_min":88,"x_max":553,"o":"m 185 933 q 458 870 364 924 q 553 724 553 817 q 512 606 553 661 q 397 511 471 550 l 297 458 l 294 450 l 289 340 l 136 318 l 122 333 l 129 513 l 139 526 l 268 586 q 354 689 354 626 q 301 758 354 733 q 125 790 249 782 l 113 811 l 164 922 l 185 933 m 203 215 q 281 187 253 215 q 308 107 308 158 q 277 21 308 53 q 193 -11 246 -11 q 115 17 142 -11 q 88 97 88 46 q 118 183 88 151 q 203 215 149 215 z "},"@":{"ha":1183,"x_min":35,"x_max":1160,"o":"m 1160 440 q 1018 117 1160 231 q 615 0 876 3 l 642 192 l 622 192 q 482 -8 557 72 l 454 -8 q 335 72 371 18 q 300 213 300 126 q 335 388 300 301 q 444 542 371 475 q 621 639 517 610 l 629 639 l 744 614 l 858 643 l 874 635 l 808 157 l 808 146 q 963 241 906 164 q 1019 433 1019 318 q 976 606 1019 532 q 851 719 932 679 q 661 760 769 760 q 407 698 517 760 q 237 527 297 636 q 176 281 176 418 q 242 32 176 136 q 426 -126 307 -72 q 704 -181 546 -181 l 711 -200 l 654 -300 q 328 -233 468 -299 q 111 -43 188 -168 q 35 256 35 82 q 113 583 35 438 q 335 810 192 728 q 665 893 479 893 q 926 838 814 893 q 1099 681 1038 783 q 1160 440 1160 579 m 507 174 q 574 242 529 174 q 674 438 619 311 l 678 471 l 590 497 q 504 440 535 497 q 474 285 474 382 q 507 174 474 174 z "},"A":{"ha":833,"x_min":-32,"x_max":775,"o":"m 553 0 l 546 128 l 539 183 l 382 186 l 246 182 l 228 140 l 185 0 l -32 0 l 364 896 l 628 896 l 775 0 l 553 0 m 474 693 l 460 693 l 315 350 l 415 347 l 518 349 l 474 693 z "},"B":{"ha":821,"x_min":60,"x_max":788,"o":"m 626 463 q 740 390 706 433 q 775 275 775 346 q 665 63 775 135 q 325 -8 556 -8 q 60 0 221 -8 l 104 265 l 171 896 l 504 897 q 712 846 636 897 q 788 696 788 794 q 747 558 788 618 q 626 463 706 497 m 450 518 q 560 656 560 547 q 529 725 560 706 q 417 744 499 744 l 365 743 l 333 522 l 450 518 m 378 144 q 506 179 460 144 q 551 276 551 214 q 528 340 551 317 q 457 374 506 363 l 313 371 l 300 286 l 288 150 q 378 144 357 144 z "},"C":{"ha":710,"x_min":44,"x_max":764,"o":"m 533 908 q 764 861 663 908 l 704 681 l 686 672 q 511 728 611 728 q 337 646 393 728 q 281 397 281 564 q 453 171 281 171 q 649 219 554 171 l 665 208 l 625 26 q 424 -14 525 -14 q 142 84 240 -14 q 44 361 44 182 q 101 655 44 532 q 269 843 158 778 q 533 908 379 908 z "},"D":{"ha":904,"x_min":58,"x_max":893,"o":"m 529 901 q 797 810 701 901 q 893 550 893 718 q 762 138 893 286 q 386 -11 631 -11 q 60 0 249 -11 l 58 0 l 103 265 l 169 896 l 529 901 m 436 157 q 660 517 660 157 q 621 677 660 626 q 501 728 582 728 q 368 721 444 728 l 304 286 l 294 168 q 436 157 372 157 z "},"E":{"ha":714,"x_min":58,"x_max":767,"o":"m 342 539 l 486 538 l 629 542 l 640 526 l 606 364 l 450 368 l 317 367 l 306 286 l 294 172 l 440 171 l 661 179 l 671 163 l 638 0 l 58 0 l 101 265 l 169 896 l 756 896 l 767 879 l 731 717 l 519 724 l 368 722 l 342 539 z "},"F":{"ha":636,"x_min":58,"x_max":729,"o":"m 338 511 l 447 510 l 601 514 l 613 497 l 578 335 l 411 339 l 313 339 l 306 286 l 279 0 l 58 0 l 101 265 l 169 896 l 718 896 l 729 879 l 693 715 l 482 724 l 368 722 l 338 511 z "},"G":{"ha":819,"x_min":43,"x_max":833,"o":"m 569 908 q 833 860 721 908 l 761 661 l 742 661 q 629 715 678 699 q 521 731 581 731 q 335 647 396 731 q 274 358 274 564 q 316 202 274 249 q 454 156 358 156 q 544 171 486 156 l 554 236 l 568 379 l 772 393 l 754 272 l 726 44 q 428 -14 569 -14 q 142 82 240 -14 q 43 353 43 178 q 179 764 43 619 q 569 908 315 908 z "},"H":{"ha":961,"x_min":58,"x_max":933,"o":"m 844 286 l 818 0 l 597 0 l 643 265 l 653 357 l 474 360 l 314 356 l 304 286 l 279 0 l 58 0 l 103 265 l 169 896 l 393 896 l 340 539 l 508 535 l 671 538 l 708 896 l 933 896 l 844 286 z "},"I":{"ha":422,"x_min":58,"x_max":393,"o":"m 279 0 l 58 0 l 103 265 l 169 896 l 393 896 l 304 286 l 279 0 z "},"J":{"ha":475,"x_min":-31,"x_max":440,"o":"m 353 296 l 342 169 q 297 31 331 88 q 196 -69 263 -26 q 18 -150 129 -112 l -31 -35 l -29 -17 q 92 67 56 25 q 138 175 129 108 l 150 274 l 200 736 l 68 733 l 56 749 l 83 896 l 440 896 l 353 296 z "},"K":{"ha":824,"x_min":57,"x_max":885,"o":"m 542 463 q 806 46 647 271 l 799 22 q 576 -15 685 -6 l 554 -1 q 326 443 417 250 l 304 286 l 278 0 l 57 0 l 103 265 l 169 896 l 393 896 l 335 493 l 588 806 l 649 896 l 885 896 l 542 463 z "},"L":{"ha":603,"x_min":53,"x_max":582,"o":"m 547 0 l 53 0 l 97 265 l 164 896 l 388 896 l 300 286 l 290 182 l 572 182 l 582 165 l 547 0 z "},"M":{"ha":1094,"x_min":11,"x_max":1033,"o":"m 803 0 l 826 272 l 839 574 l 825 574 l 589 90 l 421 90 l 325 574 l 311 574 l 249 292 l 196 0 l 11 0 l 210 896 l 464 896 l 481 765 l 546 376 l 560 376 l 731 761 l 783 896 l 1033 896 l 999 0 l 803 0 z "},"N":{"ha":960,"x_min":58,"x_max":935,"o":"m 819 0 l 581 0 l 336 561 l 322 561 l 290 314 l 260 0 l 58 0 l 103 264 l 169 896 l 407 896 l 653 335 l 667 335 l 729 888 l 935 900 l 844 282 l 819 0 z "},"O":{"ha":892,"x_min":44,"x_max":879,"o":"m 518 910 q 785 813 690 910 q 879 528 879 717 q 824 244 879 367 q 661 53 768 121 q 404 -15 554 -15 q 139 83 233 -15 q 44 372 44 182 q 99 655 44 533 q 261 843 154 776 q 518 910 368 910 m 493 732 q 329 651 385 732 q 274 374 274 569 q 308 202 274 253 q 426 151 342 151 q 590 233 535 151 q 646 513 646 315 q 612 682 646 632 q 493 732 578 732 z "},"P":{"ha":779,"x_min":58,"x_max":803,"o":"m 525 897 q 729 835 656 897 q 803 656 803 772 q 752 458 803 544 q 608 324 701 372 q 393 275 515 275 l 304 275 l 279 0 l 58 0 l 103 265 l 169 896 l 525 897 m 447 433 q 569 621 569 475 q 540 708 569 679 q 446 739 511 736 l 369 735 l 328 439 l 447 433 z "},"Q":{"ha":894,"x_min":44,"x_max":964,"o":"m 964 -137 q 847 -278 914 -222 l 831 -285 q 414 -15 593 -183 l 401 -15 q 138 83 231 -15 q 44 372 44 182 q 100 655 44 533 q 263 843 156 776 q 521 910 369 910 q 786 814 693 910 q 879 528 879 718 q 813 222 879 351 q 622 32 746 93 q 958 -115 779 -67 l 964 -137 m 274 374 q 308 202 274 253 q 426 151 342 151 q 590 233 535 151 q 646 513 646 315 q 612 682 646 632 q 493 732 578 732 q 329 651 385 732 q 274 374 274 569 z "},"R":{"ha":828,"x_min":58,"x_max":804,"o":"m 804 665 q 753 485 804 567 q 611 351 703 404 q 778 51 689 199 l 774 28 q 550 -15 664 -7 l 531 3 q 422 290 463 169 l 304 290 l 304 286 l 279 0 l 58 0 l 103 265 l 169 896 l 526 897 q 731 837 657 897 q 804 665 804 776 m 450 450 q 569 629 569 494 q 539 710 569 683 q 446 739 508 736 l 369 735 l 329 456 l 450 450 z "},"S":{"ha":697,"x_min":6,"x_max":700,"o":"m 463 910 q 700 863 583 910 l 643 678 l 610 664 q 513 718 563 699 q 424 738 463 738 q 346 714 375 738 q 317 657 317 690 q 347 599 317 624 q 443 540 376 575 q 551 475 510 504 q 624 399 593 446 q 654 288 654 353 q 606 136 654 206 q 473 26 558 67 q 279 -14 388 -14 q 6 42 142 -14 l 60 240 l 83 253 q 201 178 136 204 q 317 151 267 151 q 400 176 371 151 q 429 235 429 200 q 398 297 429 271 q 301 357 367 322 q 196 419 238 390 q 124 494 154 447 q 94 606 94 540 q 142 760 94 690 q 274 869 190 829 q 463 910 358 910 z "},"T":{"ha":696,"x_min":68,"x_max":749,"o":"m 715 717 l 546 725 l 507 725 l 446 286 l 419 0 l 199 0 l 244 265 l 294 725 l 254 725 l 79 717 l 68 733 l 101 896 l 739 896 l 749 879 l 715 717 z "},"U":{"ha":881,"x_min":74,"x_max":875,"o":"m 796 314 q 676 71 776 156 q 400 -14 576 -14 q 160 53 246 -14 q 74 244 74 121 q 78 310 74 275 l 97 444 l 147 896 l 367 896 l 289 339 q 286 293 286 306 q 318 195 286 226 q 418 164 350 164 q 541 205 499 164 q 593 333 583 246 l 653 896 l 875 896 l 813 442 l 796 314 z "},"V":{"ha":817,"x_min":81,"x_max":888,"o":"m 229 0 l 81 896 l 304 896 l 311 767 l 385 201 l 397 201 l 629 754 l 672 896 l 888 896 l 493 0 l 229 0 z "},"W":{"ha":1239,"x_min":96,"x_max":1306,"o":"m 685 0 l 621 390 l 608 390 l 450 0 l 215 0 l 96 896 l 311 896 l 310 775 l 369 225 l 383 225 l 569 682 l 539 896 l 764 896 l 765 753 l 833 225 l 846 225 l 1061 763 l 1101 896 l 1306 896 l 917 0 l 685 0 z "},"X":{"ha":847,"x_min":-26,"x_max":894,"o":"m 796 0 l 538 0 l 507 97 l 411 297 l 250 85 l 199 0 l -26 0 l 300 450 l 86 896 l 346 896 l 378 797 l 468 607 l 614 808 l 664 896 l 894 896 l 582 460 l 796 0 z "},"Y":{"ha":782,"x_min":71,"x_max":865,"o":"m 471 244 l 450 0 l 231 0 l 272 244 l 276 299 l 71 896 l 300 896 l 311 829 l 403 514 l 417 514 l 601 822 l 638 896 l 865 896 l 479 296 l 471 244 z "},"Z":{"ha":760,"x_min":0,"x_max":785,"o":"m 281 165 l 546 165 l 703 178 l 708 167 l 671 -6 l 454 0 l 119 0 l 0 -7 l 19 151 l 508 729 l 256 729 l 100 717 l 93 726 l 131 899 l 318 896 l 692 896 l 785 897 l 764 738 l 281 165 z "},"[":{"ha":414,"x_min":36,"x_max":483,"o":"m 471 793 l 325 774 l 225 -47 l 365 -67 l 353 -164 l 343 -174 l 36 -160 l 113 364 l 165 886 l 475 900 l 483 889 l 471 793 z "},"\\":{"ha":544,"x_min":61,"x_max":511,"o":"m 511 -144 l 497 -161 l 349 -161 l 61 928 l 78 946 l 224 946 l 511 -144 z "},"]":{"ha":414,"x_min":-61,"x_max":386,"o":"m -49 -67 l 97 -47 l 197 774 l 57 793 l 69 890 l 79 900 l 386 886 l 310 363 l 257 -160 l -53 -174 l -61 -162 l -49 -67 z "},"^":{"ha":622,"x_min":6,"x_max":588,"o":"m 571 192 l 447 164 l 349 543 l 338 543 l 140 164 l 122 154 l 6 200 l 258 681 l 279 692 l 453 692 l 588 211 l 571 192 z "},"_":{"ha":614,"x_min":-90,"x_max":578,"o":"m 553 -260 l -79 -260 l -90 -244 l -65 -125 l 567 -125 l 578 -139 l 553 -260 z "},"`":{"ha":542,"x_min":156,"x_max":514,"o":"m 253 1021 q 514 804 376 911 l 464 724 l 444 722 q 160 882 338 781 l 156 903 l 233 1019 l 253 1021 z "},"a":{"ha":736,"x_min":-22,"x_max":667,"o":"m 463 0 l 458 111 l 456 128 l 326 129 l 214 126 l 213 122 l 175 0 l -22 0 l 300 706 l 542 706 l 667 0 l 463 0 m 400 522 l 388 522 l 281 278 l 357 276 l 435 278 l 400 522 z "},"b":{"ha":732,"x_min":50,"x_max":682,"o":"m 550 364 q 640 301 610 339 q 669 201 669 264 q 578 46 669 99 q 308 -7 486 -7 q 50 0 189 -7 l 86 207 l 138 706 l 444 706 q 619 664 556 706 q 682 543 682 622 q 648 438 682 483 q 550 364 614 392 m 397 415 q 467 507 467 436 q 446 552 467 540 q 374 564 425 564 l 318 564 l 299 419 l 397 415 m 336 133 q 426 156 393 133 q 460 219 460 178 q 404 283 460 264 l 278 281 l 271 228 l 263 138 q 336 133 306 133 z "},"c":{"ha":621,"x_min":38,"x_max":644,"o":"m 453 715 q 644 685 564 715 l 589 514 l 572 506 q 424 550 511 550 q 256 329 256 550 q 288 200 256 243 q 392 157 321 157 q 547 193 471 157 l 564 183 l 528 13 q 375 -12 447 -12 q 38 301 38 -12 q 146 605 38 494 q 453 715 254 715 z "},"d":{"ha":788,"x_min":50,"x_max":757,"o":"m 449 710 q 676 637 594 710 q 757 431 757 564 q 647 106 757 222 q 332 -10 538 -10 q 50 0 199 -10 l 85 207 l 138 706 l 449 710 m 376 144 q 499 203 457 144 q 542 397 542 263 q 513 513 542 478 q 421 549 483 549 q 321 544 375 549 l 274 228 l 267 154 q 376 144 332 144 z "},"e":{"ha":639,"x_min":50,"x_max":656,"o":"m 306 435 l 424 433 l 543 438 l 553 424 l 522 272 l 390 276 l 282 275 l 275 228 l 268 158 l 383 158 l 572 164 l 583 150 l 551 0 l 50 0 l 86 207 l 138 706 l 646 706 l 656 690 l 624 540 l 446 547 l 321 547 l 306 435 z "},"f":{"ha":567,"x_min":44,"x_max":617,"o":"m 294 408 l 382 408 l 513 413 l 522 397 l 490 246 l 347 250 l 271 250 l 268 228 l 249 0 l 44 0 l 79 207 l 132 706 l 607 706 l 617 690 l 583 540 l 406 547 l 315 547 l 294 408 z "},"g":{"ha":713,"x_min":36,"x_max":704,"o":"m 482 715 q 704 682 597 715 l 633 499 l 617 499 q 522 540 563 528 q 433 553 482 553 q 296 497 342 553 q 250 301 250 442 q 261 210 250 243 q 302 160 272 176 q 389 144 332 144 q 454 154 421 144 l 460 190 l 471 307 l 658 319 l 644 224 l 621 35 q 367 -12 478 -12 q 121 69 206 -12 q 36 310 36 150 q 152 608 36 500 q 482 715 268 715 z "},"h":{"ha":836,"x_min":51,"x_max":794,"o":"m 724 228 l 704 0 l 500 0 l 535 207 l 540 267 l 404 268 l 281 265 l 275 228 l 256 0 l 51 0 l 86 207 l 139 706 l 346 706 l 306 435 l 436 432 l 558 435 l 586 706 l 794 706 l 724 228 z "},"i":{"ha":399,"x_min":51,"x_max":346,"o":"m 256 0 l 51 0 l 86 207 l 139 706 l 346 706 l 275 228 l 256 0 z "},"j":{"ha":453,"x_min":-10,"x_max":386,"o":"m 319 232 l 310 135 q 273 22 301 68 q 189 -59 244 -24 q 38 -128 133 -94 l -10 -21 l -8 -4 q 85 55 57 24 q 119 138 114 86 l 129 211 l 165 556 l 49 553 l 39 565 l 68 706 l 386 706 l 319 232 z "},"k":{"ha":732,"x_min":50,"x_max":761,"o":"m 486 369 q 700 43 571 221 l 693 19 q 488 -14 592 -3 l 464 -1 q 290 338 357 199 l 275 228 l 254 0 l 50 0 l 85 207 l 138 706 l 344 706 l 300 400 l 492 631 l 542 706 l 761 706 l 486 369 z "},"l":{"ha":542,"x_min":44,"x_max":503,"o":"m 471 0 l 44 0 l 81 207 l 132 706 l 339 706 l 269 228 l 264 167 l 493 167 l 503 153 l 471 0 z "},"m":{"ha":944,"x_min":11,"x_max":875,"o":"m 671 0 l 690 214 l 696 410 l 685 410 l 506 67 l 351 67 l 278 410 l 265 410 l 224 233 l 183 0 l 11 0 l 171 706 l 408 706 l 419 604 l 467 332 l 479 332 l 601 599 l 644 706 l 875 706 l 850 0 l 671 0 z "},"n":{"ha":838,"x_min":50,"x_max":794,"o":"m 703 0 l 485 0 l 288 401 l 278 401 l 258 251 l 233 0 l 50 0 l 86 207 l 138 706 l 356 706 l 553 304 l 565 304 l 607 697 l 794 710 l 724 226 l 703 0 z "},"o":{"ha":775,"x_min":36,"x_max":744,"o":"m 436 717 q 665 639 585 717 q 744 404 744 561 q 697 188 744 283 q 560 40 650 93 q 346 -14 469 -14 q 117 65 197 -14 q 36 304 36 144 q 83 519 36 425 q 221 665 131 613 q 436 717 311 717 m 411 554 q 290 501 329 554 q 250 308 250 447 q 261 207 250 243 q 298 156 272 171 q 371 142 324 142 q 491 196 451 142 q 531 388 531 250 q 519 488 531 451 q 483 539 508 524 q 411 554 458 554 z "},"p":{"ha":696,"x_min":50,"x_max":693,"o":"m 446 706 q 625 649 557 706 q 693 493 693 593 q 648 347 693 413 q 523 243 603 281 q 344 206 443 206 l 274 206 l 254 0 l 50 0 l 85 207 l 138 706 l 446 706 m 389 350 q 475 479 475 389 q 456 540 475 521 q 390 563 438 558 l 324 558 l 293 354 l 389 350 z "},"q":{"ha":779,"x_min":36,"x_max":806,"o":"m 806 -96 q 696 -222 753 -179 l 681 -229 q 358 -14 504 -146 l 346 -14 q 117 65 197 -14 q 36 304 36 144 q 83 519 36 425 q 221 665 131 613 q 436 717 311 717 q 665 639 585 717 q 744 404 744 561 q 691 176 744 275 q 539 29 638 78 q 800 -78 656 -36 l 806 -96 m 250 308 q 261 207 250 243 q 298 156 272 171 q 371 142 324 142 q 491 196 451 142 q 531 388 531 250 q 519 488 531 451 q 483 539 508 524 q 411 554 458 554 q 290 501 329 554 q 250 308 250 447 z "},"r":{"ha":736,"x_min":50,"x_max":694,"o":"m 694 510 q 654 377 694 438 q 540 275 614 317 q 679 47 611 149 l 672 25 q 469 -12 565 -7 l 444 8 q 365 217 392 139 l 272 217 l 254 0 l 50 0 l 86 207 l 138 706 l 454 706 q 630 653 565 706 q 694 510 694 601 m 294 368 l 390 363 q 475 481 475 396 q 455 540 475 521 q 390 561 435 558 l 324 557 l 294 368 z "},"s":{"ha":624,"x_min":14,"x_max":592,"o":"m 393 717 q 592 681 501 717 l 543 504 l 513 497 q 428 547 471 529 q 353 564 386 564 q 305 549 322 564 q 288 513 288 535 q 310 474 288 489 q 382 438 332 460 q 472 392 436 414 q 533 333 507 371 q 560 239 560 296 q 526 117 560 175 q 421 23 492 60 q 244 -14 350 -14 q 14 28 122 -14 l 63 213 l 83 226 q 184 159 128 185 q 283 133 240 133 q 334 149 314 133 q 354 189 354 165 q 331 227 354 211 q 260 264 308 243 q 169 308 206 286 q 107 369 133 331 q 81 464 81 407 q 118 591 81 533 q 227 683 156 649 q 393 717 299 717 z "},"t":{"ha":618,"x_min":53,"x_max":636,"o":"m 606 538 l 461 546 l 435 546 l 390 228 l 371 0 l 167 0 l 203 207 l 239 546 l 213 546 l 64 538 l 53 553 l 85 706 l 626 706 l 636 690 l 606 538 z "},"u":{"ha":768,"x_min":61,"x_max":743,"o":"m 678 236 q 577 51 663 115 q 342 -12 492 -12 q 135 40 208 -12 q 61 189 61 92 q 65 236 61 214 l 81 349 l 119 706 l 324 706 l 260 265 q 258 238 258 256 q 361 150 258 150 q 492 265 479 150 l 536 706 l 743 706 l 693 347 l 678 236 z "},"v":{"ha":722,"x_min":68,"x_max":756,"o":"m 190 0 l 68 706 l 274 706 l 281 593 l 336 183 l 347 183 l 521 581 l 556 706 l 756 706 l 438 0 l 190 0 z "},"w":{"ha":1064,"x_min":82,"x_max":1100,"o":"m 569 0 l 519 268 l 508 268 l 397 0 l 178 0 l 82 706 l 282 706 l 281 599 l 321 210 l 333 210 l 471 540 l 450 706 l 660 706 l 660 578 l 708 210 l 721 210 l 875 588 l 910 706 l 1100 706 l 789 0 l 569 0 z "},"x":{"ha":744,"x_min":-18,"x_max":767,"o":"m 692 0 l 451 0 l 425 83 l 354 218 l 238 72 l 193 0 l -18 0 l 258 351 l 64 706 l 307 706 l 333 621 l 401 490 l 507 631 l 549 706 l 767 706 l 501 361 l 692 0 z "},"y":{"ha":696,"x_min":56,"x_max":742,"o":"m 414 188 l 400 0 l 196 0 l 229 188 l 232 222 l 56 706 l 271 706 l 281 649 l 351 425 l 364 425 l 500 642 l 533 706 l 742 706 l 419 219 l 414 188 z "},"z":{"ha":671,"x_min":7,"x_max":665,"o":"m 267 151 l 468 151 l 607 164 l 613 156 l 576 -6 l 383 0 l 113 0 l 7 -6 l 24 140 l 410 551 l 214 551 l 79 539 l 74 549 l 107 708 l 272 706 l 665 706 l 649 558 l 267 151 z "},"{":{"ha":414,"x_min":42,"x_max":474,"o":"m 372 914 q 468 899 419 914 l 474 885 l 444 776 q 397 783 417 783 q 314 683 314 783 q 321 615 314 654 q 328 544 328 553 q 299 448 328 490 q 214 382 269 406 l 213 374 q 292 249 292 335 q 261 139 292 211 q 233 38 233 69 q 297 -28 233 -28 q 346 -21 315 -28 l 350 -129 l 340 -144 q 240 -158 293 -158 q 106 -121 153 -158 q 60 -14 60 -83 q 93 133 60 33 q 118 235 118 208 q 42 328 118 303 l 53 426 q 157 557 157 458 q 153 622 157 588 q 149 706 149 706 q 206 861 149 808 q 372 914 264 914 z "},"|":{"ha":424,"x_min":47,"x_max":392,"o":"m 300 406 l 210 -347 l 61 -358 l 47 -340 l 226 1107 l 378 1119 l 392 1104 l 300 406 z "},"}":{"ha":414,"x_min":-47,"x_max":385,"o":"m 54 -160 q -42 -144 7 -160 l -47 -131 l -18 -22 q 29 -29 10 -29 q 113 71 113 -29 q 106 139 113 100 q 99 210 99 201 q 128 306 99 264 q 213 372 157 349 l 214 381 q 135 506 135 419 q 165 615 135 543 q 193 717 193 685 q 129 782 193 782 q 81 775 111 782 l 76 883 l 86 899 q 186 913 133 913 q 320 875 274 913 q 367 768 367 838 q 333 621 367 721 q 308 519 308 546 q 385 426 308 451 l 374 328 q 269 197 269 296 q 274 132 269 167 q 278 49 278 49 q 220 -107 278 -54 q 54 -160 163 -160 z "},"~":{"ha":667,"x_min":28,"x_max":647,"o":"m 207 317 q 168 301 189 317 q 125 265 147 286 q 94 236 103 244 l 76 236 l 28 307 l 29 325 l 167 464 l 186 474 q 325 435 236 464 q 469 397 440 397 q 509 413 489 397 q 551 449 529 428 q 582 478 574 469 l 601 478 l 647 407 l 646 389 l 511 249 l 490 242 q 342 282 456 247 q 207 317 232 317 z "}," ":{"ha":186,"x_min":0,"x_max":0,"o":""},"¡":{"ha":386,"x_min":1,"x_max":336,"o":"m 129 314 l 253 332 l 272 310 l 219 -237 l 199 -262 l 24 -274 l 1 -247 l 129 314 m 221 439 q 142 467 169 439 q 115 547 115 496 q 146 633 115 601 q 229 665 176 665 q 308 637 281 665 q 336 557 336 608 q 305 471 336 503 q 221 439 274 439 z "},"¢":{"ha":538,"x_min":32,"x_max":531,"o":"m 488 225 q 318 65 417 110 l 282 -172 l 175 -172 l 163 -157 l 193 53 q 71 134 110 75 q 32 301 32 193 q 98 556 32 447 q 293 699 164 664 l 325 913 l 429 913 l 446 896 l 418 710 l 522 679 l 531 660 l 482 526 l 442 525 q 397 563 417 551 q 351 574 376 574 q 242 513 279 574 q 204 336 204 451 q 223 230 204 263 q 281 197 242 197 q 404 300 342 197 l 428 299 l 488 225 z "},"£":{"ha":639,"x_min":-14,"x_max":656,"o":"m 496 828 q 656 807 572 828 l 628 656 l 613 646 q 463 690 528 690 q 354 596 367 690 l 339 482 l 514 482 l 519 471 l 497 367 l 324 367 l 311 275 q 290 200 306 228 q 242 149 274 172 l 242 143 l 431 143 l 575 154 l 581 143 l 549 -6 l 361 0 l -7 0 l -14 11 l 8 129 q 92 174 64 142 q 126 263 121 206 l 139 367 l 38 367 l 33 376 l 54 482 l 153 482 l 163 563 q 263 759 176 690 q 496 828 350 828 z "},"¤":{"ha":604,"x_min":-1,"x_max":640,"o":"m 638 671 l 531 586 q 547 501 547 549 q 510 383 547 444 l 597 304 l 599 285 l 493 186 l 475 186 l 403 283 q 292 253 349 253 q 196 279 240 253 l 106 182 l 85 181 l -1 272 l 3 292 l 108 375 q 92 458 92 411 q 131 579 92 524 l 43 660 l 43 679 l 149 776 l 167 776 l 240 679 q 347 706 290 706 q 439 682 399 706 l 533 781 l 554 783 l 640 690 l 638 671 m 333 592 q 242 557 278 592 q 206 467 206 522 q 233 395 206 422 q 306 368 260 368 q 397 403 361 368 q 433 494 433 439 q 406 565 433 539 q 333 592 379 592 z "},"¥":{"ha":785,"x_min":32,"x_max":789,"o":"m 747 429 l 729 340 l 539 340 l 474 246 l 715 246 l 724 236 l 707 149 l 446 149 l 433 0 l 247 0 l 274 149 l 38 149 l 32 158 l 47 246 l 274 246 l 236 340 l 61 340 l 56 351 l 72 438 l 199 438 l 93 703 l 289 703 l 301 649 l 392 413 l 403 413 l 567 643 l 599 703 l 789 703 l 606 438 l 740 438 l 747 429 z "},"¦":{"ha":424,"x_min":47,"x_max":392,"o":"m 317 526 l 167 507 l 154 521 l 226 1107 l 378 1119 l 392 1104 l 317 526 m 210 -347 l 63 -358 l 47 -340 l 115 207 l 261 224 l 276 204 l 210 -347 z "},"§":{"ha":625,"x_min":-6,"x_max":614,"o":"m 317 718 q 340 678 317 696 q 415 635 364 661 q 510 580 474 604 q 573 517 546 556 q 600 426 600 478 q 557 305 600 361 q 442 215 514 249 q 507 88 507 160 q 467 -25 507 26 q 360 -106 428 -76 q 210 -136 292 -136 q 101 -124 161 -136 q -6 -94 40 -112 l 38 63 l 57 75 q 150 15 99 38 q 243 -8 201 -8 q 305 10 282 -8 q 328 50 328 28 q 304 90 328 72 q 229 135 281 108 q 135 190 171 165 q 72 253 99 214 q 44 343 44 292 q 87 466 44 408 q 201 558 129 524 q 139 683 139 611 q 178 796 139 744 q 285 878 218 847 q 435 908 353 908 q 614 875 532 908 l 574 724 l 549 717 q 396 775 463 775 q 339 757 361 775 q 317 718 317 739 m 225 396 q 253 338 225 363 q 340 281 281 314 q 419 374 419 318 q 392 432 419 408 q 306 490 365 456 q 225 396 225 450 z "},"¨":{"ha":542,"x_min":113,"x_max":561,"o":"m 215 964 q 283 938 258 964 q 308 868 308 913 q 281 792 308 819 q 207 764 254 764 q 137 789 161 764 q 113 860 113 814 q 140 936 113 908 q 215 964 168 964 m 468 963 q 537 938 513 963 q 561 868 561 913 q 534 791 561 819 q 460 763 507 763 q 365 860 365 763 q 393 935 365 908 q 468 963 421 963 z "},"©":{"ha":964,"x_min":74,"x_max":910,"o":"m 492 831 q 711 778 617 831 q 858 629 806 725 q 910 407 910 533 q 858 185 910 281 q 711 36 806 89 q 492 -17 617 -17 q 272 36 367 -17 q 126 185 178 89 q 74 407 74 281 q 126 629 74 533 q 272 778 178 725 q 492 831 367 831 m 492 758 q 310 715 389 758 q 189 591 232 671 q 146 407 146 511 q 189 223 146 303 q 310 99 232 143 q 492 56 389 56 q 673 99 594 56 q 794 223 751 143 q 838 407 838 303 q 794 591 838 511 q 673 715 751 671 q 492 758 594 758 m 526 644 q 647 626 586 644 l 621 514 l 613 508 q 521 529 568 529 q 451 505 472 529 q 429 422 429 481 q 453 326 429 357 q 528 294 476 294 q 622 308 576 294 l 633 303 l 622 190 q 518 178 578 178 q 281 407 281 178 q 344 582 281 519 q 526 644 408 644 z "},"ª":{"ha":457,"x_min":63,"x_max":471,"o":"m 426 558 l 421 456 l 290 447 l 310 596 l 296 596 q 192 443 244 497 l 174 443 q 87 499 111 463 q 63 596 63 535 q 121 783 63 697 q 289 899 179 869 l 296 899 l 381 885 l 461 903 l 471 896 l 426 558 m 210 561 q 256 611 224 561 q 329 750 289 661 l 333 785 l 333 790 l 271 804 q 208 760 231 803 q 185 647 185 718 q 210 561 185 561 z "},"«":{"ha":615,"x_min":43,"x_max":624,"o":"m 47 339 l 261 581 l 356 528 l 357 508 l 201 318 l 310 128 l 304 108 l 196 54 l 43 307 l 47 339 m 314 339 l 528 581 l 622 528 l 624 508 l 468 318 l 576 128 l 571 108 l 463 54 l 310 307 l 314 339 z "},"¬":{"ha":667,"x_min":25,"x_max":615,"o":"m 572 64 l 440 53 l 426 67 l 454 286 l 38 286 l 25 301 l 51 432 l 608 432 l 615 419 l 572 64 z "},"­":{"ha":419,"x_min":31,"x_max":396,"o":"m 381 304 l 44 253 l 31 269 l 46 403 l 382 453 l 396 438 l 381 304 z "},"®":{"ha":624,"x_min":50,"x_max":574,"o":"m 311 976 q 501 904 429 976 q 574 715 574 832 q 502 525 574 597 q 311 453 431 453 q 122 525 194 453 q 50 715 50 597 q 122 904 50 832 q 311 976 194 976 m 313 503 q 465 561 407 503 q 524 715 524 619 q 465 867 524 810 q 313 925 407 925 q 160 867 218 925 q 101 715 101 810 q 160 561 101 619 q 313 503 218 503 m 431 775 q 379 693 431 724 q 449 604 433 622 l 447 596 q 374 582 425 588 l 364 589 q 318 672 339 631 l 278 672 l 282 588 l 207 588 l 210 667 l 207 858 l 332 860 q 431 775 431 860 m 353 768 q 306 804 353 803 l 282 803 l 279 728 l 321 725 q 353 768 353 740 z "},"¯":{"ha":542,"x_min":132,"x_max":543,"o":"m 532 799 l 144 799 l 132 813 l 142 932 l 529 932 l 543 918 l 532 799 z "},"°":{"ha":407,"x_min":68,"x_max":438,"o":"m 275 910 q 392 863 346 910 q 438 746 438 815 q 409 645 438 692 q 333 572 381 599 q 231 544 285 544 q 114 592 160 544 q 68 708 68 639 q 97 809 68 763 q 173 883 125 856 q 275 910 221 910 m 264 819 q 190 790 219 819 q 160 717 160 760 q 183 658 160 681 q 242 635 206 635 q 315 665 285 635 q 346 738 346 694 q 323 797 346 774 q 264 819 300 819 z "},"±":{"ha":664,"x_min":-25,"x_max":647,"o":"m 417 432 l 635 432 l 647 417 l 621 286 l 399 286 l 372 64 l 240 53 l 226 67 l 254 286 l 35 286 l 24 301 l 50 432 l 272 432 l 299 654 l 431 665 l 444 651 l 417 432 m 575 -175 l -11 -175 l -25 -160 l -14 -29 l 572 -29 l 586 -44 l 575 -175 z "},"²":{"ha":508,"x_min":44,"x_max":493,"o":"m 324 979 q 441 947 394 979 q 488 857 488 914 q 456 765 488 814 q 350 639 425 717 l 275 561 l 278 558 l 389 558 l 486 565 l 493 554 l 460 426 l 324 433 l 89 433 l 53 431 l 44 438 l 57 533 l 203 668 q 289 756 264 726 q 314 811 314 786 q 269 846 314 846 q 203 830 240 846 q 132 786 165 814 l 114 786 l 100 908 q 324 979 222 979 z "},"³":{"ha":454,"x_min":60,"x_max":468,"o":"m 292 981 q 419 947 371 981 q 468 858 468 914 q 367 722 468 769 l 365 717 q 450 607 450 690 q 372 474 450 525 q 169 424 294 424 q 60 435 111 424 l 64 551 l 76 561 q 186 544 136 544 q 290 601 290 544 q 233 640 290 640 l 157 640 l 150 650 l 165 758 l 210 760 q 269 778 244 761 q 294 819 294 794 q 244 854 294 854 q 132 821 201 854 l 115 821 l 101 929 q 292 981 197 981 z "},"´":{"ha":542,"x_min":156,"x_max":514,"o":"m 514 903 l 510 882 q 226 722 313 768 l 207 724 l 156 804 q 417 1021 307 922 l 438 1019 l 514 903 z "},"µ":{"ha":706,"x_min":1,"x_max":669,"o":"m 601 158 l 596 8 l 399 -6 l 428 213 l 413 213 q 232 -4 319 72 l 219 -6 l 206 -104 l 200 -256 l 1 -269 l 104 492 l 110 642 l 307 654 l 251 238 l 251 235 l 250 228 q 276 199 250 199 q 457 422 333 199 l 467 492 l 472 642 l 669 654 l 601 158 z "},"¶":{"ha":747,"x_min":58,"x_max":796,"o":"m 763 731 l 674 731 l 610 281 l 601 193 q 515 8 588 81 q 276 -124 443 -65 l 232 -25 l 235 -6 q 351 78 314 35 q 397 185 389 121 l 406 257 l 457 732 l 400 732 q 319 674 349 719 q 290 563 290 629 q 375 393 290 454 l 286 283 q 117 382 176 311 q 58 556 58 453 q 165 806 58 715 q 458 896 271 896 l 783 896 l 796 881 l 763 731 z "},"·":{"ha":319,"x_min":51,"x_max":272,"o":"m 167 467 q 245 438 218 467 q 272 358 272 410 q 242 272 272 304 q 158 240 211 240 q 79 269 107 240 q 51 349 51 297 q 83 435 51 403 q 167 467 114 467 z "},"¸":{"ha":542,"x_min":76,"x_max":333,"o":"m 275 -90 q 333 -175 333 -124 q 296 -253 333 -222 q 194 -283 258 -283 q 76 -246 131 -283 l 90 -158 l 100 -156 q 181 -196 143 -196 q 211 -169 211 -196 q 190 -144 211 -156 l 121 -106 l 153 39 l 251 39 l 228 -64 l 275 -90 z "},"¹":{"ha":393,"x_min":67,"x_max":375,"o":"m 326 625 l 310 433 l 140 433 l 168 610 l 192 799 l 76 778 l 67 785 l 82 913 l 354 981 l 375 964 l 326 625 z "},"º":{"ha":436,"x_min":64,"x_max":451,"o":"m 322 901 q 451 742 451 876 q 386 528 451 607 q 206 442 321 449 l 194 444 q 64 613 64 467 q 130 819 64 740 q 308 903 196 897 l 322 901 m 286 806 q 212 758 233 806 q 190 611 190 710 q 199 553 190 569 q 232 536 208 536 q 303 584 282 536 q 324 732 324 632 q 316 790 324 774 q 286 806 308 806 z "},"»":{"ha":613,"x_min":-7,"x_max":572,"o":"m 568 300 l 354 58 l 260 111 l 258 131 l 414 321 l 306 511 l 311 531 l 419 585 l 572 332 l 568 300 m 303 300 l 89 58 l -6 111 l -7 131 l 149 321 l 40 511 l 46 531 l 154 585 l 307 332 l 303 300 z "},"¼":{"ha":1072,"x_min":31,"x_max":1026,"o":"m 121 -129 l 36 -74 l 31 -53 l 803 957 l 882 904 l 890 875 l 121 -129 m 58 708 l 74 836 l 346 904 l 367 888 l 318 549 l 301 357 l 132 357 l 160 533 l 183 722 l 68 701 l 58 708 m 936 113 l 931 11 l 919 0 l 788 -7 l 781 3 l 797 114 l 663 114 l 563 111 l 554 124 l 565 224 l 835 539 l 989 539 l 947 235 l 1019 235 l 1026 221 l 1006 111 l 936 113 m 815 235 l 831 365 l 821 365 l 710 235 l 815 235 z "},"½":{"ha":1063,"x_min":31,"x_max":1006,"o":"m 890 875 l 121 -129 l 36 -74 l 31 -53 l 803 957 l 882 904 l 890 875 m 318 549 l 301 357 l 132 357 l 160 533 l 183 722 l 68 701 l 58 708 l 74 836 l 346 904 l 367 888 l 318 549 m 836 546 q 953 513 907 546 q 1000 424 1000 481 q 969 332 1000 381 q 863 206 938 283 l 788 128 l 790 125 l 901 125 l 999 132 l 1006 121 l 972 -7 l 836 0 l 601 0 l 565 -3 l 557 4 l 569 100 l 715 235 q 801 323 776 293 q 826 378 826 353 q 782 413 826 413 q 715 397 753 413 q 644 353 678 381 l 626 353 l 613 475 q 836 546 735 546 z "},"¾":{"ha":1133,"x_min":47,"x_max":1088,"o":"m 182 -129 l 97 -74 l 92 -53 l 864 957 l 943 904 l 951 875 l 182 -129 m 438 531 q 360 398 438 449 q 157 347 282 347 q 47 358 99 347 l 51 475 l 64 485 q 174 468 124 468 q 278 525 278 468 q 221 564 278 564 l 144 564 l 138 574 l 153 682 l 197 683 q 257 701 232 685 q 282 743 282 718 q 232 778 282 778 q 119 744 189 778 l 103 744 l 89 853 q 279 904 185 904 q 407 871 358 904 q 456 782 456 838 q 354 646 456 693 l 353 640 q 438 531 438 614 m 997 113 l 992 11 l 981 0 l 849 -7 l 842 3 l 858 114 l 724 114 l 624 111 l 615 124 l 626 224 l 896 539 l 1050 539 l 1008 235 l 1081 235 l 1088 221 l 1067 111 l 997 113 m 876 235 l 892 365 l 882 365 l 771 235 l 876 235 z "},"¿":{"ha":478,"x_min":-68,"x_max":397,"o":"m 300 -279 q 26 -216 121 -269 q -68 -69 -68 -162 q -27 49 -68 -7 q 88 143 14 104 l 188 196 l 190 204 l 196 314 l 349 336 l 363 321 l 356 142 l 346 128 l 217 68 q 131 -35 131 28 q 183 -103 131 -79 q 360 -136 236 -128 l 372 -157 l 321 -268 l 300 -279 m 282 439 q 204 467 232 439 q 176 547 176 496 q 208 633 176 601 q 292 665 239 665 q 370 637 343 665 q 397 557 397 608 q 367 471 397 503 q 282 439 336 439 z "},"À":{"ha":833,"x_min":-32,"x_max":775,"o":"m 553 0 l 546 128 l 539 183 l 382 186 l 246 182 l 228 140 l 185 0 l -32 0 l 364 896 l 628 896 l 775 0 l 553 0 m 474 693 l 460 693 l 315 350 l 415 347 l 518 349 l 474 693 m 406 1251 q 703 1090 531 1176 l 668 1000 l 649 994 q 339 1099 465 1053 l 332 1118 l 386 1246 l 406 1251 z "},"Á":{"ha":833,"x_min":-32,"x_max":775,"o":"m 553 0 l 546 128 l 539 183 l 382 186 l 246 182 l 228 140 l 185 0 l -32 0 l 364 896 l 628 896 l 775 0 l 553 0 m 474 693 l 460 693 l 315 350 l 415 347 l 518 349 l 474 693 m 711 1117 l 704 1097 q 394 993 583 1053 l 374 999 l 340 1088 q 636 1250 513 1176 l 656 1244 l 711 1117 z "},"Â":{"ha":833,"x_min":-32,"x_max":775,"o":"m 553 0 l 546 128 l 539 183 l 382 186 l 246 182 l 228 140 l 185 0 l -32 0 l 364 896 l 628 896 l 775 0 l 553 0 m 474 693 l 460 693 l 315 350 l 415 347 l 518 349 l 474 693 m 301 1092 q 507 1243 415 1167 l 549 1243 q 733 1092 622 1174 l 685 1007 l 664 1007 l 521 1093 l 429 1046 q 351 1007 376 1021 l 331 1007 l 301 1092 z "},"Ã":{"ha":833,"x_min":-32,"x_max":775,"o":"m 553 0 l 546 128 l 539 183 l 382 186 l 246 182 l 228 140 l 185 0 l -32 0 l 364 896 l 628 896 l 775 0 l 553 0 m 474 693 l 460 693 l 315 350 l 415 347 l 518 349 l 474 693 m 771 1161 l 668 1025 l 649 1018 q 531 1046 617 1022 q 435 1067 453 1067 q 401 1052 417 1067 q 369 1018 385 1038 q 346 992 353 999 l 326 992 l 263 1054 l 263 1072 l 365 1207 l 385 1214 q 504 1188 404 1211 q 599 1167 579 1167 q 633 1181 617 1167 q 667 1215 650 1196 q 689 1242 683 1235 l 707 1242 l 771 1179 l 771 1161 z "},"Ä":{"ha":833,"x_min":-32,"x_max":775,"o":"m 553 0 l 546 128 l 539 183 l 382 186 l 246 182 l 228 140 l 185 0 l -32 0 l 364 896 l 628 896 l 775 0 l 553 0 m 474 693 l 460 693 l 315 350 l 415 347 l 518 349 l 474 693 m 394 1211 q 463 1185 438 1211 q 488 1115 488 1160 q 460 1039 488 1067 q 386 1011 433 1011 q 316 1036 340 1011 q 292 1107 292 1061 q 319 1183 292 1156 q 394 1211 347 1211 m 647 1210 q 716 1185 692 1210 q 740 1115 740 1160 q 713 1038 740 1067 q 639 1010 686 1010 q 544 1107 544 1010 q 572 1183 544 1156 q 647 1210 600 1210 z "},"Å":{"ha":833,"x_min":-32,"x_max":775,"o":"m 553 0 l 546 128 l 539 183 l 382 186 l 246 182 l 228 140 l 185 0 l -32 0 l 364 896 l 628 896 l 775 0 l 553 0 m 474 693 l 460 693 l 315 350 l 415 347 l 518 349 l 474 693 m 521 1269 q 657 1136 657 1269 q 619 1029 657 1067 q 513 992 582 992 q 413 1026 447 992 q 378 1128 378 1061 q 415 1233 378 1196 q 521 1269 451 1269 m 517 1179 q 464 1132 464 1179 q 518 1079 464 1079 q 571 1128 571 1079 q 517 1179 571 1179 z "},"Æ":{"ha":1131,"x_min":-65,"x_max":1104,"o":"m 1069 0 l 514 0 l 524 128 l 526 283 l 249 207 l 211 140 l 153 0 l -65 0 l 449 896 l 1092 896 l 1103 879 l 1068 717 l 860 724 l 747 724 l 742 507 l 1003 578 l 1017 565 l 1017 411 l 738 340 l 733 171 l 868 171 l 1093 179 l 1104 163 l 1069 0 m 533 693 l 519 693 l 357 401 l 529 449 l 533 693 z "},"Ç":{"ha":710,"x_min":44,"x_max":764,"o":"m 532 908 q 764 861 663 908 l 703 681 l 686 672 q 511 728 611 728 q 337 646 393 728 q 281 397 281 564 q 453 171 281 171 q 647 219 554 171 l 665 208 l 625 26 q 461 -12 539 -8 l 450 -62 l 497 -89 q 556 -174 556 -122 q 518 -251 556 -221 q 417 -282 481 -282 q 299 -244 353 -282 l 313 -157 l 322 -154 q 403 -194 365 -194 q 433 -168 433 -194 q 413 -143 433 -154 l 343 -104 l 364 -11 q 126 101 208 4 q 44 361 44 197 q 101 655 44 532 q 268 843 158 778 q 532 908 378 908 z "},"È":{"ha":714,"x_min":58,"x_max":767,"o":"m 342 539 l 486 538 l 629 542 l 640 526 l 606 364 l 450 368 l 317 367 l 306 286 l 294 172 l 440 171 l 661 179 l 671 163 l 638 0 l 58 0 l 101 265 l 169 896 l 756 896 l 767 879 l 731 717 l 519 724 l 368 722 l 342 539 m 371 1251 q 668 1090 496 1176 l 633 1000 l 614 994 q 304 1099 431 1053 l 297 1118 l 351 1246 l 371 1251 z "},"É":{"ha":714,"x_min":58,"x_max":767,"o":"m 342 539 l 486 538 l 629 542 l 640 526 l 606 364 l 450 368 l 317 367 l 306 286 l 294 172 l 440 171 l 661 179 l 671 163 l 638 0 l 58 0 l 101 265 l 169 896 l 756 896 l 767 879 l 731 717 l 519 724 l 368 722 l 342 539 m 675 1117 l 668 1097 q 358 993 547 1053 l 338 999 l 304 1088 q 600 1250 476 1176 l 619 1244 l 675 1117 z "},"Ê":{"ha":714,"x_min":58,"x_max":767,"o":"m 342 539 l 486 538 l 629 542 l 640 526 l 606 364 l 450 368 l 317 367 l 306 286 l 294 172 l 440 171 l 661 179 l 671 163 l 638 0 l 58 0 l 101 265 l 169 896 l 756 896 l 767 879 l 731 717 l 519 724 l 368 722 l 342 539 m 267 1092 q 472 1243 381 1167 l 514 1243 q 699 1092 588 1174 l 650 1007 l 629 1007 l 486 1093 l 394 1046 q 317 1007 342 1021 l 296 1007 l 267 1092 z "},"Ë":{"ha":714,"x_min":58,"x_max":767,"o":"m 342 539 l 486 538 l 629 542 l 640 526 l 606 364 l 450 368 l 317 367 l 306 286 l 294 172 l 440 171 l 661 179 l 671 163 l 638 0 l 58 0 l 101 265 l 169 896 l 756 896 l 767 879 l 731 717 l 519 724 l 368 722 l 342 539 m 360 1211 q 428 1185 403 1211 q 453 1115 453 1160 q 426 1039 453 1067 q 351 1011 399 1011 q 281 1036 306 1011 q 257 1107 257 1061 q 285 1183 257 1156 q 360 1211 313 1211 m 613 1210 q 681 1185 657 1210 q 706 1115 706 1160 q 678 1038 706 1067 q 604 1010 651 1010 q 510 1107 510 1010 q 538 1183 510 1156 q 613 1210 565 1210 z "},"Ì":{"ha":422,"x_min":58,"x_max":492,"o":"m 279 0 l 58 0 l 103 265 l 169 896 l 393 896 l 304 286 l 279 0 m 194 1251 q 492 1090 319 1176 l 457 1000 l 438 994 q 128 1099 254 1053 l 121 1118 l 175 1246 l 194 1251 z "},"Í":{"ha":422,"x_min":58,"x_max":500,"o":"m 279 0 l 58 0 l 103 265 l 169 896 l 393 896 l 304 286 l 279 0 m 500 1117 l 493 1097 q 183 993 372 1053 l 163 999 l 129 1088 q 425 1250 301 1176 l 444 1244 l 500 1117 z "},"Î":{"ha":422,"x_min":58,"x_max":522,"o":"m 279 0 l 58 0 l 103 265 l 169 896 l 393 896 l 304 286 l 279 0 m 90 1092 q 296 1243 204 1167 l 338 1243 q 522 1092 411 1174 l 474 1007 l 453 1007 l 310 1093 l 218 1046 q 140 1007 165 1021 l 119 1007 l 90 1092 z "},"Ï":{"ha":422,"x_min":58,"x_max":517,"o":"m 279 0 l 58 0 l 103 265 l 169 896 l 393 896 l 304 286 l 279 0 m 196 1210 q 265 1185 240 1210 q 289 1114 289 1160 q 262 1038 289 1065 q 188 1010 235 1010 q 117 1035 142 1010 q 93 1106 93 1060 q 121 1182 93 1154 q 196 1210 149 1210 m 424 1210 q 492 1185 468 1210 q 517 1114 517 1160 q 490 1038 517 1065 q 415 1010 463 1010 q 345 1035 369 1010 q 321 1106 321 1060 q 349 1182 321 1154 q 424 1210 376 1210 z "},"Ð":{"ha":944,"x_min":32,"x_max":933,"o":"m 569 901 q 838 810 742 901 q 933 550 933 718 q 802 138 933 286 q 426 -11 671 -11 q 99 0 290 -11 l 143 265 l 154 368 l 40 368 l 32 383 l 50 514 l 169 514 l 208 896 l 210 896 l 569 901 m 475 157 q 699 517 699 157 q 660 678 699 628 q 540 728 622 728 q 407 721 483 728 l 378 514 l 521 514 l 529 499 l 510 368 l 356 368 l 344 286 l 335 168 q 475 157 413 157 z "},"Ñ":{"ha":960,"x_min":58,"x_max":935,"o":"m 819 0 l 581 0 l 336 561 l 322 561 l 290 314 l 260 0 l 58 0 l 103 264 l 169 896 l 407 896 l 653 335 l 667 335 l 729 888 l 935 900 l 844 282 l 819 0 m 832 1161 l 729 1025 l 710 1018 q 592 1046 678 1022 q 496 1067 514 1067 q 462 1052 478 1067 q 430 1018 446 1038 q 407 992 414 999 l 388 992 l 324 1054 l 324 1072 l 426 1207 l 446 1214 q 565 1188 465 1211 q 660 1167 640 1167 q 694 1181 678 1167 q 728 1215 711 1196 q 750 1242 744 1235 l 768 1242 l 832 1179 l 832 1161 z "},"Ò":{"ha":892,"x_min":44,"x_max":879,"o":"m 518 910 q 785 813 690 910 q 879 528 879 717 q 824 244 879 367 q 661 53 768 121 q 404 -15 554 -15 q 139 83 233 -15 q 44 372 44 182 q 99 655 44 533 q 261 843 154 776 q 518 910 368 910 m 493 732 q 329 651 385 732 q 274 374 274 569 q 308 202 274 253 q 426 151 342 151 q 590 233 535 151 q 646 513 646 315 q 612 682 646 632 q 493 732 578 732 m 432 1251 q 729 1090 557 1176 l 694 1000 l 675 994 q 365 1099 492 1053 l 358 1118 l 413 1246 l 432 1251 z "},"Ó":{"ha":892,"x_min":44,"x_max":879,"o":"m 518 910 q 785 813 690 910 q 879 528 879 717 q 824 244 879 367 q 661 53 768 121 q 404 -15 554 -15 q 139 83 233 -15 q 44 372 44 182 q 99 655 44 533 q 261 843 154 776 q 518 910 368 910 m 493 732 q 329 651 385 732 q 274 374 274 569 q 308 202 274 253 q 426 151 342 151 q 590 233 535 151 q 646 513 646 315 q 612 682 646 632 q 493 732 578 732 m 738 1117 l 731 1097 q 421 993 610 1053 l 400 999 l 367 1088 q 663 1250 539 1176 l 682 1244 l 738 1117 z "},"Ô":{"ha":892,"x_min":44,"x_max":879,"o":"m 518 910 q 785 813 690 910 q 879 528 879 717 q 824 244 879 367 q 661 53 768 121 q 404 -15 554 -15 q 139 83 233 -15 q 44 372 44 182 q 99 655 44 533 q 261 843 154 776 q 518 910 368 910 m 493 732 q 329 651 385 732 q 274 374 274 569 q 308 202 274 253 q 426 151 342 151 q 590 233 535 151 q 646 513 646 315 q 612 682 646 632 q 493 732 578 732 m 328 1092 q 533 1243 442 1167 l 575 1243 q 760 1092 649 1174 l 711 1007 l 690 1007 l 547 1093 l 456 1046 q 378 1007 403 1021 l 357 1007 l 328 1092 z "},"Õ":{"ha":892,"x_min":44,"x_max":879,"o":"m 518 910 q 785 813 690 910 q 879 528 879 717 q 824 244 879 367 q 661 53 768 121 q 404 -15 554 -15 q 139 83 233 -15 q 44 372 44 182 q 99 655 44 533 q 261 843 154 776 q 518 910 368 910 m 493 732 q 329 651 385 732 q 274 374 274 569 q 308 202 274 253 q 426 151 342 151 q 590 233 535 151 q 646 513 646 315 q 612 682 646 632 q 493 732 578 732 m 796 1161 l 693 1025 l 674 1018 q 556 1046 642 1022 q 460 1067 478 1067 q 426 1052 442 1067 q 394 1018 410 1038 q 371 992 378 999 l 351 992 l 288 1054 l 288 1072 l 390 1207 l 410 1214 q 529 1188 429 1211 q 624 1167 604 1167 q 658 1181 642 1167 q 692 1215 675 1196 q 714 1242 708 1235 l 732 1242 l 796 1179 l 796 1161 z "},"Ö":{"ha":892,"x_min":44,"x_max":879,"o":"m 518 910 q 785 813 690 910 q 879 528 879 717 q 824 244 879 367 q 661 53 768 121 q 404 -15 554 -15 q 139 83 233 -15 q 44 372 44 182 q 99 655 44 533 q 261 843 154 776 q 518 910 368 910 m 493 732 q 329 651 385 732 q 274 374 274 569 q 308 202 274 253 q 426 151 342 151 q 590 233 535 151 q 646 513 646 315 q 612 682 646 632 q 493 732 578 732 m 421 1211 q 489 1185 464 1211 q 514 1115 514 1160 q 487 1039 514 1067 q 413 1011 460 1011 q 342 1036 367 1011 q 318 1107 318 1061 q 346 1183 318 1156 q 421 1211 374 1211 m 674 1210 q 742 1185 718 1210 q 767 1115 767 1160 q 740 1038 767 1067 q 665 1010 713 1010 q 571 1107 571 1010 q 599 1183 571 1156 q 674 1210 626 1210 z "},"×":{"ha":668,"x_min":60,"x_max":617,"o":"m 615 514 l 442 360 l 576 204 l 574 183 l 464 99 l 326 256 l 149 99 l 60 183 l 63 203 l 238 360 l 101 514 l 103 535 l 213 619 l 351 461 l 528 619 l 617 535 l 615 514 z "},"Ø":{"ha":892,"x_min":44,"x_max":879,"o":"m 771 826 q 879 528 879 726 q 824 244 879 367 q 661 53 768 121 q 404 -15 554 -15 q 281 0 339 -15 l 178 -172 l 67 -121 l 60 -101 l 158 64 q 44 372 44 165 q 99 655 44 533 q 261 843 154 776 q 518 910 368 910 q 650 893 590 910 l 732 1031 l 840 981 l 850 958 l 771 826 m 426 151 q 590 234 535 151 q 646 513 646 317 q 612 682 646 632 q 493 732 578 732 q 328 651 383 732 q 274 374 274 569 q 308 202 274 253 q 426 151 342 151 z "},"Ù":{"ha":881,"x_min":74,"x_max":875,"o":"m 796 314 q 676 71 776 156 q 400 -14 576 -14 q 160 53 246 -14 q 74 244 74 121 q 78 310 74 275 l 97 444 l 147 896 l 367 896 l 289 339 q 286 293 286 306 q 318 195 286 226 q 418 164 350 164 q 541 205 499 164 q 593 333 583 246 l 653 896 l 875 896 l 813 442 l 796 314 m 428 1251 q 725 1090 553 1176 l 690 1000 l 671 994 q 361 1099 488 1053 l 354 1118 l 408 1246 l 428 1251 z "},"Ú":{"ha":881,"x_min":74,"x_max":875,"o":"m 796 314 q 676 71 776 156 q 400 -14 576 -14 q 160 53 246 -14 q 74 244 74 121 q 78 310 74 275 l 97 444 l 147 896 l 367 896 l 289 339 q 286 293 286 306 q 318 195 286 226 q 418 164 350 164 q 541 205 499 164 q 593 333 583 246 l 653 896 l 875 896 l 813 442 l 796 314 m 732 1117 l 725 1097 q 415 993 604 1053 l 394 999 l 361 1088 q 657 1250 533 1176 l 676 1244 l 732 1117 z "},"Û":{"ha":881,"x_min":74,"x_max":875,"o":"m 796 314 q 676 71 776 156 q 400 -14 576 -14 q 160 53 246 -14 q 74 244 74 121 q 78 310 74 275 l 97 444 l 147 896 l 367 896 l 289 339 q 286 293 286 306 q 318 195 286 226 q 418 164 350 164 q 541 205 499 164 q 593 333 583 246 l 653 896 l 875 896 l 813 442 l 796 314 m 322 1092 q 528 1243 436 1167 l 569 1243 q 754 1092 643 1174 l 706 1007 l 685 1007 l 542 1093 l 450 1046 q 372 1007 397 1021 l 351 1007 l 322 1092 z "},"Ü":{"ha":881,"x_min":74,"x_max":875,"o":"m 796 314 q 676 71 776 156 q 400 -14 576 -14 q 160 53 246 -14 q 74 244 74 121 q 78 310 74 275 l 97 444 l 147 896 l 367 896 l 289 339 q 286 293 286 306 q 318 195 286 226 q 418 164 350 164 q 541 205 499 164 q 593 333 583 246 l 653 896 l 875 896 l 813 442 l 796 314 m 415 1211 q 483 1185 458 1211 q 508 1115 508 1160 q 481 1039 508 1067 q 407 1011 454 1011 q 337 1036 361 1011 q 313 1107 313 1061 q 340 1183 313 1156 q 415 1211 368 1211 m 668 1210 q 737 1185 713 1210 q 761 1115 761 1160 q 734 1038 761 1067 q 660 1010 707 1010 q 565 1107 565 1010 q 593 1183 565 1156 q 668 1210 621 1210 z "},"Ý":{"ha":782,"x_min":71,"x_max":865,"o":"m 471 244 l 450 0 l 231 0 l 272 244 l 276 299 l 71 896 l 300 896 l 311 829 l 403 514 l 417 514 l 601 822 l 638 896 l 865 896 l 479 296 l 471 244 m 683 1117 l 676 1097 q 367 993 556 1053 l 346 999 l 313 1088 q 608 1250 485 1176 l 628 1244 l 683 1117 z "},"Þ":{"ha":790,"x_min":58,"x_max":794,"o":"m 521 760 q 722 699 649 760 q 794 522 794 638 q 744 327 794 413 q 603 194 694 242 q 390 146 511 146 l 294 146 l 281 0 l 58 0 l 103 265 l 169 896 l 394 896 l 375 760 l 521 760 m 443 303 q 565 488 565 343 q 536 573 565 544 q 443 604 507 601 l 351 599 l 310 308 l 443 303 z "},"ß":{"ha":828,"x_min":33,"x_max":786,"o":"m 469 717 q 621 699 550 717 q 778 639 692 681 l 782 615 l 610 419 q 747 317 708 360 q 786 218 786 275 q 701 46 786 104 q 492 -12 617 -12 q 288 31 376 -12 l 336 213 l 354 222 q 497 149 431 149 q 545 165 526 149 q 564 204 564 181 q 544 242 564 224 q 492 278 525 260 q 368 340 458 296 l 367 363 l 521 536 q 429 556 476 556 q 329 528 363 556 q 289 443 296 501 l 257 228 l 238 0 l 33 0 l 68 207 l 94 443 q 207 643 110 569 q 469 717 304 717 z "},"à":{"ha":736,"x_min":-22,"x_max":667,"o":"m 463 0 l 458 111 l 456 128 l 326 129 l 214 126 l 213 122 l 175 0 l -22 0 l 300 706 l 542 706 l 667 0 l 463 0 m 400 522 l 388 522 l 281 278 l 357 276 l 435 278 l 400 522 m 338 1078 q 599 861 461 968 l 549 781 l 529 779 q 244 939 422 838 l 240 960 l 318 1076 l 338 1078 z "},"á":{"ha":736,"x_min":-22,"x_max":667,"o":"m 463 0 l 458 111 l 456 128 l 326 129 l 214 126 l 213 122 l 175 0 l -22 0 l 300 706 l 542 706 l 667 0 l 463 0 m 400 522 l 388 522 l 281 278 l 357 276 l 435 278 l 400 522 m 621 960 l 617 939 q 333 779 419 825 l 314 781 l 263 861 q 524 1078 414 979 l 544 1076 l 621 960 z "},"â":{"ha":736,"x_min":-22,"x_max":668,"o":"m 463 0 l 458 111 l 456 128 l 326 129 l 214 126 l 213 122 l 175 0 l -22 0 l 300 706 l 542 706 l 667 0 l 463 0 m 400 522 l 388 522 l 281 278 l 357 276 l 435 278 l 400 522 m 215 871 q 417 1049 279 922 l 442 1071 l 485 1071 q 668 871 556 983 l 606 789 l 585 789 q 446 911 486 869 q 278 789 393 867 l 257 789 l 215 871 z "},"ã":{"ha":736,"x_min":-22,"x_max":694,"o":"m 463 0 l 458 111 l 456 128 l 326 129 l 214 126 l 213 122 l 175 0 l -22 0 l 300 706 l 542 706 l 667 0 l 463 0 m 400 522 l 388 522 l 281 278 l 357 276 l 435 278 l 400 522 m 694 971 l 592 835 l 572 828 q 454 856 540 832 q 358 876 376 876 q 324 862 340 876 q 292 828 308 847 q 269 801 276 808 l 250 801 l 186 864 l 186 882 l 289 1017 l 308 1024 q 428 997 328 1021 q 522 976 503 976 q 557 991 540 976 q 590 1025 574 1006 q 613 1051 607 1044 l 631 1051 l 694 989 l 694 971 z "},"ä":{"ha":736,"x_min":-22,"x_max":667,"o":"m 463 0 l 458 111 l 456 128 l 326 129 l 214 126 l 213 122 l 175 0 l -22 0 l 300 706 l 542 706 l 667 0 l 463 0 m 400 522 l 388 522 l 281 278 l 357 276 l 435 278 l 400 522 m 318 1021 q 386 995 361 1021 q 411 925 411 969 q 384 849 411 876 q 310 821 357 821 q 240 846 264 821 q 215 917 215 871 q 243 993 215 965 q 318 1021 271 1021 m 571 1019 q 640 994 615 1019 q 664 925 664 969 q 637 848 664 876 q 563 819 610 819 q 468 917 468 819 q 496 992 468 965 q 571 1019 524 1019 z "},"å":{"ha":736,"x_min":-22,"x_max":667,"o":"m 463 0 l 458 111 l 456 128 l 326 129 l 214 126 l 213 122 l 175 0 l -22 0 l 300 706 l 542 706 l 667 0 l 463 0 m 400 522 l 388 522 l 281 278 l 357 276 l 435 278 l 400 522 m 446 1079 q 582 946 582 1079 q 544 839 582 876 q 438 801 507 801 q 338 836 372 801 q 303 938 303 871 q 340 1042 303 1006 q 446 1079 376 1079 m 442 989 q 389 942 389 989 q 443 889 389 889 q 496 938 496 889 q 442 989 496 989 z "},"æ":{"ha":981,"x_min":-49,"x_max":949,"o":"m 919 0 l 446 0 l 456 106 l 456 213 l 203 144 l 186 117 l 138 0 l -49 0 l 383 704 l 932 704 l 942 689 l 911 550 l 733 558 l 638 558 l 636 400 l 858 460 l 871 449 l 869 314 l 635 258 l 633 147 l 747 147 l 940 154 l 949 140 l 919 0 m 457 533 l 444 533 l 308 314 l 457 353 l 457 533 z "},"ç":{"ha":621,"x_min":38,"x_max":644,"o":"m 451 715 q 644 685 564 715 l 589 514 l 572 506 q 424 550 511 550 q 256 329 256 550 q 288 200 256 243 q 392 157 321 157 q 547 193 468 157 l 564 183 l 526 13 q 399 -12 464 -8 l 388 -62 l 435 -89 q 493 -174 493 -122 q 456 -251 493 -221 q 354 -282 418 -282 q 236 -244 290 -282 l 250 -157 l 260 -154 q 340 -194 303 -194 q 371 -168 371 -194 q 350 -143 371 -154 l 281 -104 l 301 -8 q 38 301 38 25 q 146 605 38 494 q 451 715 254 715 z "},"è":{"ha":639,"x_min":50,"x_max":656,"o":"m 306 435 l 424 433 l 543 438 l 553 424 l 522 272 l 390 276 l 282 275 l 275 228 l 268 158 l 383 158 l 572 164 l 583 150 l 551 0 l 50 0 l 86 207 l 138 706 l 646 706 l 656 690 l 624 540 l 446 547 l 321 547 l 306 435 m 299 1078 q 560 861 422 968 l 510 781 l 490 779 q 206 939 383 838 l 201 960 l 279 1076 l 299 1078 z "},"é":{"ha":639,"x_min":50,"x_max":656,"o":"m 306 435 l 424 433 l 543 438 l 553 424 l 522 272 l 390 276 l 282 275 l 275 228 l 268 158 l 383 158 l 572 164 l 583 150 l 551 0 l 50 0 l 86 207 l 138 706 l 646 706 l 656 690 l 624 540 l 446 547 l 321 547 l 306 435 m 582 960 l 578 939 q 294 779 381 825 l 275 781 l 224 861 q 485 1078 375 979 l 506 1076 l 582 960 z "},"ê":{"ha":639,"x_min":50,"x_max":656,"o":"m 306 435 l 424 433 l 543 438 l 553 424 l 522 272 l 390 276 l 282 275 l 275 228 l 268 158 l 383 158 l 572 164 l 583 150 l 551 0 l 50 0 l 86 207 l 138 706 l 646 706 l 656 690 l 624 540 l 446 547 l 321 547 l 306 435 m 176 871 q 378 1049 240 922 l 403 1071 l 446 1071 q 629 871 517 983 l 567 789 l 546 789 q 407 911 447 869 q 239 789 354 867 l 218 789 l 176 871 z "},"ë":{"ha":639,"x_min":50,"x_max":656,"o":"m 306 435 l 424 433 l 543 438 l 553 424 l 522 272 l 390 276 l 282 275 l 275 228 l 268 158 l 383 158 l 572 164 l 583 150 l 551 0 l 50 0 l 86 207 l 138 706 l 646 706 l 656 690 l 624 540 l 446 547 l 321 547 l 306 435 m 281 1021 q 349 995 324 1021 q 374 925 374 969 q 347 849 374 876 q 272 821 319 821 q 202 846 226 821 q 178 917 178 871 q 206 993 178 965 q 281 1021 233 1021 m 533 1019 q 602 994 578 1019 q 626 925 626 969 q 599 848 626 876 q 525 819 572 819 q 431 917 431 819 q 458 992 431 965 q 533 1019 486 1019 z "},"ì":{"ha":399,"x_min":51,"x_max":421,"o":"m 256 0 l 51 0 l 86 207 l 139 706 l 346 706 l 275 228 l 256 0 m 160 1078 q 421 861 283 968 l 371 781 l 351 779 q 67 939 244 838 l 63 960 l 140 1076 l 160 1078 z "},"í":{"ha":399,"x_min":51,"x_max":443,"o":"m 256 0 l 51 0 l 86 207 l 139 706 l 346 706 l 275 228 l 256 0 m 443 960 l 439 939 q 156 779 242 825 l 136 781 l 85 861 q 346 1078 236 979 l 367 1076 l 443 960 z "},"î":{"ha":399,"x_min":38,"x_max":490,"o":"m 256 0 l 51 0 l 86 207 l 139 706 l 346 706 l 275 228 l 256 0 m 38 871 q 239 1049 101 922 l 264 1071 l 307 1071 q 490 871 378 983 l 428 789 l 407 789 q 268 911 308 869 q 100 789 215 867 l 79 789 l 38 871 z "},"ï":{"ha":399,"x_min":50,"x_max":474,"o":"m 256 0 l 51 0 l 86 207 l 139 706 l 346 706 l 275 228 l 256 0 m 153 1019 q 222 994 197 1019 q 246 924 246 969 q 219 847 246 875 q 144 819 192 819 q 74 844 99 819 q 50 915 50 869 q 78 992 50 964 q 153 1019 106 1019 m 381 1019 q 449 994 425 1019 q 474 924 474 969 q 447 847 474 875 q 372 819 419 819 q 302 844 326 819 q 278 915 278 869 q 306 992 278 964 q 381 1019 333 1019 z "},"ð":{"ha":797,"x_min":4,"x_max":772,"o":"m 463 710 q 690 637 608 710 q 772 431 772 564 q 663 106 772 222 q 347 -10 553 -10 q 65 0 211 -10 l 100 207 l 108 282 l 14 282 l 4 297 l 26 411 l 121 411 l 151 706 l 463 710 m 392 144 q 513 203 471 144 q 556 397 556 263 q 526 513 556 478 q 436 549 497 549 q 335 544 389 549 l 315 411 l 451 411 l 458 396 l 436 282 l 296 282 l 288 228 l 282 154 q 392 144 344 144 z "},"ñ":{"ha":838,"x_min":50,"x_max":794,"o":"m 703 0 l 485 0 l 288 401 l 278 401 l 258 251 l 233 0 l 50 0 l 86 207 l 138 706 l 356 706 l 553 304 l 565 304 l 607 697 l 794 710 l 724 226 l 703 0 m 742 971 l 639 835 l 619 828 q 501 856 588 832 q 406 876 424 876 q 372 862 388 876 q 340 828 356 847 q 317 801 324 808 l 297 801 l 233 864 l 233 882 l 336 1017 l 356 1024 q 475 997 375 1021 q 569 976 550 976 q 604 991 588 976 q 638 1025 621 1006 q 660 1051 654 1044 l 678 1051 l 742 989 l 742 971 z "},"ò":{"ha":775,"x_min":36,"x_max":744,"o":"m 436 717 q 665 639 585 717 q 744 404 744 561 q 697 188 744 283 q 560 40 650 93 q 346 -14 469 -14 q 117 65 197 -14 q 36 304 36 144 q 83 519 36 425 q 221 665 131 613 q 436 717 311 717 m 411 554 q 290 501 329 554 q 250 308 250 447 q 261 207 250 243 q 298 156 272 171 q 371 142 324 142 q 491 196 451 142 q 531 388 531 250 q 519 488 531 451 q 483 539 508 524 q 411 554 458 554 m 351 1078 q 613 861 475 968 l 563 781 l 543 779 q 258 939 436 838 l 254 960 l 332 1076 l 351 1078 z "},"ó":{"ha":775,"x_min":36,"x_max":744,"o":"m 436 717 q 665 639 585 717 q 744 404 744 561 q 697 188 744 283 q 560 40 650 93 q 346 -14 469 -14 q 117 65 197 -14 q 36 304 36 144 q 83 519 36 425 q 221 665 131 613 q 436 717 311 717 m 411 554 q 290 501 329 554 q 250 308 250 447 q 261 207 250 243 q 298 156 272 171 q 371 142 324 142 q 491 196 451 142 q 531 388 531 250 q 519 488 531 451 q 483 539 508 524 q 411 554 458 554 m 635 960 l 631 939 q 347 779 433 825 l 328 781 l 276 861 q 538 1078 428 979 l 558 1076 l 635 960 z "},"ô":{"ha":775,"x_min":36,"x_max":744,"o":"m 436 717 q 665 639 585 717 q 744 404 744 561 q 697 188 744 283 q 560 40 650 93 q 346 -14 469 -14 q 117 65 197 -14 q 36 304 36 144 q 83 519 36 425 q 221 665 131 613 q 436 717 311 717 m 411 554 q 290 501 329 554 q 250 308 250 447 q 261 207 250 243 q 298 156 272 171 q 371 142 324 142 q 491 196 451 142 q 531 388 531 250 q 519 488 531 451 q 483 539 508 524 q 411 554 458 554 m 229 871 q 431 1049 293 922 l 456 1071 l 499 1071 q 682 871 569 983 l 619 789 l 599 789 q 460 911 500 869 q 292 789 407 867 l 271 789 l 229 871 z "},"õ":{"ha":775,"x_min":36,"x_max":744,"o":"m 436 717 q 665 639 585 717 q 744 404 744 561 q 697 188 744 283 q 560 40 650 93 q 346 -14 469 -14 q 117 65 197 -14 q 36 304 36 144 q 83 519 36 425 q 221 665 131 613 q 436 717 311 717 m 411 554 q 290 501 329 554 q 250 308 250 447 q 261 207 250 243 q 298 156 272 171 q 371 142 324 142 q 491 196 451 142 q 531 388 531 250 q 519 488 531 451 q 483 539 508 524 q 411 554 458 554 m 708 971 l 606 835 l 586 828 q 468 856 554 832 q 372 876 390 876 q 338 862 354 876 q 306 828 322 847 q 283 801 290 808 l 264 801 l 200 864 l 200 882 l 303 1017 l 322 1024 q 442 997 342 1021 q 536 976 517 976 q 571 991 554 976 q 604 1025 588 1006 q 626 1051 621 1044 l 644 1051 l 708 989 l 708 971 z "},"ö":{"ha":775,"x_min":36,"x_max":744,"o":"m 436 717 q 665 639 585 717 q 744 404 744 561 q 697 188 744 283 q 560 40 650 93 q 346 -14 469 -14 q 117 65 197 -14 q 36 304 36 144 q 83 519 36 425 q 221 665 131 613 q 436 717 311 717 m 411 554 q 290 501 329 554 q 250 308 250 447 q 261 207 250 243 q 298 156 272 171 q 371 142 324 142 q 491 196 451 142 q 531 388 531 250 q 519 488 531 451 q 483 539 508 524 q 411 554 458 554 m 333 1021 q 401 995 376 1021 q 426 925 426 969 q 399 849 426 876 q 325 821 372 821 q 255 846 279 821 q 231 917 231 871 q 258 993 231 965 q 333 1021 286 1021 m 586 1019 q 655 994 631 1019 q 679 925 679 969 q 652 848 679 876 q 578 819 625 819 q 483 917 483 819 q 511 992 483 965 q 586 1019 539 1019 z "},"÷":{"ha":664,"x_min":31,"x_max":642,"o":"m 631 286 l 44 286 l 31 301 l 42 432 l 628 432 l 642 417 l 631 286 m 284 220 q 351 195 328 220 q 375 127 375 171 q 348 53 375 80 q 277 25 322 25 q 208 50 232 25 q 185 118 185 74 q 211 192 185 165 q 284 220 238 220 m 332 619 q 400 594 377 619 q 423 525 423 570 q 397 451 423 479 q 325 424 371 424 q 257 448 281 424 q 233 517 233 473 q 260 591 233 564 q 332 619 287 619 z "},"ø":{"ha":775,"x_min":21,"x_max":749,"o":"m 668 635 q 744 404 744 556 q 697 188 744 283 q 560 40 650 93 q 344 -14 469 -14 q 232 0 282 -14 l 125 -154 l 24 -87 l 21 -68 l 115 67 q 36 304 36 149 q 83 519 36 426 q 220 665 131 613 q 436 717 310 717 q 553 701 506 717 l 646 836 l 742 769 l 749 750 l 668 635 m 371 142 q 490 195 451 142 q 529 388 529 249 q 519 488 529 453 q 483 539 508 524 q 411 554 457 554 q 290 501 329 554 q 250 308 250 447 q 261 207 250 243 q 298 156 272 171 q 371 142 324 142 z "},"ù":{"ha":768,"x_min":61,"x_max":743,"o":"m 678 236 q 577 51 663 115 q 342 -12 492 -12 q 135 40 208 -12 q 61 189 61 92 q 65 236 61 214 l 81 349 l 119 706 l 324 706 l 260 265 q 258 238 258 256 q 361 150 258 150 q 492 265 479 150 l 536 706 l 743 706 l 693 347 l 678 236 m 351 1078 q 613 861 475 968 l 563 781 l 543 779 q 258 939 436 838 l 254 960 l 332 1076 l 351 1078 z "},"ú":{"ha":768,"x_min":61,"x_max":743,"o":"m 678 236 q 577 51 663 115 q 342 -12 492 -12 q 135 40 208 -12 q 61 189 61 92 q 65 236 61 214 l 81 349 l 119 706 l 324 706 l 260 265 q 258 238 258 256 q 361 150 258 150 q 492 265 479 150 l 536 706 l 743 706 l 693 347 l 678 236 m 635 960 l 631 939 q 347 779 433 825 l 328 781 l 276 861 q 538 1078 428 979 l 558 1076 l 635 960 z "},"û":{"ha":768,"x_min":61,"x_max":743,"o":"m 678 236 q 577 51 663 115 q 342 -12 492 -12 q 135 40 208 -12 q 61 189 61 92 q 65 236 61 214 l 81 349 l 119 706 l 324 706 l 260 265 q 258 238 258 256 q 361 150 258 150 q 492 265 479 150 l 536 706 l 743 706 l 693 347 l 678 236 m 229 871 q 431 1049 293 922 l 456 1071 l 499 1071 q 682 871 569 983 l 619 789 l 599 789 q 460 911 500 869 q 292 789 407 867 l 271 789 l 229 871 z "},"ü":{"ha":768,"x_min":61,"x_max":743,"o":"m 678 236 q 577 51 663 115 q 342 -12 492 -12 q 135 40 208 -12 q 61 189 61 92 q 65 236 61 214 l 81 349 l 119 706 l 324 706 l 260 265 q 258 238 258 256 q 361 150 258 150 q 492 265 479 150 l 536 706 l 743 706 l 693 347 l 678 236 m 333 1021 q 401 995 376 1021 q 426 925 426 969 q 399 849 426 876 q 325 821 372 821 q 255 846 279 821 q 231 917 231 871 q 258 993 231 965 q 333 1021 286 1021 m 586 1019 q 655 994 631 1019 q 679 925 679 969 q 652 848 679 876 q 578 819 625 819 q 483 917 483 819 q 511 992 483 965 q 586 1019 539 1019 z "},"ý":{"ha":696,"x_min":56,"x_max":742,"o":"m 414 188 l 400 0 l 196 0 l 229 188 l 232 222 l 56 706 l 271 706 l 281 649 l 351 425 l 364 425 l 500 642 l 533 706 l 742 706 l 419 219 l 414 188 m 597 960 l 593 939 q 310 779 396 825 l 290 781 l 239 861 q 500 1078 390 979 l 521 1076 l 597 960 z "},"þ":{"ha":704,"x_min":50,"x_max":685,"o":"m 440 606 q 618 549 551 606 q 685 394 685 493 q 640 250 685 315 q 517 148 596 185 q 340 111 439 111 l 267 111 l 257 0 l 50 0 l 85 207 l 138 706 l 347 706 l 332 606 l 440 606 m 385 253 q 469 382 469 292 q 451 442 469 424 q 386 464 432 460 l 311 460 l 281 258 l 385 253 z "},"ÿ":{"ha":696,"x_min":56,"x_max":742,"o":"m 414 188 l 400 0 l 196 0 l 229 188 l 232 222 l 56 706 l 271 706 l 281 649 l 351 425 l 364 425 l 500 642 l 533 706 l 742 706 l 419 219 l 414 188 m 296 1021 q 364 995 339 1021 q 389 925 389 969 q 362 849 389 876 q 288 821 335 821 q 217 846 242 821 q 193 917 193 871 q 221 993 193 965 q 296 1021 249 1021 m 549 1019 q 617 994 593 1019 q 642 925 642 969 q 615 848 642 876 q 540 819 588 819 q 446 917 446 819 q 474 992 446 965 q 549 1019 501 1019 z "},"Ā":{"ha":833,"x_min":-32,"x_max":775,"o":"m 553 0 l 546 128 l 539 183 l 382 186 l 246 182 l 228 140 l 185 0 l -32 0 l 364 896 l 628 896 l 775 0 l 553 0 m 474 693 l 460 693 l 315 350 l 415 347 l 518 349 l 474 693 m 711 1046 l 324 1046 l 311 1060 l 321 1179 l 708 1179 l 722 1165 l 711 1046 z "},"ā":{"ha":736,"x_min":-22,"x_max":667,"o":"m 463 0 l 458 111 l 456 128 l 326 129 l 214 126 l 213 122 l 175 0 l -22 0 l 300 706 l 542 706 l 667 0 l 463 0 m 400 522 l 388 522 l 281 278 l 357 276 l 435 278 l 400 522 m 635 856 l 247 856 l 235 869 l 244 989 l 632 989 l 646 975 l 635 856 z "},"Ă":{"ha":833,"x_min":-32,"x_max":775,"o":"m 553 0 l 546 128 l 539 183 l 382 186 l 246 182 l 228 140 l 185 0 l -32 0 l 364 896 l 628 896 l 775 0 l 553 0 m 474 693 l 460 693 l 315 350 l 415 347 l 518 349 l 474 693 m 739 1156 q 510 999 668 999 q 370 1039 426 999 q 294 1156 314 1079 l 350 1222 l 381 1222 q 519 1149 414 1149 q 671 1222 621 1149 l 701 1222 l 739 1156 z "},"ă":{"ha":736,"x_min":-22,"x_max":667,"o":"m 463 0 l 458 111 l 456 128 l 326 129 l 214 126 l 213 122 l 175 0 l -22 0 l 300 706 l 542 706 l 667 0 l 463 0 m 400 522 l 388 522 l 281 278 l 357 276 l 435 278 l 400 522 m 661 975 q 572 846 632 896 q 425 796 511 796 q 280 847 331 796 q 218 975 229 897 l 272 1046 l 303 1046 q 351 972 315 997 q 436 946 386 946 q 593 1046 544 946 l 624 1046 l 661 975 z "},"Ą":{"ha":833,"x_min":-31,"x_max":776,"o":"m 753 -207 q 607 -274 672 -274 q 522 -241 553 -274 q 490 -151 490 -208 q 503 -85 490 -119 q 553 0 517 -51 l 546 128 l 539 183 l 382 186 l 246 182 l 228 140 l 186 0 l -31 0 l 365 896 l 629 896 l 776 0 l 669 0 q 610 -118 610 -76 q 649 -157 610 -157 q 738 -119 686 -157 l 749 -119 l 753 -207 m 475 693 l 461 693 l 317 350 l 415 347 l 518 349 l 475 693 z "},"ą":{"ha":736,"x_min":-21,"x_max":668,"o":"m 644 -207 q 497 -274 563 -274 q 413 -243 444 -274 q 381 -162 381 -212 q 397 -89 381 -125 q 458 0 414 -53 l 464 0 l 460 111 l 457 128 l 326 129 l 214 126 l 213 122 l 176 0 l -21 0 l 301 706 l 543 706 l 668 0 l 575 0 q 500 -119 500 -79 q 540 -157 500 -157 q 628 -119 579 -157 l 640 -119 l 644 -207 m 401 522 l 389 522 l 281 278 l 357 276 l 436 278 l 401 522 z "},"Ć":{"ha":710,"x_min":44,"x_max":764,"o":"m 533 908 q 764 861 663 908 l 704 681 l 686 672 q 511 728 611 728 q 337 646 393 728 q 281 397 281 564 q 453 171 281 171 q 649 219 554 171 l 665 208 l 625 26 q 424 -14 525 -14 q 142 84 240 -14 q 44 361 44 182 q 101 655 44 532 q 269 843 158 778 q 533 908 379 908 m 696 1117 l 689 1097 q 379 993 568 1053 l 358 999 l 325 1088 q 621 1250 497 1176 l 640 1244 l 696 1117 z "},"ć":{"ha":621,"x_min":38,"x_max":644,"o":"m 453 715 q 644 685 564 715 l 589 514 l 572 506 q 424 550 511 550 q 256 329 256 550 q 288 200 256 243 q 392 157 321 157 q 547 193 471 157 l 564 183 l 528 13 q 375 -12 447 -12 q 38 301 38 -12 q 146 605 38 494 q 453 715 254 715 m 614 960 l 610 939 q 326 779 413 825 l 307 781 l 256 861 q 517 1078 407 979 l 538 1076 l 614 960 z "},"Ĉ":{"ha":710,"x_min":44,"x_max":764,"o":"m 533 908 q 764 861 663 908 l 704 681 l 686 672 q 511 728 611 728 q 337 646 393 728 q 281 397 281 564 q 453 171 281 171 q 649 219 554 171 l 665 208 l 625 26 q 424 -14 525 -14 q 142 84 240 -14 q 44 361 44 182 q 101 655 44 532 q 269 843 158 778 q 533 908 379 908 m 286 1092 q 492 1243 400 1167 l 533 1243 q 718 1092 607 1174 l 669 1007 l 649 1007 l 506 1093 l 414 1046 q 336 1007 361 1021 l 315 1007 l 286 1092 z "},"ĉ":{"ha":621,"x_min":38,"x_max":661,"o":"m 453 715 q 644 685 564 715 l 589 514 l 572 506 q 424 550 511 550 q 256 329 256 550 q 288 200 256 243 q 392 157 321 157 q 547 193 471 157 l 564 183 l 528 13 q 375 -12 447 -12 q 38 301 38 -12 q 146 605 38 494 q 453 715 254 715 m 208 871 q 410 1049 272 922 l 435 1071 l 478 1071 q 661 871 549 983 l 599 789 l 578 789 q 439 911 479 869 q 271 789 386 867 l 250 789 l 208 871 z "},"Ċ":{"ha":710,"x_min":44,"x_max":764,"o":"m 533 908 q 764 861 663 908 l 704 681 l 686 672 q 511 728 611 728 q 337 646 393 728 q 281 397 281 564 q 453 171 281 171 q 649 219 554 171 l 665 208 l 625 26 q 424 -14 525 -14 q 142 84 240 -14 q 44 361 44 182 q 101 655 44 532 q 269 843 158 778 q 533 908 379 908 m 506 1231 q 583 1202 556 1231 q 611 1122 611 1174 q 581 1036 611 1068 q 497 1004 550 1004 q 418 1033 446 1004 q 390 1113 390 1061 q 422 1199 390 1167 q 506 1231 453 1231 z "},"ċ":{"ha":621,"x_min":38,"x_max":644,"o":"m 453 715 q 644 685 564 715 l 589 514 l 572 506 q 424 550 511 550 q 256 329 256 550 q 288 200 256 243 q 392 157 321 157 q 547 193 471 157 l 564 183 l 528 13 q 375 -12 447 -12 q 38 301 38 -12 q 146 605 38 494 q 453 715 254 715 m 439 1040 q 517 1012 489 1040 q 544 932 544 983 q 514 846 544 878 q 431 814 483 814 q 351 842 379 814 q 324 922 324 871 q 355 1008 324 976 q 439 1040 386 1040 z "},"Č":{"ha":710,"x_min":44,"x_max":764,"o":"m 533 908 q 764 861 663 908 l 704 681 l 686 672 q 511 728 611 728 q 337 646 393 728 q 281 397 281 564 q 453 171 281 171 q 649 219 554 171 l 665 208 l 625 26 q 424 -14 525 -14 q 142 84 240 -14 q 44 361 44 182 q 101 655 44 532 q 269 843 158 778 q 533 908 379 908 m 715 1147 q 511 996 600 1072 l 469 996 q 283 1147 399 1065 l 333 1232 l 354 1232 q 496 1146 401 1204 q 667 1232 571 1185 l 688 1232 l 715 1147 z "},"č":{"ha":621,"x_min":38,"x_max":661,"o":"m 453 715 q 644 685 564 715 l 589 514 l 572 506 q 424 550 511 550 q 256 329 256 550 q 288 200 256 243 q 392 157 321 157 q 547 193 471 157 l 564 183 l 528 13 q 375 -12 447 -12 q 38 301 38 -12 q 146 605 38 494 q 453 715 254 715 m 661 986 q 465 813 599 936 l 436 786 l 393 786 q 208 986 329 865 l 271 1067 l 292 1067 q 428 946 383 992 q 561 1042 475 985 l 597 1067 l 619 1067 l 661 986 z "},"Ď":{"ha":904,"x_min":58,"x_max":893,"o":"m 529 901 q 797 810 701 901 q 893 550 893 718 q 762 138 893 286 q 386 -11 631 -11 q 60 0 249 -11 l 58 0 l 103 265 l 169 896 l 529 901 m 436 157 q 660 517 660 157 q 621 677 660 626 q 501 728 582 728 q 368 721 444 728 l 304 286 l 294 168 q 436 157 372 157 m 719 1147 q 515 996 604 1072 l 474 996 q 288 1147 403 1065 l 338 1232 l 358 1232 q 500 1146 406 1204 q 671 1232 575 1185 l 692 1232 l 719 1147 z "},"ď":{"ha":788,"x_min":50,"x_max":757,"o":"m 449 710 q 676 637 594 710 q 757 431 757 564 q 647 106 757 222 q 332 -10 538 -10 q 50 0 199 -10 l 85 207 l 138 706 l 449 710 m 376 144 q 499 203 457 144 q 542 397 542 263 q 513 513 542 478 q 421 549 483 549 q 321 544 375 549 l 274 228 l 267 154 q 376 144 332 144 m 674 986 q 478 813 611 936 l 449 786 l 406 786 q 221 986 342 865 l 283 1067 l 304 1067 q 440 946 396 992 q 574 1042 488 985 l 610 1067 l 632 1067 l 674 986 z "},"Đ":{"ha":904,"x_min":58,"x_max":893,"o":"m 529 901 q 797 810 701 901 q 893 550 893 718 q 762 138 893 286 q 386 -11 631 -11 q 60 0 249 -11 l 58 0 l 103 265 l 169 896 l 529 901 m 436 157 q 660 517 660 157 q 621 677 660 626 q 501 728 582 728 q 368 721 444 728 l 304 286 l 294 168 q 436 157 372 157 m 699 1046 l 311 1046 l 299 1060 l 308 1179 l 696 1179 l 710 1165 l 699 1046 z "},"đ":{"ha":788,"x_min":50,"x_max":757,"o":"m 449 710 q 676 637 594 710 q 757 431 757 564 q 647 106 757 222 q 332 -10 538 -10 q 50 0 199 -10 l 85 207 l 138 706 l 449 710 m 376 144 q 499 203 457 144 q 542 397 542 263 q 513 513 542 478 q 421 549 483 549 q 321 544 375 549 l 274 228 l 267 154 q 376 144 332 144 m 642 856 l 254 856 l 242 869 l 251 989 l 639 989 l 653 975 l 642 856 z "},"Ē":{"ha":714,"x_min":58,"x_max":767,"o":"m 342 539 l 486 538 l 629 542 l 640 526 l 606 364 l 450 368 l 317 367 l 306 286 l 294 172 l 440 171 l 661 179 l 671 163 l 638 0 l 58 0 l 101 265 l 169 896 l 756 896 l 767 879 l 731 717 l 519 724 l 368 722 l 342 539 m 676 1046 l 289 1046 l 276 1060 l 286 1179 l 674 1179 l 688 1165 l 676 1046 z "},"ē":{"ha":639,"x_min":50,"x_max":656,"o":"m 306 435 l 424 433 l 543 438 l 553 424 l 522 272 l 390 276 l 282 275 l 275 228 l 268 158 l 383 158 l 572 164 l 583 150 l 551 0 l 50 0 l 86 207 l 138 706 l 646 706 l 656 690 l 624 540 l 446 547 l 321 547 l 306 435 m 597 856 l 210 856 l 197 869 l 207 989 l 594 989 l 608 975 l 597 856 z "},"Ĕ":{"ha":714,"x_min":58,"x_max":767,"o":"m 342 539 l 486 538 l 629 542 l 640 526 l 606 364 l 450 368 l 317 367 l 306 286 l 294 172 l 440 171 l 661 179 l 671 163 l 638 0 l 58 0 l 101 265 l 169 896 l 756 896 l 767 879 l 731 717 l 519 724 l 368 722 l 342 539 m 703 1156 q 474 999 632 999 q 334 1039 390 999 q 258 1156 278 1079 l 314 1222 l 344 1222 q 483 1149 378 1149 q 635 1222 585 1149 l 665 1222 l 703 1156 z "},"ĕ":{"ha":639,"x_min":50,"x_max":656,"o":"m 306 435 l 424 433 l 543 438 l 553 424 l 522 272 l 390 276 l 282 275 l 275 228 l 268 158 l 383 158 l 572 164 l 583 150 l 551 0 l 50 0 l 86 207 l 138 706 l 646 706 l 656 690 l 624 540 l 446 547 l 321 547 l 306 435 m 622 975 q 533 846 593 896 q 386 796 472 796 q 241 847 292 796 q 179 975 190 897 l 233 1046 l 264 1046 q 312 972 276 997 q 397 946 347 946 q 554 1046 506 946 l 585 1046 l 622 975 z "},"Ė":{"ha":714,"x_min":58,"x_max":767,"o":"m 342 539 l 486 538 l 629 542 l 640 526 l 606 364 l 450 368 l 317 367 l 306 286 l 294 172 l 440 171 l 661 179 l 671 163 l 638 0 l 58 0 l 101 265 l 169 896 l 756 896 l 767 879 l 731 717 l 519 724 l 368 722 l 342 539 m 486 1231 q 564 1202 536 1231 q 592 1122 592 1174 q 561 1036 592 1068 q 478 1004 531 1004 q 399 1033 426 1004 q 371 1113 371 1061 q 402 1199 371 1167 q 486 1231 433 1231 z "},"ė":{"ha":639,"x_min":50,"x_max":656,"o":"m 306 435 l 424 433 l 543 438 l 553 424 l 522 272 l 390 276 l 282 275 l 275 228 l 268 158 l 383 158 l 572 164 l 583 150 l 551 0 l 50 0 l 86 207 l 138 706 l 646 706 l 656 690 l 624 540 l 446 547 l 321 547 l 306 435 m 407 1040 q 485 1012 457 1040 q 513 932 513 983 q 482 846 513 878 q 399 814 451 814 q 319 842 347 814 q 292 922 292 871 q 323 1008 292 976 q 407 1040 354 1040 z "},"Ę":{"ha":714,"x_min":58,"x_max":767,"o":"m 342 539 l 486 538 l 629 542 l 639 526 l 606 364 l 450 368 l 317 367 l 306 286 l 294 172 l 442 171 l 661 179 l 671 163 l 638 0 l 543 0 l 513 -46 q 490 -108 490 -82 q 542 -158 490 -158 q 631 -122 581 -158 l 642 -122 l 657 -207 q 510 -274 581 -274 q 414 -237 450 -274 q 378 -147 378 -201 q 419 -29 378 -86 l 440 0 l 58 0 l 103 265 l 169 896 l 757 896 l 767 879 l 732 717 l 519 724 l 368 722 l 342 539 z "},"ę":{"ha":639,"x_min":50,"x_max":656,"o":"m 304 435 l 424 433 l 543 438 l 553 424 l 522 272 l 390 276 l 281 275 l 274 228 l 268 158 l 385 158 l 574 164 l 583 150 l 551 0 l 438 0 l 407 -46 q 385 -108 385 -82 q 436 -158 385 -158 q 525 -122 475 -158 l 536 -122 l 551 -207 q 404 -274 475 -274 q 308 -237 344 -274 q 272 -147 272 -201 q 314 -29 272 -86 l 335 0 l 50 0 l 85 207 l 138 706 l 646 706 l 656 690 l 624 540 l 444 547 l 321 547 l 304 435 z "},"Ě":{"ha":714,"x_min":58,"x_max":767,"o":"m 342 539 l 486 538 l 629 542 l 640 526 l 606 364 l 450 368 l 317 367 l 306 286 l 294 172 l 440 171 l 661 179 l 671 163 l 638 0 l 58 0 l 101 265 l 169 896 l 756 896 l 767 879 l 731 717 l 519 724 l 368 722 l 342 539 m 696 1147 q 492 996 581 1072 l 450 996 q 264 1147 379 1065 l 314 1232 l 335 1232 q 476 1146 382 1204 q 647 1232 551 1185 l 668 1232 l 696 1147 z "},"ě":{"ha":639,"x_min":50,"x_max":656,"o":"m 306 435 l 424 433 l 543 438 l 553 424 l 522 272 l 390 276 l 282 275 l 275 228 l 268 158 l 383 158 l 572 164 l 583 150 l 551 0 l 50 0 l 86 207 l 138 706 l 646 706 l 656 690 l 624 540 l 446 547 l 321 547 l 306 435 m 629 986 q 433 813 567 936 l 404 786 l 361 786 q 176 986 297 865 l 239 1067 l 260 1067 q 396 946 351 992 q 529 1042 443 985 l 565 1067 l 588 1067 l 629 986 z "},"Ĝ":{"ha":819,"x_min":43,"x_max":833,"o":"m 569 908 q 833 860 721 908 l 761 661 l 742 661 q 629 715 678 699 q 521 731 581 731 q 335 647 396 731 q 274 358 274 564 q 316 202 274 249 q 454 156 358 156 q 544 171 486 156 l 554 236 l 568 379 l 772 393 l 754 272 l 726 44 q 428 -14 569 -14 q 142 82 240 -14 q 43 353 43 178 q 179 764 43 619 q 569 908 315 908 m 321 1092 q 526 1243 435 1167 l 568 1243 q 753 1092 642 1174 l 704 1007 l 683 1007 l 540 1093 l 449 1046 q 371 1007 396 1021 l 350 1007 l 321 1092 z "},"ĝ":{"ha":713,"x_min":36,"x_max":704,"o":"m 482 715 q 704 682 597 715 l 633 499 l 617 499 q 522 540 563 528 q 433 553 482 553 q 296 497 342 553 q 250 301 250 442 q 261 210 250 243 q 302 160 272 176 q 389 144 332 144 q 454 154 421 144 l 460 190 l 471 307 l 658 319 l 644 224 l 621 35 q 367 -12 478 -12 q 121 69 206 -12 q 36 310 36 150 q 152 608 36 500 q 482 715 268 715 m 213 871 q 414 1049 276 922 l 439 1071 l 482 1071 q 665 871 553 983 l 603 789 l 582 789 q 443 911 483 869 q 275 789 390 867 l 254 789 l 213 871 z "},"Ğ":{"ha":819,"x_min":43,"x_max":833,"o":"m 569 908 q 833 860 721 908 l 761 661 l 742 661 q 629 715 678 699 q 521 731 581 731 q 335 647 396 731 q 274 358 274 564 q 316 202 274 249 q 454 156 358 156 q 544 171 486 156 l 554 236 l 568 379 l 772 393 l 754 272 l 726 44 q 428 -14 569 -14 q 142 82 240 -14 q 43 353 43 178 q 179 764 43 619 q 569 908 315 908 m 758 1156 q 529 999 688 999 q 390 1039 446 999 q 314 1156 333 1079 l 369 1222 l 400 1222 q 539 1149 433 1149 q 690 1222 640 1149 l 721 1222 l 758 1156 z "},"ğ":{"ha":713,"x_min":36,"x_max":704,"o":"m 482 715 q 704 682 597 715 l 633 499 l 617 499 q 522 540 563 528 q 433 553 482 553 q 296 497 342 553 q 250 301 250 442 q 261 210 250 243 q 302 160 272 176 q 389 144 332 144 q 454 154 421 144 l 460 190 l 471 307 l 658 319 l 644 224 l 621 35 q 367 -12 478 -12 q 121 69 206 -12 q 36 310 36 150 q 152 608 36 500 q 482 715 268 715 m 658 975 q 569 846 629 896 q 422 796 508 796 q 277 847 328 796 q 215 975 226 897 l 269 1046 l 300 1046 q 348 972 313 997 q 433 946 383 946 q 590 1046 542 946 l 621 1046 l 658 975 z "},"Ġ":{"ha":819,"x_min":43,"x_max":833,"o":"m 569 908 q 833 860 721 908 l 761 661 l 742 661 q 629 715 678 699 q 521 731 581 731 q 335 647 396 731 q 274 358 274 564 q 316 202 274 249 q 454 156 358 156 q 544 171 486 156 l 554 236 l 568 379 l 772 393 l 754 272 l 726 44 q 428 -14 569 -14 q 142 82 240 -14 q 43 353 43 178 q 179 764 43 619 q 569 908 315 908 m 542 1231 q 619 1202 592 1231 q 647 1122 647 1174 q 617 1036 647 1068 q 533 1004 586 1004 q 454 1033 482 1004 q 426 1113 426 1061 q 458 1199 426 1167 q 542 1231 489 1231 z "},"ġ":{"ha":713,"x_min":36,"x_max":704,"o":"m 482 715 q 704 682 597 715 l 633 499 l 617 499 q 522 540 563 528 q 433 553 482 553 q 296 497 342 553 q 250 301 250 442 q 261 210 250 243 q 302 160 272 176 q 389 144 332 144 q 454 154 421 144 l 460 190 l 471 307 l 658 319 l 644 224 l 621 35 q 367 -12 478 -12 q 121 69 206 -12 q 36 310 36 150 q 152 608 36 500 q 482 715 268 715 m 443 1040 q 521 1012 493 1040 q 549 932 549 983 q 518 846 549 878 q 435 814 488 814 q 356 842 383 814 q 328 922 328 871 q 359 1008 328 976 q 443 1040 390 1040 z "},"Ģ":{"ha":819,"x_min":43,"x_max":833,"o":"m 569 908 q 833 860 721 908 l 761 661 l 742 661 q 629 715 678 699 q 521 731 581 731 q 335 647 396 731 q 274 358 274 564 q 316 202 274 249 q 454 156 358 156 q 544 171 486 156 l 554 236 l 568 379 l 772 393 l 754 272 l 726 44 q 428 -14 569 -14 q 142 82 240 -14 q 43 353 43 178 q 179 764 43 619 q 569 908 315 908 m 468 -57 q 524 -169 524 -106 q 363 -400 524 -287 l 303 -347 l 301 -333 q 369 -210 369 -278 q 331 -129 369 -167 l 331 -114 q 468 -57 399 -74 z "},"ģ":{"ha":713,"x_min":36,"x_max":704,"o":"m 482 715 q 704 682 597 715 l 633 499 l 617 499 q 522 540 563 528 q 433 553 482 553 q 296 497 342 553 q 250 301 250 442 q 261 210 250 243 q 302 160 272 176 q 389 144 332 144 q 454 154 421 144 l 460 190 l 471 307 l 658 319 l 644 224 l 621 35 q 367 -12 478 -12 q 121 69 206 -12 q 36 310 36 150 q 152 608 36 500 q 482 715 268 715 m 410 -57 q 465 -169 465 -106 q 304 -400 465 -287 l 244 -347 l 243 -333 q 311 -210 311 -278 q 272 -129 311 -167 l 272 -114 q 410 -57 340 -74 z "},"Ĥ":{"ha":961,"x_min":58,"x_max":933,"o":"m 844 286 l 818 0 l 597 0 l 643 265 l 653 357 l 474 360 l 314 356 l 304 286 l 279 0 l 58 0 l 103 265 l 169 896 l 393 896 l 340 539 l 508 535 l 671 538 l 708 896 l 933 896 l 844 286 m 363 1092 q 568 1243 476 1167 l 610 1243 q 794 1092 683 1174 l 746 1007 l 725 1007 l 582 1093 l 490 1046 q 413 1007 438 1021 l 392 1007 l 363 1092 z "},"ĥ":{"ha":836,"x_min":51,"x_max":794,"o":"m 724 228 l 704 0 l 500 0 l 535 207 l 540 267 l 404 268 l 281 265 l 275 228 l 256 0 l 51 0 l 86 207 l 139 706 l 346 706 l 306 435 l 436 432 l 558 435 l 586 706 l 794 706 l 724 228 m 263 871 q 464 1049 326 922 l 489 1071 l 532 1071 q 715 871 603 983 l 653 789 l 632 789 q 493 911 533 869 q 325 789 440 867 l 304 789 l 263 871 z "},"Ħ":{"ha":1004,"x_min":76,"x_max":1025,"o":"m 919 658 l 867 286 l 839 0 l 619 0 l 664 265 l 674 357 l 494 360 l 336 356 l 326 286 l 300 0 l 79 0 l 124 265 l 165 658 l 85 658 l 76 669 l 83 778 l 178 778 l 190 896 l 414 896 l 397 778 l 717 778 l 729 896 l 954 896 l 938 778 l 1015 778 l 1025 765 l 1018 658 l 919 658 m 379 658 l 363 539 l 529 535 l 692 538 l 704 658 l 379 658 z "},"ħ":{"ha":836,"x_min":35,"x_max":857,"o":"m 765 507 l 724 228 l 704 0 l 500 0 l 535 207 l 542 267 l 404 268 l 281 265 l 275 228 l 256 0 l 51 0 l 86 207 l 118 507 l 42 507 l 35 518 l 54 615 l 129 615 l 139 706 l 346 706 l 332 615 l 578 615 l 588 706 l 794 706 l 781 615 l 849 615 l 857 606 l 838 507 l 765 507 m 317 507 l 306 435 l 436 432 l 558 435 l 567 507 l 317 507 z "},"Ĩ":{"ha":422,"x_min":58,"x_max":529,"o":"m 279 0 l 58 0 l 103 265 l 169 896 l 393 896 l 304 286 l 279 0 m 529 1157 l 438 1022 l 419 1015 q 319 1043 383 1022 q 243 1063 253 1063 q 209 1047 224 1063 q 165 989 194 1031 l 147 989 l 85 1051 l 85 1069 l 176 1203 l 194 1211 q 292 1185 214 1208 q 369 1164 354 1164 q 401 1178 388 1164 q 429 1210 415 1192 q 449 1238 443 1229 l 467 1238 l 529 1175 l 529 1157 z "},"ĩ":{"ha":399,"x_min":42,"x_max":486,"o":"m 256 0 l 51 0 l 86 207 l 139 706 l 346 706 l 275 228 l 256 0 m 486 967 l 394 832 l 376 825 q 276 853 340 832 q 200 872 210 872 q 166 856 181 872 q 122 799 151 840 l 104 799 l 42 861 l 42 879 l 133 1013 l 151 1021 q 249 994 171 1018 q 326 974 311 974 q 358 988 344 974 q 386 1020 372 1001 q 406 1047 400 1039 l 424 1047 l 486 985 l 486 967 z "},"Ī":{"ha":422,"x_min":58,"x_max":476,"o":"m 279 0 l 58 0 l 103 265 l 169 896 l 393 896 l 304 286 l 279 0 m 467 1046 l 147 1046 l 133 1060 l 144 1179 l 463 1179 l 476 1165 l 467 1046 z "},"ī":{"ha":399,"x_min":51,"x_max":433,"o":"m 256 0 l 51 0 l 86 207 l 139 706 l 346 706 l 275 228 l 256 0 m 424 856 l 104 856 l 90 869 l 101 989 l 419 989 l 433 975 l 424 856 z "},"Ĭ":{"ha":422,"x_min":58,"x_max":528,"o":"m 279 0 l 58 0 l 103 265 l 169 896 l 393 896 l 304 286 l 279 0 m 528 1156 q 299 999 457 999 q 159 1039 215 999 q 83 1156 103 1079 l 139 1222 l 169 1222 q 308 1149 203 1149 q 460 1222 410 1149 l 490 1222 l 528 1156 z "},"ĭ":{"ha":399,"x_min":40,"x_max":483,"o":"m 256 0 l 51 0 l 86 207 l 139 706 l 346 706 l 275 228 l 256 0 m 483 975 q 394 846 454 896 q 247 796 333 796 q 102 847 153 796 q 40 975 51 897 l 94 1046 l 125 1046 q 173 972 138 997 q 258 946 208 946 q 415 1046 367 946 l 446 1046 l 483 975 z "},"Į":{"ha":424,"x_min":-7,"x_max":393,"o":"m 306 286 l 279 0 l 165 0 q 106 -117 106 -75 q 151 -158 106 -158 q 238 -121 196 -158 l 249 -121 l 267 -207 q 121 -274 190 -274 q 28 -239 64 -274 q -7 -149 -7 -204 q 8 -82 -7 -115 q 58 3 22 -49 l 103 265 l 169 896 l 393 896 l 306 286 z "},"į":{"ha":399,"x_min":-12,"x_max":346,"o":"m 160 0 q 100 -117 100 -75 q 146 -158 100 -158 q 232 -121 190 -158 l 243 -121 l 261 -207 q 115 -274 183 -274 q 22 -239 57 -274 q -12 -149 -12 -204 q 1 -83 -12 -117 q 51 0 15 -50 l 86 207 l 139 706 l 346 706 l 275 228 l 256 0 l 160 0 z "},"İ":{"ha":422,"x_min":58,"x_max":417,"o":"m 279 0 l 58 0 l 103 265 l 169 896 l 393 896 l 304 286 l 279 0 m 311 1231 q 389 1202 361 1231 q 417 1122 417 1174 q 386 1036 417 1068 q 303 1004 356 1004 q 224 1033 251 1004 q 196 1113 196 1061 q 227 1199 196 1167 q 311 1231 258 1231 z "},"ı":{"ha":399,"x_min":51,"x_max":346,"o":"m 256 0 l 51 0 l 86 207 l 139 706 l 346 706 l 275 228 l 256 0 z "},"Ĳ":{"ha":897,"x_min":58,"x_max":863,"o":"m 279 0 l 58 0 l 103 265 l 169 896 l 393 896 l 304 286 l 279 0 m 775 296 l 764 169 q 719 31 753 88 q 618 -69 685 -26 q 440 -150 551 -112 l 392 -35 l 393 -17 q 515 67 478 25 q 560 175 551 108 l 572 274 l 622 736 l 490 733 l 478 749 l 506 896 l 863 896 l 775 296 z "},"ĳ":{"ha":851,"x_min":51,"x_max":785,"o":"m 256 0 l 51 0 l 86 207 l 139 706 l 346 706 l 275 228 l 256 0 m 718 232 l 708 135 q 672 22 700 68 q 588 -59 643 -24 q 436 -128 532 -94 l 389 -21 l 390 -4 q 484 55 456 24 q 518 138 513 86 l 528 211 l 564 556 l 447 553 l 438 565 l 467 706 l 785 706 l 718 232 z "},"Ĵ":{"ha":475,"x_min":-31,"x_max":519,"o":"m 353 296 l 342 169 q 297 31 331 88 q 196 -69 263 -26 q 18 -150 129 -112 l -31 -35 l -29 -17 q 92 67 56 25 q 138 175 129 108 l 150 274 l 200 736 l 68 733 l 56 749 l 83 896 l 440 896 l 353 296 m 88 1092 q 293 1243 201 1167 l 335 1243 q 519 1092 408 1174 l 471 1007 l 450 1007 l 307 1093 l 215 1046 q 138 1007 163 1021 l 117 1007 l 88 1092 z "},"ĵ":{"ha":453,"x_min":-10,"x_max":482,"o":"m 319 232 l 310 135 q 273 22 301 68 q 189 -59 244 -24 q 38 -128 133 -94 l -10 -21 l -8 -4 q 85 55 57 24 q 119 138 114 86 l 129 211 l 165 556 l 49 553 l 39 565 l 68 706 l 386 706 l 319 232 m 29 871 q 231 1049 93 922 l 256 1071 l 299 1071 q 482 871 369 983 l 419 789 l 399 789 q 260 911 300 869 q 92 789 207 867 l 71 789 l 29 871 z "},"Ķ":{"ha":824,"x_min":57,"x_max":885,"o":"m 542 463 q 806 46 647 271 l 799 22 q 576 -15 685 -6 l 554 -1 q 326 443 417 250 l 304 286 l 278 0 l 57 0 l 103 265 l 169 896 l 393 896 l 335 493 l 588 806 l 649 896 l 885 896 l 542 463 m 443 -57 q 499 -169 499 -106 q 338 -400 499 -287 l 278 -347 l 276 -333 q 344 -210 344 -278 q 306 -129 344 -167 l 306 -114 q 443 -57 374 -74 z "},"ķ":{"ha":732,"x_min":50,"x_max":761,"o":"m 486 369 q 700 43 571 221 l 693 19 q 488 -14 592 -3 l 464 -1 q 290 338 357 199 l 275 228 l 254 0 l 50 0 l 85 207 l 138 706 l 344 706 l 300 400 l 492 631 l 542 706 l 761 706 l 486 369 m 376 -57 q 432 -169 432 -106 q 271 -400 432 -287 l 211 -347 l 210 -333 q 278 -210 278 -278 q 239 -129 278 -167 l 239 -114 q 376 -57 307 -74 z "},"ĸ":{"ha":732,"x_min":50,"x_max":761,"o":"m 486 369 q 700 43 571 221 l 693 19 q 488 -14 592 -3 l 464 -1 q 290 338 357 199 l 275 228 l 254 0 l 50 0 l 85 207 l 138 706 l 344 706 l 300 400 l 492 631 l 542 706 l 761 706 l 486 369 z "},"Ĺ":{"ha":603,"x_min":53,"x_max":582,"o":"m 547 0 l 53 0 l 97 265 l 164 896 l 388 896 l 300 286 l 290 182 l 572 182 l 582 165 l 547 0 m 492 1117 l 485 1097 q 175 993 364 1053 l 154 999 l 121 1088 q 417 1250 293 1176 l 436 1244 l 492 1117 z "},"ĺ":{"ha":542,"x_min":44,"x_max":503,"o":"m 471 0 l 44 0 l 81 207 l 132 706 l 339 706 l 269 228 l 264 167 l 493 167 l 503 153 l 471 0 m 440 960 l 436 939 q 153 779 239 825 l 133 781 l 82 861 q 343 1078 233 979 l 364 1076 l 440 960 z "},"Ļ":{"ha":603,"x_min":53,"x_max":582,"o":"m 547 0 l 53 0 l 97 265 l 164 896 l 388 896 l 300 286 l 290 182 l 572 182 l 582 165 l 547 0 m 314 -57 q 369 -169 369 -106 q 208 -400 369 -287 l 149 -347 l 147 -333 q 215 -210 215 -278 q 176 -129 215 -167 l 176 -114 q 314 -57 244 -74 z "},"ļ":{"ha":542,"x_min":44,"x_max":503,"o":"m 471 0 l 44 0 l 81 207 l 132 706 l 339 706 l 269 228 l 264 167 l 493 167 l 503 153 l 471 0 m 288 -57 q 343 -169 343 -106 q 182 -400 343 -287 l 122 -347 l 121 -333 q 189 -210 189 -278 q 150 -129 189 -167 l 150 -114 q 288 -57 218 -74 z "},"Ľ":{"ha":635,"x_min":53,"x_max":689,"o":"m 582 165 l 547 0 l 53 0 l 97 265 l 164 896 l 388 896 l 300 286 l 290 182 l 572 182 l 582 165 m 603 519 l 507 504 l 494 517 l 525 817 l 679 825 l 689 813 l 603 519 z "},"ľ":{"ha":586,"x_min":44,"x_max":625,"o":"m 503 153 l 469 0 l 44 0 l 81 207 l 132 706 l 339 706 l 268 228 l 263 167 l 492 167 l 503 153 m 539 378 l 443 363 l 431 375 l 461 675 l 615 685 l 625 671 l 539 378 z "},"Ŀ":{"ha":649,"x_min":61,"x_max":656,"o":"m 556 0 l 61 0 l 106 265 l 172 896 l 396 896 l 308 286 l 299 182 l 581 182 l 590 165 l 556 0 m 550 660 q 628 631 601 660 q 656 551 656 603 q 625 465 656 497 q 542 433 594 433 q 463 462 490 433 q 435 542 435 490 q 466 628 435 596 q 550 660 497 660 z "},"ŀ":{"ha":597,"x_min":44,"x_max":594,"o":"m 503 153 l 469 0 l 44 0 l 81 207 l 132 706 l 339 706 l 268 228 l 263 167 l 492 167 l 503 153 m 489 557 q 567 528 540 557 q 594 449 594 500 q 564 363 594 394 q 481 331 533 331 q 401 359 429 331 q 374 439 374 388 q 405 525 374 493 q 489 557 436 557 z "},"Ł":{"ha":614,"x_min":-7,"x_max":592,"o":"m 558 0 l 64 0 l 108 265 l 114 319 l 33 281 l 17 292 l -7 419 l 132 486 l 174 896 l 397 896 l 354 596 l 483 658 l 501 649 l 526 522 l 331 426 l 311 286 l 301 182 l 582 182 l 592 165 l 558 0 z "},"ł":{"ha":550,"x_min":1,"x_max":506,"o":"m 474 0 l 47 0 l 83 207 l 88 251 l 19 224 l 6 235 l 1 346 l 101 385 l 135 706 l 342 706 l 307 465 l 450 522 l 464 513 l 467 401 l 288 331 l 272 228 l 267 167 l 496 167 l 506 153 l 474 0 z "},"Ń":{"ha":960,"x_min":58,"x_max":935,"o":"m 819 0 l 581 0 l 336 561 l 322 561 l 290 314 l 260 0 l 58 0 l 103 264 l 169 896 l 407 896 l 653 335 l 667 335 l 729 888 l 935 900 l 844 282 l 819 0 m 772 1117 l 765 1097 q 456 993 644 1053 l 435 999 l 401 1088 q 697 1250 574 1176 l 717 1244 l 772 1117 z "},"ń":{"ha":838,"x_min":50,"x_max":794,"o":"m 703 0 l 485 0 l 288 401 l 278 401 l 258 251 l 233 0 l 50 0 l 86 207 l 138 706 l 356 706 l 553 304 l 565 304 l 607 697 l 794 710 l 724 226 l 703 0 m 668 960 l 664 939 q 381 779 467 825 l 361 781 l 310 861 q 571 1078 461 979 l 592 1076 l 668 960 z "},"Ņ":{"ha":960,"x_min":58,"x_max":935,"o":"m 819 0 l 581 0 l 336 561 l 322 561 l 290 314 l 260 0 l 58 0 l 103 264 l 169 896 l 407 896 l 653 335 l 667 335 l 729 888 l 935 900 l 844 282 l 819 0 m 467 -57 q 522 -169 522 -106 q 361 -400 522 -287 l 301 -347 l 300 -333 q 368 -210 368 -278 q 329 -129 368 -167 l 329 -114 q 467 -57 397 -74 z "},"ņ":{"ha":838,"x_min":50,"x_max":794,"o":"m 703 0 l 485 0 l 288 401 l 278 401 l 258 251 l 233 0 l 50 0 l 86 207 l 138 706 l 356 706 l 553 304 l 565 304 l 607 697 l 794 710 l 724 226 l 703 0 m 400 -57 q 456 -169 456 -106 q 294 -400 456 -287 l 235 -347 l 233 -333 q 301 -210 301 -278 q 263 -129 301 -167 l 263 -114 q 400 -57 331 -74 z "},"Ň":{"ha":960,"x_min":58,"x_max":935,"o":"m 819 0 l 581 0 l 336 561 l 322 561 l 290 314 l 260 0 l 58 0 l 103 264 l 169 896 l 407 896 l 653 335 l 667 335 l 729 888 l 935 900 l 844 282 l 819 0 m 793 1147 q 589 996 678 1072 l 547 996 q 361 1147 476 1065 l 411 1232 l 432 1232 q 574 1146 479 1204 q 744 1232 649 1185 l 765 1232 l 793 1147 z "},"ň":{"ha":838,"x_min":50,"x_max":794,"o":"m 703 0 l 485 0 l 288 401 l 278 401 l 258 251 l 233 0 l 50 0 l 86 207 l 138 706 l 356 706 l 553 304 l 565 304 l 607 697 l 794 710 l 724 226 l 703 0 m 714 986 q 518 813 651 936 l 489 786 l 446 786 q 261 986 382 865 l 324 1067 l 344 1067 q 481 946 436 992 q 614 1042 528 985 l 650 1067 l 672 1067 l 714 986 z "},"Ŋ":{"ha":968,"x_min":58,"x_max":935,"o":"m 828 76 q 784 -62 818 -6 q 683 -162 750 -119 q 504 -243 617 -206 l 456 -128 l 457 -108 q 599 0 563 -57 l 336 561 l 321 561 l 290 314 l 260 0 l 58 0 l 104 264 l 171 896 l 408 896 l 657 353 l 671 353 l 731 888 l 935 900 l 846 282 l 828 76 z "},"ŋ":{"ha":836,"x_min":53,"x_max":793,"o":"m 707 58 q 642 -92 694 -36 q 465 -193 589 -147 l 411 -108 l 413 -92 q 500 -8 482 -51 l 292 397 l 278 397 l 261 253 l 238 0 l 53 0 l 88 207 l 140 706 l 361 706 l 551 332 l 564 332 l 604 697 l 793 710 l 721 228 l 707 58 z "},"Ō":{"ha":892,"x_min":44,"x_max":879,"o":"m 518 910 q 785 813 690 910 q 879 528 879 717 q 824 244 879 367 q 661 53 768 121 q 404 -15 554 -15 q 139 83 233 -15 q 44 372 44 182 q 99 655 44 533 q 261 843 154 776 q 518 910 368 910 m 493 732 q 329 651 385 732 q 274 374 274 569 q 308 202 274 253 q 426 151 342 151 q 590 233 535 151 q 646 513 646 315 q 612 682 646 632 q 493 732 578 732 m 738 1046 l 350 1046 l 338 1060 l 347 1179 l 735 1179 l 749 1165 l 738 1046 z "},"ō":{"ha":775,"x_min":36,"x_max":744,"o":"m 436 717 q 665 639 585 717 q 744 404 744 561 q 697 188 744 283 q 560 40 650 93 q 346 -14 469 -14 q 117 65 197 -14 q 36 304 36 144 q 83 519 36 425 q 221 665 131 613 q 436 717 311 717 m 411 554 q 290 501 329 554 q 250 308 250 447 q 261 207 250 243 q 298 156 272 171 q 371 142 324 142 q 491 196 451 142 q 531 388 531 250 q 519 488 531 451 q 483 539 508 524 q 411 554 458 554 m 650 856 l 263 856 l 250 869 l 260 989 l 647 989 l 661 975 l 650 856 z "},"Ŏ":{"ha":892,"x_min":44,"x_max":879,"o":"m 518 910 q 785 813 690 910 q 879 528 879 717 q 824 244 879 367 q 661 53 768 121 q 404 -15 554 -15 q 139 83 233 -15 q 44 372 44 182 q 99 655 44 533 q 261 843 154 776 q 518 910 368 910 m 493 732 q 329 651 385 732 q 274 374 274 569 q 308 202 274 253 q 426 151 342 151 q 590 233 535 151 q 646 513 646 315 q 612 682 646 632 q 493 732 578 732 m 764 1156 q 535 999 693 999 q 395 1039 451 999 q 319 1156 339 1079 l 375 1222 l 406 1222 q 544 1149 439 1149 q 696 1222 646 1149 l 726 1222 l 764 1156 z "},"ŏ":{"ha":775,"x_min":36,"x_max":744,"o":"m 436 717 q 665 639 585 717 q 744 404 744 561 q 697 188 744 283 q 560 40 650 93 q 346 -14 469 -14 q 117 65 197 -14 q 36 304 36 144 q 83 519 36 425 q 221 665 131 613 q 436 717 311 717 m 411 554 q 290 501 329 554 q 250 308 250 447 q 261 207 250 243 q 298 156 272 171 q 371 142 324 142 q 491 196 451 142 q 531 388 531 250 q 519 488 531 451 q 483 539 508 524 q 411 554 458 554 m 675 975 q 585 846 646 896 q 439 796 525 796 q 294 847 344 796 q 232 975 243 897 l 286 1046 l 317 1046 q 365 972 329 997 q 450 946 400 946 q 607 1046 558 946 l 638 1046 l 675 975 z "},"Ő":{"ha":892,"x_min":44,"x_max":879,"o":"m 518 910 q 785 813 690 910 q 879 528 879 717 q 824 244 879 367 q 661 53 768 121 q 404 -15 554 -15 q 139 83 233 -15 q 44 372 44 182 q 99 655 44 533 q 261 843 154 776 q 518 910 368 910 m 493 732 q 329 651 385 732 q 274 374 274 569 q 308 202 274 253 q 426 151 342 151 q 590 233 535 151 q 646 513 646 315 q 612 682 646 632 q 493 732 578 732 m 301 1044 q 444 1239 392 1160 l 461 1242 l 560 1178 l 563 1161 q 388 997 483 1082 l 368 992 l 301 1044 m 524 1044 q 667 1239 621 1172 l 682 1242 l 782 1178 l 785 1161 q 608 997 715 1092 l 590 992 l 524 1044 z "},"ő":{"ha":775,"x_min":36,"x_max":744,"o":"m 436 717 q 665 639 585 717 q 744 404 744 561 q 697 188 744 283 q 560 40 650 93 q 346 -14 469 -14 q 117 65 197 -14 q 36 304 36 144 q 83 519 36 425 q 221 665 131 613 q 436 717 311 717 m 411 554 q 290 501 329 554 q 250 308 250 447 q 261 207 250 243 q 298 156 272 171 q 371 142 324 142 q 491 196 451 142 q 531 388 531 250 q 519 488 531 451 q 483 539 508 524 q 411 554 458 554 m 239 833 q 406 1082 335 972 l 421 1085 l 519 1015 l 522 999 q 321 785 444 910 l 304 781 l 239 833 m 457 833 q 624 1082 553 972 l 639 1085 l 738 1015 l 740 999 q 539 785 663 910 l 522 781 l 457 833 z "},"Œ":{"ha":1200,"x_min":43,"x_max":1253,"o":"m 554 913 q 699 903 621 913 q 813 896 796 896 l 1240 896 l 1253 879 l 1217 717 l 1007 724 l 853 724 l 828 539 l 969 538 l 1117 542 l 1126 526 l 1092 364 l 933 368 l 800 367 l 792 285 l 781 172 l 922 171 l 1147 179 l 1157 163 l 1124 0 l 703 0 q 558 -7 660 1 q 407 -17 474 -17 q 138 83 232 -17 q 43 364 43 183 q 106 656 43 532 q 283 847 168 781 q 554 913 399 913 m 513 735 q 333 651 392 735 q 275 368 275 567 q 316 203 275 256 q 447 150 357 150 q 551 168 524 150 q 583 233 579 185 l 629 651 q 631 678 631 661 q 619 714 631 707 q 513 735 596 735 z "},"œ":{"ha":1036,"x_min":38,"x_max":1060,"o":"m 453 718 q 586 711 482 718 q 688 706 658 706 l 1050 706 l 1060 690 l 1026 540 l 850 547 l 725 547 l 710 435 l 825 433 l 946 438 l 957 424 l 925 272 l 792 276 l 685 275 l 679 228 l 672 158 l 789 158 l 976 164 l 986 150 l 954 0 l 600 0 q 482 -6 554 1 q 358 -12 385 -12 q 123 67 208 -12 q 38 288 38 146 q 147 603 38 489 q 453 718 257 718 m 426 553 q 326 530 364 553 q 270 451 289 507 q 251 293 251 394 q 282 177 251 213 q 381 142 313 142 q 467 157 447 142 q 489 213 485 169 l 518 485 q 519 504 519 492 q 510 535 519 526 q 426 553 494 553 z "},"Ŕ":{"ha":828,"x_min":58,"x_max":804,"o":"m 804 665 q 753 485 804 567 q 611 351 703 404 q 778 51 689 199 l 774 28 q 550 -15 664 -7 l 531 3 q 422 290 463 169 l 304 290 l 304 286 l 279 0 l 58 0 l 103 265 l 169 896 l 526 897 q 731 837 657 897 q 804 665 804 776 m 450 450 q 569 629 569 494 q 539 710 569 683 q 446 739 508 736 l 369 735 l 329 456 l 450 450 m 692 1150 l 688 1129 q 404 969 490 1015 l 385 971 l 333 1051 q 594 1268 485 1169 l 615 1267 l 692 1150 z "},"ŕ":{"ha":736,"x_min":50,"x_max":694,"o":"m 694 510 q 654 377 694 438 q 540 275 614 317 q 679 47 611 149 l 672 25 q 469 -12 565 -7 l 444 8 q 365 217 392 139 l 272 217 l 254 0 l 50 0 l 86 207 l 138 706 l 454 706 q 630 653 565 706 q 694 510 694 601 m 294 368 l 390 363 q 475 481 475 396 q 455 540 475 521 q 390 561 435 558 l 324 557 l 294 368 m 597 960 l 593 939 q 310 779 396 825 l 290 781 l 239 861 q 500 1078 390 979 l 521 1076 l 597 960 z "},"Ŗ":{"ha":828,"x_min":58,"x_max":804,"o":"m 804 665 q 753 485 804 567 q 611 351 703 404 q 778 51 689 199 l 774 28 q 550 -15 664 -7 l 531 3 q 422 290 463 169 l 304 290 l 304 286 l 279 0 l 58 0 l 103 265 l 169 896 l 526 897 q 731 837 657 897 q 804 665 804 776 m 450 450 q 569 629 569 494 q 539 710 569 683 q 446 739 508 736 l 369 735 l 329 456 l 450 450 m 400 -57 q 456 -169 456 -106 q 294 -400 456 -287 l 235 -347 l 233 -333 q 301 -210 301 -278 q 263 -129 301 -167 l 263 -114 q 400 -57 331 -74 z "},"ŗ":{"ha":736,"x_min":50,"x_max":694,"o":"m 694 510 q 654 377 694 438 q 540 275 614 317 q 679 47 611 149 l 672 25 q 469 -12 565 -7 l 444 8 q 365 217 392 139 l 272 217 l 254 0 l 50 0 l 86 207 l 138 706 l 454 706 q 630 653 565 706 q 694 510 694 601 m 294 368 l 390 363 q 475 481 475 396 q 455 540 475 521 q 390 561 435 558 l 324 557 l 294 368 m 375 -57 q 431 -169 431 -106 q 269 -400 431 -287 l 210 -347 l 208 -333 q 276 -210 276 -278 q 238 -129 276 -167 l 238 -114 q 375 -57 306 -74 z "},"Ř":{"ha":828,"x_min":58,"x_max":804,"o":"m 804 665 q 753 485 804 567 q 611 351 703 404 q 778 51 689 199 l 774 28 q 550 -15 664 -7 l 531 3 q 422 290 463 169 l 304 290 l 304 286 l 279 0 l 58 0 l 103 265 l 169 896 l 526 897 q 731 837 657 897 q 804 665 804 776 m 450 450 q 569 629 569 494 q 539 710 569 683 q 446 739 508 736 l 369 735 l 329 456 l 450 450 m 739 1176 q 543 1003 676 1126 l 514 976 l 471 976 q 286 1176 407 1056 l 349 1257 l 369 1257 q 506 1136 461 1182 q 639 1232 553 1175 l 675 1257 l 697 1257 l 739 1176 z "},"ř":{"ha":736,"x_min":50,"x_max":694,"o":"m 694 510 q 654 377 694 438 q 540 275 614 317 q 679 47 611 149 l 672 25 q 469 -12 565 -7 l 444 8 q 365 217 392 139 l 272 217 l 254 0 l 50 0 l 86 207 l 138 706 l 454 706 q 630 653 565 706 q 694 510 694 601 m 294 368 l 390 363 q 475 481 475 396 q 455 540 475 521 q 390 561 435 558 l 324 557 l 294 368 m 644 986 q 449 813 582 936 l 419 786 l 376 786 q 192 986 313 865 l 254 1067 l 275 1067 q 411 946 367 992 q 544 1042 458 985 l 581 1067 l 603 1067 l 644 986 z "},"Ś":{"ha":697,"x_min":6,"x_max":700,"o":"m 463 910 q 700 863 583 910 l 643 678 l 610 664 q 513 718 563 699 q 424 738 463 738 q 346 714 375 738 q 317 657 317 690 q 347 599 317 624 q 443 540 376 575 q 551 475 510 504 q 624 399 593 446 q 654 288 654 353 q 606 136 654 206 q 473 26 558 67 q 279 -14 388 -14 q 6 42 142 -14 l 60 240 l 83 253 q 201 178 136 204 q 317 151 267 151 q 400 176 371 151 q 429 235 429 200 q 398 297 429 271 q 301 357 367 322 q 196 419 238 390 q 124 494 154 447 q 94 606 94 540 q 142 760 94 690 q 274 869 190 829 q 463 910 358 910 m 631 1150 l 626 1129 q 343 969 429 1015 l 324 971 l 272 1051 q 533 1268 424 1169 l 554 1267 l 631 1150 z "},"ś":{"ha":624,"x_min":14,"x_max":592,"o":"m 393 717 q 592 681 501 717 l 543 504 l 513 497 q 428 547 471 529 q 353 564 386 564 q 305 549 322 564 q 288 513 288 535 q 310 474 288 489 q 382 438 332 460 q 472 392 436 414 q 533 333 507 371 q 560 239 560 296 q 526 117 560 175 q 421 23 492 60 q 244 -14 350 -14 q 14 28 122 -14 l 63 213 l 83 226 q 184 159 128 185 q 283 133 240 133 q 334 149 314 133 q 354 189 354 165 q 331 227 354 211 q 260 264 308 243 q 169 308 206 286 q 107 369 133 331 q 81 464 81 407 q 118 591 81 533 q 227 683 156 649 q 393 717 299 717 m 560 960 l 556 939 q 272 779 358 825 l 253 781 l 201 861 q 463 1078 353 979 l 483 1076 l 560 960 z "},"Ŝ":{"ha":697,"x_min":6,"x_max":700,"o":"m 463 910 q 700 863 583 910 l 643 678 l 610 664 q 513 718 563 699 q 424 738 463 738 q 346 714 375 738 q 317 657 317 690 q 347 599 317 624 q 443 540 376 575 q 551 475 510 504 q 624 399 593 446 q 654 288 654 353 q 606 136 654 206 q 473 26 558 67 q 279 -14 388 -14 q 6 42 142 -14 l 60 240 l 83 253 q 201 178 136 204 q 317 151 267 151 q 400 176 371 151 q 429 235 429 200 q 398 297 429 271 q 301 357 367 322 q 196 419 238 390 q 124 494 154 447 q 94 606 94 540 q 142 760 94 690 q 274 869 190 829 q 463 910 358 910 m 225 1061 q 426 1239 289 1113 l 451 1261 l 494 1261 q 678 1061 565 1174 l 615 979 l 594 979 q 456 1101 496 1060 q 288 979 403 1057 l 267 979 l 225 1061 z "},"ŝ":{"ha":624,"x_min":14,"x_max":606,"o":"m 393 717 q 592 681 501 717 l 543 504 l 513 497 q 428 547 471 529 q 353 564 386 564 q 305 549 322 564 q 288 513 288 535 q 310 474 288 489 q 382 438 332 460 q 472 392 436 414 q 533 333 507 371 q 560 239 560 296 q 526 117 560 175 q 421 23 492 60 q 244 -14 350 -14 q 14 28 122 -14 l 63 213 l 83 226 q 184 159 128 185 q 283 133 240 133 q 334 149 314 133 q 354 189 354 165 q 331 227 354 211 q 260 264 308 243 q 169 308 206 286 q 107 369 133 331 q 81 464 81 407 q 118 591 81 533 q 227 683 156 649 q 393 717 299 717 m 153 871 q 354 1049 217 922 l 379 1071 l 422 1071 q 606 871 493 983 l 543 789 l 522 789 q 383 911 424 869 q 215 789 331 867 l 194 789 l 153 871 z "},"Ş":{"ha":697,"x_min":6,"x_max":699,"o":"m 315 657 q 345 599 315 624 q 442 540 375 575 q 551 475 508 504 q 624 399 593 446 q 654 288 654 353 q 614 147 654 213 q 500 40 574 82 q 331 -11 426 -1 l 319 -62 l 367 -89 q 425 -174 425 -122 q 388 -251 425 -221 q 286 -282 350 -282 q 168 -244 222 -282 l 182 -157 l 192 -154 q 272 -194 235 -194 q 303 -168 303 -194 q 282 -143 303 -154 l 213 -104 l 233 -12 q 6 42 121 -4 l 60 240 l 83 253 q 201 178 136 204 q 317 151 265 151 q 399 176 369 151 q 429 235 429 200 q 398 297 429 271 q 301 357 367 322 q 196 419 238 390 q 124 494 154 447 q 94 606 94 540 q 142 760 94 690 q 274 869 190 829 q 463 910 358 910 q 699 863 583 910 l 643 678 l 610 664 q 513 718 563 699 q 424 738 463 738 q 345 714 375 738 q 315 657 315 690 z "},"ş":{"ha":624,"x_min":14,"x_max":592,"o":"m 288 513 q 310 474 288 489 q 382 438 332 460 q 472 392 436 414 q 533 333 507 371 q 560 239 560 296 q 532 129 560 182 q 447 39 504 76 q 307 -10 390 1 l 294 -62 l 342 -89 q 400 -174 400 -122 q 363 -251 400 -221 q 261 -282 325 -282 q 143 -244 197 -282 l 157 -157 l 167 -154 q 247 -194 210 -194 q 278 -168 278 -194 q 257 -143 278 -154 l 188 -104 l 208 -12 q 14 28 107 -8 l 63 213 l 83 226 q 183 159 128 185 q 282 133 239 133 q 334 149 314 133 q 354 189 354 165 q 331 227 354 211 q 260 264 308 243 q 169 308 206 286 q 107 369 133 331 q 81 464 81 407 q 118 591 81 533 q 227 683 156 649 q 393 717 299 717 q 592 681 501 717 l 543 504 l 513 497 q 428 547 471 529 q 353 564 386 564 q 305 549 322 564 q 288 513 288 535 z "},"Š":{"ha":697,"x_min":6,"x_max":700,"o":"m 463 910 q 700 863 583 910 l 643 678 l 610 664 q 513 718 563 699 q 424 738 463 738 q 346 714 375 738 q 317 657 317 690 q 347 599 317 624 q 443 540 376 575 q 551 475 510 504 q 624 399 593 446 q 654 288 654 353 q 606 136 654 206 q 473 26 558 67 q 279 -14 388 -14 q 6 42 142 -14 l 60 240 l 83 253 q 201 178 136 204 q 317 151 267 151 q 400 176 371 151 q 429 235 429 200 q 398 297 429 271 q 301 357 367 322 q 196 419 238 390 q 124 494 154 447 q 94 606 94 540 q 142 760 94 690 q 274 869 190 829 q 463 910 358 910 m 678 1176 q 482 1003 615 1126 l 453 976 l 410 976 q 225 1176 346 1056 l 288 1257 l 308 1257 q 444 1136 400 1182 q 578 1232 492 1175 l 614 1257 l 636 1257 l 678 1176 z "},"š":{"ha":624,"x_min":14,"x_max":606,"o":"m 393 717 q 592 681 501 717 l 543 504 l 513 497 q 428 547 471 529 q 353 564 386 564 q 305 549 322 564 q 288 513 288 535 q 310 474 288 489 q 382 438 332 460 q 472 392 436 414 q 533 333 507 371 q 560 239 560 296 q 526 117 560 175 q 421 23 492 60 q 244 -14 350 -14 q 14 28 122 -14 l 63 213 l 83 226 q 184 159 128 185 q 283 133 240 133 q 334 149 314 133 q 354 189 354 165 q 331 227 354 211 q 260 264 308 243 q 169 308 206 286 q 107 369 133 331 q 81 464 81 407 q 118 591 81 533 q 227 683 156 649 q 393 717 299 717 m 606 986 q 410 813 543 936 l 381 786 l 338 786 q 153 986 274 865 l 215 1067 l 236 1067 q 372 946 328 992 q 506 1042 419 985 l 542 1067 l 564 1067 l 606 986 z "},"Ţ":{"ha":696,"x_min":68,"x_max":749,"o":"m 717 717 l 547 725 l 506 725 l 444 286 l 419 0 l 356 0 l 342 -61 l 386 -87 q 442 -168 442 -119 q 406 -244 442 -214 q 310 -274 369 -274 q 197 -237 254 -274 l 211 -154 l 219 -150 q 297 -190 263 -190 q 325 -165 325 -190 q 306 -139 325 -150 l 240 -101 l 263 0 l 199 0 l 244 265 l 293 725 l 254 725 l 79 717 l 68 733 l 101 896 l 739 896 l 749 879 l 717 717 z "},"ţ":{"ha":618,"x_min":49,"x_max":632,"o":"m 600 538 l 456 546 l 431 546 l 386 228 l 367 0 l 315 0 l 293 -64 l 336 -90 q 385 -164 385 -121 q 342 -249 385 -215 q 233 -282 300 -282 q 124 -246 172 -282 l 149 -160 l 157 -156 q 231 -197 194 -197 q 264 -167 264 -197 q 247 -143 264 -154 l 185 -106 l 221 0 l 163 0 l 197 207 l 235 546 l 208 546 l 60 538 l 49 553 l 79 706 l 622 706 l 632 690 l 600 538 z "},"Ť":{"ha":696,"x_min":68,"x_max":749,"o":"m 715 717 l 546 725 l 507 725 l 446 286 l 419 0 l 199 0 l 244 265 l 294 725 l 254 725 l 79 717 l 68 733 l 101 896 l 739 896 l 749 879 l 715 717 m 672 1176 q 476 1003 610 1126 l 447 976 l 404 976 q 219 1176 340 1056 l 282 1257 l 303 1257 q 439 1136 394 1182 q 572 1232 486 1175 l 608 1257 l 631 1257 l 672 1176 z "},"ť":{"ha":618,"x_min":53,"x_max":636,"o":"m 606 538 l 461 546 l 435 546 l 390 228 l 371 0 l 167 0 l 203 207 l 239 546 l 213 546 l 64 538 l 53 553 l 85 706 l 626 706 l 636 690 l 606 538 m 607 986 q 411 813 544 936 l 382 786 l 339 786 q 154 986 275 865 l 217 1067 l 238 1067 q 374 946 329 992 q 507 1042 421 985 l 543 1067 l 565 1067 l 607 986 z "},"Ŧ":{"ha":696,"x_min":68,"x_max":749,"o":"m 471 471 l 590 471 l 604 456 l 596 354 l 454 354 l 444 286 l 419 0 l 199 0 l 244 265 l 254 354 l 140 354 l 126 369 l 135 471 l 267 471 l 293 725 l 254 725 l 79 717 l 68 733 l 101 896 l 739 896 l 749 879 l 717 717 l 547 725 l 506 725 l 471 471 z "},"ŧ":{"ha":618,"x_min":54,"x_max":636,"o":"m 410 354 l 515 354 l 528 340 l 507 238 l 393 238 l 392 228 l 372 0 l 168 0 l 203 207 l 206 238 l 94 238 l 83 253 l 104 354 l 219 354 l 240 546 l 214 546 l 65 538 l 54 553 l 85 706 l 628 706 l 636 690 l 606 538 l 461 546 l 436 546 l 410 354 z "},"Ũ":{"ha":881,"x_min":74,"x_max":875,"o":"m 796 314 q 676 71 776 156 q 400 -14 576 -14 q 160 53 246 -14 q 74 244 74 121 q 78 310 74 275 l 97 444 l 147 896 l 367 896 l 289 339 q 286 293 286 306 q 318 195 286 226 q 418 164 350 164 q 541 205 499 164 q 593 333 583 246 l 653 896 l 875 896 l 813 442 l 796 314 m 792 1161 l 689 1025 l 669 1018 q 551 1046 638 1022 q 456 1067 474 1067 q 422 1052 438 1067 q 390 1018 406 1038 q 367 992 374 999 l 347 992 l 283 1054 l 283 1072 l 386 1207 l 406 1214 q 525 1188 425 1211 q 619 1167 600 1167 q 654 1181 638 1167 q 688 1215 671 1196 q 710 1242 704 1235 l 728 1242 l 792 1179 l 792 1161 z "},"ũ":{"ha":768,"x_min":61,"x_max":743,"o":"m 678 236 q 577 51 663 115 q 342 -12 492 -12 q 135 40 208 -12 q 61 189 61 92 q 65 236 61 214 l 81 349 l 119 706 l 324 706 l 260 265 q 258 238 258 256 q 361 150 258 150 q 492 265 479 150 l 536 706 l 743 706 l 693 347 l 678 236 m 708 971 l 606 835 l 586 828 q 468 856 554 832 q 372 876 390 876 q 338 862 354 876 q 306 828 322 847 q 283 801 290 808 l 264 801 l 200 864 l 200 882 l 303 1017 l 322 1024 q 442 997 342 1021 q 536 976 517 976 q 571 991 554 976 q 604 1025 588 1006 q 626 1051 621 1044 l 644 1051 l 708 989 l 708 971 z "},"Ū":{"ha":881,"x_min":74,"x_max":875,"o":"m 796 314 q 676 71 776 156 q 400 -14 576 -14 q 160 53 246 -14 q 74 244 74 121 q 78 310 74 275 l 97 444 l 147 896 l 367 896 l 289 339 q 286 293 286 306 q 318 195 286 226 q 418 164 350 164 q 541 205 499 164 q 593 333 583 246 l 653 896 l 875 896 l 813 442 l 796 314 m 732 1046 l 344 1046 l 332 1060 l 342 1179 l 729 1179 l 743 1165 l 732 1046 z "},"ū":{"ha":768,"x_min":61,"x_max":743,"o":"m 678 236 q 577 51 663 115 q 342 -12 492 -12 q 135 40 208 -12 q 61 189 61 92 q 65 236 61 214 l 81 349 l 119 706 l 324 706 l 260 265 q 258 238 258 256 q 361 150 258 150 q 492 265 479 150 l 536 706 l 743 706 l 693 347 l 678 236 m 650 856 l 263 856 l 250 869 l 260 989 l 647 989 l 661 975 l 650 856 z "},"Ŭ":{"ha":881,"x_min":74,"x_max":875,"o":"m 796 314 q 676 71 776 156 q 400 -14 576 -14 q 160 53 246 -14 q 74 244 74 121 q 78 310 74 275 l 97 444 l 147 896 l 367 896 l 289 339 q 286 293 286 306 q 318 195 286 226 q 418 164 350 164 q 541 205 499 164 q 593 333 583 246 l 653 896 l 875 896 l 813 442 l 796 314 m 758 1165 q 669 1036 729 1086 q 522 986 608 986 q 377 1037 428 986 q 315 1165 326 1088 l 369 1236 l 400 1236 q 448 1162 413 1188 q 533 1136 483 1136 q 690 1236 642 1136 l 721 1236 l 758 1165 z "},"ŭ":{"ha":768,"x_min":61,"x_max":743,"o":"m 678 236 q 577 51 663 115 q 342 -12 492 -12 q 135 40 208 -12 q 61 189 61 92 q 65 236 61 214 l 81 349 l 119 706 l 324 706 l 260 265 q 258 238 258 256 q 361 150 258 150 q 492 265 479 150 l 536 706 l 743 706 l 693 347 l 678 236 m 675 975 q 585 846 646 896 q 439 796 525 796 q 294 847 344 796 q 232 975 243 897 l 286 1046 l 317 1046 q 365 972 329 997 q 450 946 400 946 q 607 1046 558 946 l 638 1046 l 675 975 z "},"Ů":{"ha":881,"x_min":74,"x_max":875,"o":"m 796 314 q 676 71 776 156 q 400 -14 576 -14 q 160 53 246 -14 q 74 244 74 121 q 78 310 74 275 l 97 444 l 147 896 l 367 896 l 289 339 q 286 293 286 306 q 318 195 286 226 q 418 164 350 164 q 541 205 499 164 q 593 333 583 246 l 653 896 l 875 896 l 813 442 l 796 314 m 543 1269 q 679 1136 679 1269 q 642 1029 679 1067 q 535 992 604 992 q 435 1026 469 992 q 400 1128 400 1061 q 437 1233 400 1196 q 543 1269 474 1269 m 539 1179 q 486 1132 486 1179 q 540 1079 486 1079 q 593 1128 593 1079 q 539 1179 593 1179 z "},"ů":{"ha":768,"x_min":61,"x_max":743,"o":"m 678 236 q 577 51 663 115 q 342 -12 492 -12 q 135 40 208 -12 q 61 189 61 92 q 65 236 61 214 l 81 349 l 119 706 l 324 706 l 260 265 q 258 238 258 256 q 361 150 258 150 q 492 265 479 150 l 536 706 l 743 706 l 693 347 l 678 236 m 460 1079 q 596 946 596 1079 q 558 839 596 876 q 451 801 521 801 q 351 836 386 801 q 317 938 317 871 q 353 1042 317 1006 q 460 1079 390 1079 m 456 989 q 403 942 403 989 q 457 889 403 889 q 510 938 510 889 q 456 989 510 989 z "},"Ű":{"ha":881,"x_min":74,"x_max":875,"o":"m 796 314 q 676 71 776 156 q 400 -14 576 -14 q 160 53 246 -14 q 74 244 74 121 q 78 310 74 275 l 97 444 l 147 896 l 367 896 l 289 339 q 286 293 286 306 q 318 195 286 226 q 418 164 350 164 q 541 205 499 164 q 593 333 583 246 l 653 896 l 875 896 l 813 442 l 796 314 m 297 1044 q 440 1239 388 1160 l 457 1242 l 556 1178 l 558 1161 q 383 997 479 1082 l 364 992 l 297 1044 m 519 1044 q 663 1239 617 1172 l 678 1242 l 778 1178 l 781 1161 q 604 997 711 1092 l 586 992 l 519 1044 z "},"ű":{"ha":768,"x_min":61,"x_max":743,"o":"m 678 236 q 577 51 663 115 q 342 -12 492 -12 q 135 40 208 -12 q 61 189 61 92 q 65 236 61 214 l 81 349 l 119 706 l 324 706 l 260 265 q 258 238 258 256 q 361 150 258 150 q 492 265 479 150 l 536 706 l 743 706 l 693 347 l 678 236 m 238 833 q 404 1082 333 972 l 419 1085 l 518 1015 l 521 999 q 319 785 443 910 l 303 781 l 238 833 m 456 833 q 622 1082 551 972 l 638 1085 l 736 1015 l 739 999 q 538 785 661 910 l 521 781 l 456 833 z "},"Ų":{"ha":881,"x_min":74,"x_max":875,"o":"m 813 442 l 796 314 q 654 54 775 135 l 592 -49 q 568 -112 568 -83 q 618 -158 568 -158 q 706 -122 661 -158 l 717 -122 l 733 -206 q 588 -274 656 -274 q 492 -238 528 -274 q 457 -147 457 -203 q 497 -33 457 -90 l 518 -3 q 400 -14 460 -14 q 160 53 246 -14 q 74 244 74 121 q 78 310 74 275 l 97 444 l 147 896 l 367 896 l 289 339 q 286 293 286 306 q 318 195 286 226 q 418 164 350 164 q 541 205 499 164 q 593 333 583 246 l 653 896 l 875 896 l 813 442 z "},"ų":{"ha":768,"x_min":61,"x_max":743,"o":"m 693 347 l 678 236 q 565 43 661 106 l 501 -46 q 475 -108 475 -79 q 528 -158 475 -158 q 615 -122 568 -158 l 626 -122 l 643 -207 q 496 -274 564 -274 q 399 -237 435 -274 q 363 -147 363 -201 q 407 -29 363 -83 l 425 -7 q 342 -12 390 -12 q 135 40 208 -12 q 61 189 61 92 q 65 236 61 214 l 82 349 l 119 706 l 324 706 l 260 265 q 258 238 258 256 q 361 150 258 150 q 492 265 479 150 l 538 706 l 743 706 l 693 347 z "},"Ŵ":{"ha":1239,"x_min":96,"x_max":1306,"o":"m 685 0 l 621 390 l 608 390 l 450 0 l 215 0 l 96 896 l 311 896 l 310 775 l 369 225 l 383 225 l 569 682 l 539 896 l 764 896 l 765 753 l 833 225 l 846 225 l 1061 763 l 1101 896 l 1306 896 l 917 0 l 685 0 m 472 1092 q 678 1243 586 1167 l 719 1243 q 904 1092 793 1174 l 856 1007 l 835 1007 l 692 1093 l 600 1046 q 522 1007 547 1021 l 501 1007 l 472 1092 z "},"ŵ":{"ha":1064,"x_min":82,"x_max":1100,"o":"m 569 0 l 519 268 l 508 268 l 397 0 l 178 0 l 82 706 l 282 706 l 281 599 l 321 210 l 333 210 l 471 540 l 450 706 l 660 706 l 660 578 l 708 210 l 721 210 l 875 588 l 910 706 l 1100 706 l 789 0 l 569 0 m 356 871 q 557 1049 419 922 l 582 1071 l 625 1071 q 808 871 696 983 l 746 789 l 725 789 q 586 911 626 869 q 418 789 533 867 l 397 789 l 356 871 z "},"Ŷ":{"ha":782,"x_min":71,"x_max":865,"o":"m 471 244 l 450 0 l 231 0 l 272 244 l 276 299 l 71 896 l 300 896 l 311 829 l 403 514 l 417 514 l 601 822 l 638 896 l 865 896 l 479 296 l 471 244 m 274 1092 q 479 1243 388 1167 l 521 1243 q 706 1092 594 1174 l 657 1007 l 636 1007 l 493 1093 l 401 1046 q 324 1007 349 1021 l 303 1007 l 274 1092 z "},"ŷ":{"ha":696,"x_min":56,"x_max":742,"o":"m 414 188 l 400 0 l 196 0 l 229 188 l 232 222 l 56 706 l 271 706 l 281 649 l 351 425 l 364 425 l 500 642 l 533 706 l 742 706 l 419 219 l 414 188 m 192 871 q 393 1049 256 922 l 418 1071 l 461 1071 q 644 871 532 983 l 582 789 l 561 789 q 422 911 463 869 q 254 789 369 867 l 233 789 l 192 871 z "},"Ÿ":{"ha":782,"x_min":71,"x_max":865,"o":"m 471 244 l 450 0 l 231 0 l 272 244 l 276 299 l 71 896 l 300 896 l 311 829 l 403 514 l 417 514 l 601 822 l 638 896 l 865 896 l 479 296 l 471 244 m 367 1211 q 435 1185 410 1211 q 460 1115 460 1160 q 433 1039 460 1067 q 358 1011 406 1011 q 288 1036 313 1011 q 264 1107 264 1061 q 292 1183 264 1156 q 367 1211 319 1211 m 619 1210 q 688 1185 664 1210 q 713 1115 713 1160 q 685 1038 713 1067 q 611 1010 658 1010 q 517 1107 517 1010 q 544 1183 517 1156 q 619 1210 572 1210 z "},"Ź":{"ha":760,"x_min":0,"x_max":785,"o":"m 281 165 l 546 165 l 703 178 l 708 167 l 671 -6 l 454 0 l 119 0 l 0 -7 l 19 151 l 508 729 l 256 729 l 100 717 l 93 726 l 131 899 l 318 896 l 692 896 l 785 897 l 764 738 l 281 165 m 614 1117 l 607 1097 q 297 993 486 1053 l 276 999 l 243 1088 q 539 1250 415 1176 l 558 1244 l 614 1117 z "},"ź":{"ha":671,"x_min":7,"x_max":665,"o":"m 267 151 l 468 151 l 607 164 l 613 156 l 576 -6 l 383 0 l 113 0 l 7 -6 l 24 140 l 410 551 l 214 551 l 79 539 l 74 549 l 107 708 l 272 706 l 665 706 l 649 558 l 267 151 m 586 960 l 582 939 q 299 779 385 825 l 279 781 l 228 861 q 489 1078 379 979 l 510 1076 l 586 960 z "},"Ż":{"ha":760,"x_min":0,"x_max":785,"o":"m 281 165 l 546 165 l 703 178 l 708 167 l 671 -6 l 454 0 l 119 0 l 0 -7 l 19 151 l 508 729 l 256 729 l 100 717 l 93 726 l 131 899 l 318 896 l 692 896 l 785 897 l 764 738 l 281 165 m 424 1231 q 501 1202 474 1231 q 529 1122 529 1174 q 499 1036 529 1068 q 415 1004 468 1004 q 336 1033 364 1004 q 308 1113 308 1061 q 340 1199 308 1167 q 424 1231 371 1231 z "},"ż":{"ha":671,"x_min":7,"x_max":665,"o":"m 267 151 l 468 151 l 607 164 l 613 156 l 576 -6 l 383 0 l 113 0 l 7 -6 l 24 140 l 410 551 l 214 551 l 79 539 l 74 549 l 107 708 l 272 706 l 665 706 l 649 558 l 267 151 m 411 1040 q 489 1012 461 1040 q 517 932 517 983 q 486 846 517 878 q 403 814 456 814 q 324 842 351 814 q 296 922 296 871 q 327 1008 296 976 q 411 1040 358 1040 z "},"Ž":{"ha":760,"x_min":0,"x_max":785,"o":"m 281 165 l 546 165 l 703 178 l 708 167 l 671 -6 l 454 0 l 119 0 l 0 -7 l 19 151 l 508 729 l 256 729 l 100 717 l 93 726 l 131 899 l 318 896 l 692 896 l 785 897 l 764 738 l 281 165 m 633 1147 q 429 996 518 1072 l 388 996 q 201 1147 317 1065 l 251 1232 l 272 1232 q 414 1146 319 1204 q 585 1232 489 1185 l 606 1232 l 633 1147 z "},"ž":{"ha":671,"x_min":7,"x_max":665,"o":"m 267 151 l 468 151 l 607 164 l 613 156 l 576 -6 l 383 0 l 113 0 l 7 -6 l 24 140 l 410 551 l 214 551 l 79 539 l 74 549 l 107 708 l 272 706 l 665 706 l 649 558 l 267 151 m 633 986 q 438 813 571 936 l 408 786 l 365 786 q 181 986 301 865 l 243 1067 l 264 1067 q 400 946 356 992 q 533 1042 447 985 l 569 1067 l 592 1067 l 633 986 z "},"ƒ":{"ha":463,"x_min":-19,"x_max":585,"o":"m 469 864 q 585 851 525 864 l 556 708 l 540 700 q 435 726 478 726 q 344 646 354 726 l 331 540 l 467 540 l 472 528 l 461 422 l 314 422 l 293 258 l 274 81 q 217 -86 263 -21 q 68 -210 171 -151 l -19 -122 l -18 -107 q 58 -30 33 -71 q 92 76 82 11 l 110 238 l 129 422 l 38 422 l 32 433 l 43 540 l 142 540 l 151 613 q 249 799 165 733 q 469 864 332 864 z "},"Ơ":{"ha":899,"x_min":44,"x_max":1004,"o":"m 917 1085 q 980 1052 956 1085 q 1004 968 1004 1019 q 951 839 1004 893 q 818 771 899 785 q 878 529 878 678 q 821 246 878 369 q 657 53 764 122 q 403 -15 550 -15 q 137 85 229 -15 q 44 381 44 185 q 103 658 44 538 q 268 844 163 778 q 510 910 374 910 q 674 885 581 910 q 751 869 728 869 q 812 890 789 869 q 835 947 835 910 q 803 1026 835 994 l 808 1043 q 917 1085 872 1085 m 492 732 q 329 650 385 732 q 274 379 274 568 q 308 204 274 257 q 431 151 342 151 q 592 234 536 151 q 647 507 647 317 q 614 680 647 628 q 492 732 581 732 z "},"ơ":{"ha":785,"x_min":36,"x_max":853,"o":"m 674 821 q 774 858 735 858 q 830 831 807 858 q 853 761 853 803 q 809 649 853 697 q 701 594 765 601 q 744 419 744 525 q 697 190 744 288 q 560 40 650 93 q 344 -14 469 -14 q 118 65 200 -14 q 36 285 36 144 q 84 515 36 418 q 220 665 132 613 q 424 717 308 717 q 565 699 485 717 q 632 688 607 688 q 694 744 694 688 q 669 806 694 781 l 674 821 m 371 142 q 462 164 428 142 q 513 244 496 186 q 531 410 531 303 q 502 522 531 489 q 410 554 474 554 q 319 531 353 554 q 267 449 285 508 q 250 285 250 390 q 278 174 250 206 q 371 142 306 142 z "},"Ư":{"ha":897,"x_min":74,"x_max":983,"o":"m 983 983 q 951 888 983 932 q 864 819 919 844 l 813 442 l 796 314 q 676 71 776 156 q 400 -14 576 -14 q 160 53 246 -14 q 74 244 74 121 q 78 310 74 275 l 97 444 l 147 896 l 367 896 l 289 339 q 286 293 286 306 q 318 195 286 226 q 418 164 350 164 q 541 205 499 164 q 593 333 583 246 l 653 896 l 735 896 q 817 964 817 896 q 775 1046 817 1011 l 779 1063 q 883 1104 839 1104 q 954 1069 925 1104 q 983 983 983 1035 z "},"ư":{"ha":786,"x_min":61,"x_max":851,"o":"m 851 788 q 819 701 851 742 q 733 638 788 661 l 693 347 l 678 236 q 577 51 663 115 q 342 -12 492 -12 q 135 40 208 -12 q 61 189 61 92 q 65 236 61 214 l 82 349 l 119 706 l 324 706 l 260 265 q 258 238 258 256 q 361 150 258 150 q 492 265 479 150 l 538 706 l 621 706 q 677 720 661 706 q 693 767 693 735 q 667 822 693 800 l 672 838 q 774 875 729 875 q 830 850 808 875 q 851 788 851 825 z "},"Ǎ":{"ha":833,"x_min":-32,"x_max":775,"o":"m 553 0 l 546 128 l 539 183 l 382 186 l 246 182 l 228 140 l 185 0 l -32 0 l 364 896 l 628 896 l 775 0 l 553 0 m 474 693 l 460 693 l 315 350 l 415 347 l 518 349 l 474 693 m 732 1147 q 528 996 617 1072 l 486 996 q 300 1147 415 1065 l 350 1232 l 371 1232 q 513 1146 418 1204 q 683 1232 588 1185 l 704 1232 l 732 1147 z "},"ǎ":{"ha":736,"x_min":-22,"x_max":668,"o":"m 463 0 l 458 111 l 456 128 l 326 129 l 214 126 l 213 122 l 175 0 l -22 0 l 300 706 l 542 706 l 667 0 l 463 0 m 400 522 l 388 522 l 281 278 l 357 276 l 435 278 l 400 522 m 668 986 q 472 813 606 936 l 443 786 l 400 786 q 215 986 336 865 l 278 1067 l 299 1067 q 435 946 390 992 q 568 1042 482 985 l 604 1067 l 626 1067 l 668 986 z "},"Ǐ":{"ha":422,"x_min":58,"x_max":521,"o":"m 279 0 l 58 0 l 103 265 l 169 896 l 393 896 l 304 286 l 279 0 m 521 1147 q 317 996 406 1072 l 275 996 q 89 1147 204 1065 l 139 1232 l 160 1232 q 301 1146 207 1204 q 472 1232 376 1185 l 493 1232 l 521 1147 z "},"ǐ":{"ha":399,"x_min":36,"x_max":489,"o":"m 256 0 l 51 0 l 86 207 l 139 706 l 346 706 l 275 228 l 256 0 m 489 986 q 293 813 426 936 l 264 786 l 221 786 q 36 986 157 865 l 99 1067 l 119 1067 q 256 946 211 992 q 389 1042 303 985 l 425 1067 l 447 1067 l 489 986 z "},"Ǒ":{"ha":892,"x_min":44,"x_max":879,"o":"m 518 910 q 785 813 690 910 q 879 528 879 717 q 824 244 879 367 q 661 53 768 121 q 404 -15 554 -15 q 139 83 233 -15 q 44 372 44 182 q 99 655 44 533 q 261 843 154 776 q 518 910 368 910 m 493 732 q 329 651 385 732 q 274 374 274 569 q 308 202 274 253 q 426 151 342 151 q 590 233 535 151 q 646 513 646 315 q 612 682 646 632 q 493 732 578 732 m 757 1147 q 553 996 642 1072 l 511 996 q 325 1147 440 1065 l 375 1232 l 396 1232 q 538 1146 443 1204 q 708 1232 613 1185 l 729 1232 l 757 1147 z "},"ǒ":{"ha":775,"x_min":36,"x_max":744,"o":"m 436 717 q 665 639 585 717 q 744 404 744 561 q 697 188 744 283 q 560 40 650 93 q 346 -14 469 -14 q 117 65 197 -14 q 36 304 36 144 q 83 519 36 425 q 221 665 131 613 q 436 717 311 717 m 411 554 q 290 501 329 554 q 250 308 250 447 q 261 207 250 243 q 298 156 272 171 q 371 142 324 142 q 491 196 451 142 q 531 388 531 250 q 519 488 531 451 q 483 539 508 524 q 411 554 458 554 m 682 986 q 486 813 619 936 l 457 786 l 414 786 q 229 986 350 865 l 292 1067 l 313 1067 q 449 946 404 992 q 582 1042 496 985 l 618 1067 l 640 1067 l 682 986 z "},"Ǔ":{"ha":881,"x_min":74,"x_max":875,"o":"m 796 314 q 676 71 776 156 q 400 -14 576 -14 q 160 53 246 -14 q 74 244 74 121 q 78 310 74 275 l 97 444 l 147 896 l 367 896 l 289 339 q 286 293 286 306 q 318 195 286 226 q 418 164 350 164 q 541 205 499 164 q 593 333 583 246 l 653 896 l 875 896 l 813 442 l 796 314 m 765 1176 q 569 1003 703 1126 l 540 976 l 497 976 q 313 1176 433 1056 l 375 1257 l 396 1257 q 532 1136 488 1182 q 665 1232 579 1175 l 701 1257 l 724 1257 l 765 1176 z "},"ǔ":{"ha":768,"x_min":61,"x_max":743,"o":"m 678 236 q 577 51 663 115 q 342 -12 492 -12 q 135 40 208 -12 q 61 189 61 92 q 65 236 61 214 l 81 349 l 119 706 l 324 706 l 260 265 q 258 238 258 256 q 361 150 258 150 q 492 265 479 150 l 536 706 l 743 706 l 693 347 l 678 236 m 682 986 q 486 813 619 936 l 457 786 l 414 786 q 229 986 350 865 l 292 1067 l 313 1067 q 449 946 404 992 q 582 1042 496 985 l 618 1067 l 640 1067 l 682 986 z "},"Ǖ":{"ha":881,"x_min":74,"x_max":875,"o":"m 796 314 q 676 71 776 156 q 400 -14 576 -14 q 160 53 246 -14 q 74 244 74 121 q 78 310 74 275 l 97 444 l 147 896 l 367 896 l 289 339 q 286 293 286 306 q 318 195 286 226 q 418 164 350 164 q 541 205 499 164 q 593 333 583 246 l 653 896 l 875 896 l 813 442 l 796 314 m 761 1257 l 363 1257 l 347 1272 l 358 1392 l 758 1392 l 774 1376 l 761 1257 m 424 1182 q 491 1158 467 1182 q 515 1089 515 1133 q 489 1013 515 1040 q 417 985 463 985 q 347 1010 371 985 q 322 1081 322 1035 q 349 1155 322 1128 q 424 1182 376 1182 m 675 1182 q 742 1158 718 1182 q 767 1089 767 1133 q 740 1013 767 1040 q 667 985 714 985 q 598 1010 622 985 q 574 1081 574 1035 q 601 1155 574 1128 q 675 1182 628 1182 z "},"ǖ":{"ha":768,"x_min":61,"x_max":743,"o":"m 678 236 q 577 51 663 115 q 342 -12 492 -12 q 135 40 208 -12 q 61 189 61 92 q 65 236 61 214 l 81 349 l 119 706 l 324 706 l 260 265 q 258 238 258 256 q 361 150 258 150 q 492 265 479 150 l 536 706 l 743 706 l 693 347 l 678 236 m 678 1067 l 279 1067 l 264 1082 l 275 1201 l 675 1201 l 690 1186 l 678 1067 m 340 992 q 408 967 383 992 q 432 899 432 943 q 406 822 432 850 q 333 794 379 794 q 263 819 288 794 q 239 890 239 844 q 266 965 239 938 q 340 992 293 992 m 592 992 q 659 967 635 992 q 683 899 683 943 q 657 822 683 850 q 583 794 631 794 q 515 819 539 794 q 490 890 490 844 q 517 965 490 938 q 592 992 544 992 z "},"Ǘ":{"ha":881,"x_min":74,"x_max":875,"o":"m 796 314 q 676 71 776 156 q 400 -14 576 -14 q 160 53 246 -14 q 74 244 74 121 q 78 310 74 275 l 97 444 l 147 896 l 367 896 l 289 339 q 286 293 286 306 q 318 195 286 226 q 418 164 350 164 q 541 205 499 164 q 593 333 583 246 l 653 896 l 875 896 l 813 442 l 796 314 m 733 1308 l 724 1290 q 400 1243 544 1260 l 382 1251 l 363 1346 q 683 1453 536 1397 l 701 1444 l 733 1308 m 417 1182 q 484 1158 460 1182 q 508 1089 508 1133 q 482 1013 508 1040 q 408 985 456 985 q 340 1010 364 985 q 315 1081 315 1035 q 342 1155 315 1128 q 417 1182 369 1182 m 667 1182 q 734 1158 710 1182 q 758 1089 758 1133 q 732 1013 758 1040 q 660 985 706 985 q 590 1010 615 985 q 565 1081 565 1035 q 592 1155 565 1128 q 667 1182 619 1182 z "},"ǘ":{"ha":768,"x_min":61,"x_max":743,"o":"m 678 236 q 577 51 663 115 q 342 -12 492 -12 q 135 40 208 -12 q 61 189 61 92 q 65 236 61 214 l 81 349 l 119 706 l 324 706 l 260 265 q 258 238 258 256 q 361 150 258 150 q 492 265 479 150 l 536 706 l 743 706 l 693 347 l 678 236 m 650 1118 l 640 1100 q 317 1053 461 1069 l 299 1061 l 279 1156 q 600 1263 453 1207 l 618 1254 l 650 1118 m 333 992 q 401 967 376 992 q 425 899 425 943 q 399 822 425 850 q 325 794 372 794 q 256 819 281 794 q 232 890 232 844 q 259 965 232 938 q 333 992 286 992 m 583 992 q 651 967 626 992 q 675 899 675 943 q 649 822 675 850 q 576 794 622 794 q 507 819 532 794 q 482 890 482 844 q 509 965 482 938 q 583 992 536 992 z "},"Ǚ":{"ha":881,"x_min":74,"x_max":875,"o":"m 796 314 q 676 71 776 156 q 400 -14 576 -14 q 160 53 246 -14 q 74 244 74 121 q 78 310 74 275 l 97 444 l 147 896 l 367 896 l 289 339 q 286 293 286 306 q 318 195 286 226 q 418 164 350 164 q 541 205 499 164 q 593 333 583 246 l 653 896 l 875 896 l 813 442 l 796 314 m 771 1347 q 565 1196 656 1274 l 524 1196 q 339 1347 456 1263 l 388 1433 l 408 1433 l 551 1347 q 657 1401 585 1365 l 721 1433 l 742 1433 l 771 1347 m 424 1182 q 491 1157 467 1182 q 515 1089 515 1132 q 489 1013 515 1040 q 415 985 463 985 q 347 1010 371 985 q 322 1081 322 1035 q 349 1155 322 1128 q 424 1182 376 1182 m 674 1182 q 741 1158 717 1182 q 765 1089 765 1133 q 739 1013 765 1040 q 667 985 713 985 q 597 1010 621 985 q 572 1081 572 1035 q 599 1155 572 1128 q 674 1182 626 1182 z "},"ǚ":{"ha":768,"x_min":61,"x_max":743,"o":"m 678 236 q 577 51 663 115 q 342 -12 492 -12 q 135 40 208 -12 q 61 189 61 92 q 65 236 61 214 l 81 349 l 119 706 l 324 706 l 260 265 q 258 238 258 256 q 361 150 258 150 q 492 265 479 150 l 536 706 l 743 706 l 693 347 l 678 236 m 688 1157 q 482 1006 572 1083 l 440 1006 q 256 1157 372 1072 l 304 1243 l 325 1243 l 468 1157 q 574 1211 501 1175 l 638 1243 l 658 1243 l 688 1157 m 340 992 q 408 967 383 992 q 432 899 432 942 q 406 822 432 850 q 332 794 379 794 q 263 819 288 794 q 239 890 239 844 q 266 965 239 938 q 340 992 293 992 m 590 992 q 658 967 633 992 q 682 899 682 943 q 656 822 682 850 q 583 794 629 794 q 513 819 538 794 q 489 890 489 844 q 516 965 489 938 q 590 992 543 992 z "},"Ǜ":{"ha":881,"x_min":74,"x_max":875,"o":"m 796 314 q 676 71 776 156 q 400 -14 576 -14 q 160 53 246 -14 q 74 244 74 121 q 78 310 74 275 l 97 444 l 147 896 l 367 896 l 289 339 q 286 293 286 306 q 318 195 286 226 q 418 164 350 164 q 541 205 499 164 q 593 333 583 246 l 653 896 l 875 896 l 813 442 l 796 314 m 439 1453 q 746 1346 571 1400 l 717 1251 l 696 1243 q 381 1290 549 1261 l 371 1308 l 419 1444 l 439 1453 m 410 1182 q 476 1158 453 1182 q 499 1092 499 1135 q 471 1014 499 1043 q 396 985 443 985 q 306 1078 306 985 q 334 1153 306 1125 q 410 1182 363 1182 m 660 1182 q 726 1158 703 1182 q 750 1092 750 1135 q 722 1014 750 1043 q 647 985 694 985 q 556 1078 556 985 q 584 1153 556 1125 q 660 1182 613 1182 z "},"ǜ":{"ha":768,"x_min":61,"x_max":743,"o":"m 678 236 q 577 51 663 115 q 342 -12 492 -12 q 135 40 208 -12 q 61 189 61 92 q 65 236 61 214 l 81 349 l 119 706 l 324 706 l 260 265 q 258 238 258 256 q 361 150 258 150 q 492 265 479 150 l 536 706 l 743 706 l 693 347 l 678 236 m 356 1263 q 663 1156 488 1210 l 633 1061 l 613 1053 q 297 1100 465 1071 l 288 1118 l 336 1254 l 356 1263 m 326 992 q 392 968 369 992 q 415 901 415 944 q 388 824 415 853 q 313 794 360 794 q 222 888 222 794 q 251 963 222 935 q 326 992 279 992 m 576 992 q 643 968 619 992 q 667 901 667 944 q 639 824 667 853 q 564 794 611 794 q 472 888 472 794 q 501 963 472 935 q 576 992 529 992 z "},"Ǫ":{"ha":892,"x_min":44,"x_max":879,"o":"m 582 -46 q 560 -108 560 -82 q 611 -158 560 -158 q 700 -122 650 -158 l 711 -122 l 726 -207 q 579 -274 650 -274 q 483 -237 519 -274 q 447 -147 447 -201 q 489 -29 447 -86 l 506 -7 q 404 -15 457 -15 q 139 83 233 -15 q 44 372 44 182 q 99 655 44 533 q 261 843 154 776 q 518 910 368 910 q 785 813 690 910 q 879 528 879 717 q 817 229 879 357 q 638 39 756 101 l 582 -46 m 274 374 q 308 202 274 253 q 426 151 342 151 q 590 234 535 151 q 646 513 646 317 q 612 682 646 632 q 493 732 578 732 q 328 651 383 732 q 274 374 274 569 z "},"ǫ":{"ha":775,"x_min":36,"x_max":744,"o":"m 450 -46 q 426 -108 426 -81 q 479 -158 426 -158 q 567 -122 519 -158 l 578 -122 l 594 -207 q 447 -274 515 -274 q 350 -237 386 -274 q 314 -147 314 -201 q 356 -29 314 -86 l 367 -14 l 344 -14 q 116 65 196 -14 q 36 304 36 144 q 83 519 36 426 q 220 665 131 613 q 436 717 310 717 q 665 639 585 717 q 744 404 744 561 q 676 152 744 258 q 483 7 608 46 l 450 -46 m 250 308 q 261 207 250 243 q 298 156 272 171 q 371 142 324 142 q 490 195 451 142 q 529 388 529 249 q 519 488 529 453 q 483 539 508 524 q 411 554 457 554 q 290 501 329 554 q 250 308 250 447 z "},"Ǻ":{"ha":863,"x_min":-3,"x_max":804,"o":"m 376 1204 q 693 1321 554 1264 l 711 1314 l 747 1178 l 738 1161 q 415 1103 586 1131 l 396 1111 l 376 1204 m 581 0 l 574 124 l 567 179 l 408 182 l 272 178 l 254 136 l 214 0 l -3 0 l 403 869 q 386 944 386 899 q 423 1049 386 1013 q 531 1085 460 1085 q 632 1050 597 1085 q 667 951 667 1015 q 642 863 667 896 l 804 0 l 581 0 m 525 996 q 472 947 472 996 q 526 894 472 894 q 579 944 579 894 q 525 996 579 996 m 500 675 l 486 675 l 342 340 l 442 338 l 544 340 l 500 675 z "},"ǻ":{"ha":736,"x_min":-22,"x_max":667,"o":"m 463 0 l 458 111 l 456 128 l 326 129 l 214 126 l 213 122 l 175 0 l -22 0 l 300 706 l 542 706 l 667 0 l 463 0 m 400 522 l 388 522 l 281 278 l 357 276 l 435 278 l 400 522 m 661 1142 l 651 1125 q 331 1067 496 1093 l 311 1075 l 290 1168 q 607 1285 458 1224 l 626 1278 l 661 1142 m 444 1050 q 546 1015 511 1050 q 581 917 581 981 q 542 810 581 847 q 436 772 504 772 q 335 807 371 772 q 300 908 300 842 q 338 1013 300 976 q 444 1050 375 1050 m 439 960 q 388 913 388 960 q 442 860 388 860 q 494 908 494 860 q 439 960 494 960 z "},"Ǽ":{"ha":1131,"x_min":-65,"x_max":1104,"o":"m 1069 0 l 514 0 l 524 128 l 526 283 l 249 207 l 211 140 l 153 0 l -65 0 l 449 896 l 1092 896 l 1103 879 l 1068 717 l 860 724 l 747 724 l 742 507 l 1003 578 l 1017 565 l 1017 411 l 738 340 l 733 171 l 868 171 l 1093 179 l 1104 163 l 1069 0 m 533 693 l 519 693 l 357 401 l 529 449 l 533 693 m 976 1117 l 969 1097 q 660 993 849 1053 l 639 999 l 606 1088 q 901 1250 778 1176 l 921 1244 l 976 1117 z "},"ǽ":{"ha":981,"x_min":-49,"x_max":949,"o":"m 919 0 l 446 0 l 456 106 l 456 213 l 203 144 l 186 117 l 138 0 l -49 0 l 383 704 l 932 704 l 942 689 l 911 550 l 733 558 l 638 558 l 636 400 l 858 460 l 871 449 l 869 314 l 635 258 l 633 147 l 747 147 l 940 154 l 949 140 l 919 0 m 457 533 l 444 533 l 308 314 l 457 353 l 457 533 m 839 960 l 835 939 q 551 779 638 825 l 532 781 l 481 861 q 742 1078 632 979 l 763 1076 l 839 960 z "},"Ǿ":{"ha":892,"x_min":44,"x_max":879,"o":"m 771 826 q 879 528 879 726 q 824 244 879 367 q 661 53 768 121 q 404 -15 554 -15 q 281 0 339 -15 l 178 -172 l 67 -121 l 60 -101 l 158 64 q 44 372 44 165 q 99 655 44 533 q 261 843 154 776 q 518 910 368 910 q 650 893 590 910 l 732 1031 l 840 981 l 850 958 l 771 826 m 426 151 q 590 234 535 151 q 646 513 646 317 q 612 682 646 632 q 493 732 578 732 q 328 651 383 732 q 274 374 274 569 q 308 202 274 253 q 426 151 342 151 m 718 1119 l 711 1100 q 401 996 590 1056 l 381 1001 l 347 1090 q 643 1253 519 1179 l 663 1247 l 718 1119 z "},"ǿ":{"ha":775,"x_min":21,"x_max":749,"o":"m 668 635 q 744 404 744 556 q 697 188 744 283 q 560 40 650 93 q 344 -14 469 -14 q 232 0 282 -14 l 125 -154 l 24 -87 l 21 -68 l 115 67 q 36 304 36 149 q 83 519 36 426 q 220 665 131 613 q 436 717 310 717 q 553 701 506 717 l 646 836 l 742 769 l 749 750 l 668 635 m 371 142 q 490 195 451 142 q 529 388 529 249 q 519 488 529 453 q 483 539 508 524 q 411 554 457 554 q 290 501 329 554 q 250 308 250 447 q 261 207 250 243 q 298 156 272 171 q 371 142 324 142 m 624 963 l 619 942 q 336 782 422 828 l 317 783 l 265 864 q 526 1081 417 982 l 547 1079 l 624 963 z "},"Ș":{"ha":697,"x_min":6,"x_max":700,"o":"m 463 910 q 700 863 583 910 l 643 678 l 610 664 q 513 718 563 699 q 424 738 463 738 q 346 714 375 738 q 317 657 317 690 q 347 599 317 624 q 443 540 376 575 q 551 475 510 504 q 624 399 593 446 q 654 288 654 353 q 606 136 654 206 q 473 26 558 67 q 279 -14 388 -14 q 6 42 142 -14 l 60 240 l 83 253 q 201 178 136 204 q 317 151 267 151 q 400 176 371 151 q 429 235 429 200 q 398 297 429 271 q 301 357 367 322 q 196 419 238 390 q 124 494 154 447 q 94 606 94 540 q 142 760 94 690 q 274 869 190 829 q 463 910 358 910 m 335 -57 q 390 -169 390 -106 q 229 -400 390 -287 l 169 -347 l 168 -333 q 236 -210 236 -278 q 197 -129 236 -167 l 197 -114 q 335 -57 265 -74 z "},"ș":{"ha":624,"x_min":14,"x_max":592,"o":"m 393 717 q 592 681 501 717 l 543 504 l 513 497 q 428 547 471 529 q 353 564 386 564 q 305 549 322 564 q 288 513 288 535 q 310 474 288 489 q 382 438 332 460 q 472 392 436 414 q 533 333 507 371 q 560 239 560 296 q 526 117 560 175 q 421 23 492 60 q 244 -14 350 -14 q 14 28 122 -14 l 63 213 l 83 226 q 184 159 128 185 q 283 133 240 133 q 334 149 314 133 q 354 189 354 165 q 331 227 354 211 q 260 264 308 243 q 169 308 206 286 q 107 369 133 331 q 81 464 81 407 q 118 591 81 533 q 227 683 156 649 q 393 717 299 717 m 310 -57 q 365 -169 365 -106 q 204 -400 365 -287 l 144 -347 l 143 -333 q 211 -210 211 -278 q 172 -129 211 -167 l 172 -114 q 310 -57 240 -74 z "},"Ț":{"ha":696,"x_min":68,"x_max":749,"o":"m 715 717 l 546 725 l 507 725 l 446 286 l 419 0 l 199 0 l 244 265 l 294 725 l 254 725 l 79 717 l 68 733 l 101 896 l 739 896 l 749 879 l 715 717 m 333 -57 q 389 -169 389 -106 q 228 -400 389 -287 l 168 -347 l 167 -333 q 235 -210 235 -278 q 196 -129 235 -167 l 196 -114 q 333 -57 264 -74 z "},"ț":{"ha":618,"x_min":53,"x_max":636,"o":"m 606 538 l 461 546 l 435 546 l 390 228 l 371 0 l 167 0 l 203 207 l 239 546 l 213 546 l 64 538 l 53 553 l 85 706 l 626 706 l 636 690 l 606 538 m 335 -57 q 390 -169 390 -106 q 229 -400 390 -287 l 169 -347 l 168 -333 q 236 -210 236 -278 q 197 -129 236 -167 l 197 -114 q 335 -57 265 -74 z "},"ȷ":{"ha":453,"x_min":-10,"x_max":386,"o":"m 319 232 l 310 135 q 273 22 301 68 q 189 -59 244 -24 q 38 -128 133 -94 l -10 -21 l -8 -4 q 85 55 57 24 q 119 138 114 86 l 129 211 l 165 556 l 49 553 l 39 565 l 68 706 l 386 706 l 319 232 z "},"ˆ":{"ha":542,"x_min":104,"x_max":557,"o":"m 104 814 q 306 992 168 865 l 331 1014 l 374 1014 q 557 814 444 926 l 494 732 l 474 732 q 335 854 375 813 q 167 732 282 810 l 146 732 l 104 814 z "},"ˇ":{"ha":542,"x_min":118,"x_max":571,"o":"m 571 929 q 375 756 508 879 l 346 729 l 303 729 q 118 929 239 808 l 181 1010 l 201 1010 q 338 889 293 935 q 471 985 385 928 l 507 1010 l 529 1010 l 571 929 z "},"ˉ":{"ha":542,"x_min":132,"x_max":543,"o":"m 532 799 l 144 799 l 132 813 l 142 932 l 529 932 l 543 918 l 532 799 z "},"˘":{"ha":542,"x_min":121,"x_max":564,"o":"m 564 918 q 474 789 535 839 q 328 739 414 739 q 183 790 233 739 q 121 918 132 840 l 175 989 l 206 989 q 253 915 218 940 q 339 889 289 889 q 496 989 447 889 l 526 989 l 564 918 z "},"˙":{"ha":542,"x_min":226,"x_max":447,"o":"m 342 983 q 419 955 392 983 q 447 875 447 926 q 417 789 447 821 q 333 757 386 757 q 254 785 282 757 q 226 865 226 814 q 258 951 226 919 q 342 983 289 983 z "},"˚":{"ha":542,"x_min":200,"x_max":479,"o":"m 343 1022 q 479 889 479 1022 q 442 782 479 819 q 335 744 404 744 q 235 779 269 744 q 200 881 200 814 q 237 985 200 949 q 343 1022 274 1022 m 339 932 q 286 885 286 932 q 340 832 286 832 q 393 881 393 832 q 339 932 393 932 z "},"˛":{"ha":542,"x_min":69,"x_max":349,"o":"m 204 -46 q 182 -108 182 -82 q 233 -158 182 -158 q 322 -122 272 -158 l 333 -122 l 349 -207 q 201 -274 272 -274 q 106 -237 142 -274 q 69 -147 69 -201 q 111 -29 69 -86 l 203 97 l 299 97 l 204 -46 z "},"˜":{"ha":542,"x_min":82,"x_max":590,"o":"m 590 914 l 488 778 l 468 771 q 350 799 436 775 q 254 819 272 819 q 220 805 236 819 q 188 771 204 790 q 165 744 172 751 l 146 744 l 82 807 l 82 825 l 185 960 l 204 967 q 324 940 224 964 q 418 919 399 919 q 453 934 436 919 q 486 968 469 949 q 508 994 503 988 l 526 994 l 590 932 l 590 914 z "},"˝":{"ha":542,"x_min":85,"x_max":586,"o":"m 85 776 q 251 1025 181 915 l 267 1028 l 365 958 l 368 942 q 167 728 290 853 l 150 724 l 85 776 m 303 776 q 469 1025 399 915 l 485 1028 l 583 958 l 586 942 q 385 728 508 853 l 368 724 l 303 776 z "},"̃":{"ha":0,"x_min":82,"x_max":590,"o":"m 590 914 l 486 778 l 468 771 q 347 799 438 775 q 254 819 275 819 q 220 805 236 819 q 188 771 204 790 q 165 744 172 751 l 146 744 l 82 807 l 82 825 l 186 960 l 206 968 q 318 942 219 967 q 418 919 404 919 q 453 934 436 919 q 486 968 469 949 q 508 994 503 988 l 526 994 l 590 932 l 590 914 z "},"̣":{"ha":0,"x_min":97,"x_max":318,"o":"m 213 -67 q 290 -95 263 -67 q 318 -174 318 -124 q 288 -260 318 -228 q 204 -292 257 -292 q 125 -264 153 -292 q 97 -183 97 -236 q 128 -98 97 -129 q 213 -67 160 -67 z "},"̦":{"ha":0,"x_min":85,"x_max":307,"o":"m 251 -58 q 307 -171 307 -107 q 146 -401 307 -289 l 86 -349 l 85 -335 q 153 -211 153 -279 q 114 -131 153 -168 l 114 -115 q 251 -58 182 -75 z "},"Δ":{"ha":833,"x_min":-32,"x_max":775,"o":"m -32 0 l 364 896 l 628 896 l 775 0 l -32 0 m 238 164 l 540 164 l 474 693 l 458 693 l 238 164 z "},"Ω":{"ha":1036,"x_min":-11,"x_max":990,"o":"m 583 910 q 861 818 764 910 q 958 571 958 726 q 768 171 958 361 l 772 164 l 864 164 l 981 176 l 990 164 l 944 -10 l 779 0 l 581 0 l 529 -4 l 519 4 l 536 135 q 725 535 725 308 q 689 682 725 631 q 565 733 653 733 q 409 660 464 733 q 354 442 354 588 q 453 135 354 257 l 438 4 l 426 -4 l 376 0 l 140 0 l -1 -7 l -11 7 l 35 174 l 161 164 l 226 164 l 229 171 q 128 474 128 301 q 181 696 128 597 q 338 852 235 794 q 583 910 440 910 z "},"μ":{"ha":706,"x_min":1,"x_max":669,"o":"m 601 158 l 596 8 l 399 -6 l 428 213 l 413 213 q 232 -4 319 72 l 219 -6 l 206 -104 l 200 -256 l 1 -269 l 104 492 l 110 642 l 307 654 l 251 238 l 251 235 l 250 228 q 276 199 250 199 q 457 422 333 199 l 467 492 l 472 642 l 669 654 l 601 158 z "},"π":{"ha":953,"x_min":13,"x_max":940,"o":"m 751 186 q 750 171 750 181 q 774 142 750 142 q 818 151 789 142 l 831 140 l 794 25 q 683 -11 725 -11 q 589 20 625 -11 q 553 121 553 51 q 556 156 553 131 l 603 533 l 446 533 l 415 288 l 372 -122 l 163 -122 l 218 265 l 246 533 l 235 533 q 190 515 214 533 q 131 460 167 497 l 89 419 l 67 419 l 13 500 l 15 522 l 171 693 l 196 704 l 769 704 l 931 708 l 940 692 l 907 531 l 801 532 l 751 186 z "},"Ẁ":{"ha":1239,"x_min":96,"x_max":1306,"o":"m 685 0 l 621 390 l 608 390 l 450 0 l 215 0 l 96 896 l 311 896 l 310 775 l 369 225 l 383 225 l 569 682 l 539 896 l 764 896 l 765 753 l 833 225 l 846 225 l 1061 763 l 1101 896 l 1306 896 l 917 0 l 685 0 m 576 1251 q 874 1090 701 1176 l 839 1000 l 819 994 q 510 1099 636 1053 l 503 1118 l 557 1246 l 576 1251 z "},"ẁ":{"ha":1064,"x_min":82,"x_max":1100,"o":"m 569 0 l 519 268 l 508 268 l 397 0 l 178 0 l 82 706 l 282 706 l 281 599 l 321 210 l 333 210 l 471 540 l 450 706 l 660 706 l 660 578 l 708 210 l 721 210 l 875 588 l 910 706 l 1100 706 l 789 0 l 569 0 m 478 1078 q 739 861 601 968 l 689 781 l 669 779 q 385 939 563 838 l 381 960 l 458 1076 l 478 1078 z "},"Ẃ":{"ha":1239,"x_min":96,"x_max":1306,"o":"m 685 0 l 621 390 l 608 390 l 450 0 l 215 0 l 96 896 l 311 896 l 310 775 l 369 225 l 383 225 l 569 682 l 539 896 l 764 896 l 765 753 l 833 225 l 846 225 l 1061 763 l 1101 896 l 1306 896 l 917 0 l 685 0 m 882 1117 l 875 1097 q 565 993 754 1053 l 544 999 l 511 1088 q 807 1250 683 1176 l 826 1244 l 882 1117 z "},"ẃ":{"ha":1064,"x_min":82,"x_max":1100,"o":"m 569 0 l 519 268 l 508 268 l 397 0 l 178 0 l 82 706 l 282 706 l 281 599 l 321 210 l 333 210 l 471 540 l 450 706 l 660 706 l 660 578 l 708 210 l 721 210 l 875 588 l 910 706 l 1100 706 l 789 0 l 569 0 m 761 960 l 757 939 q 474 779 560 825 l 454 781 l 403 861 q 664 1078 554 979 l 685 1076 l 761 960 z "},"Ẅ":{"ha":1239,"x_min":96,"x_max":1306,"o":"m 685 0 l 621 390 l 608 390 l 450 0 l 215 0 l 96 896 l 311 896 l 310 775 l 369 225 l 383 225 l 569 682 l 539 896 l 764 896 l 765 753 l 833 225 l 846 225 l 1061 763 l 1101 896 l 1306 896 l 917 0 l 685 0 m 565 1211 q 633 1185 608 1211 q 658 1115 658 1160 q 631 1039 658 1067 q 557 1011 604 1011 q 487 1036 511 1011 q 463 1107 463 1061 q 490 1183 463 1156 q 565 1211 518 1211 m 818 1210 q 887 1185 863 1210 q 911 1115 911 1160 q 884 1038 911 1067 q 810 1010 857 1010 q 715 1107 715 1010 q 743 1183 715 1156 q 818 1210 771 1210 z "},"ẅ":{"ha":1064,"x_min":82,"x_max":1100,"o":"m 569 0 l 519 268 l 508 268 l 397 0 l 178 0 l 82 706 l 282 706 l 281 599 l 321 210 l 333 210 l 471 540 l 450 706 l 660 706 l 660 578 l 708 210 l 721 210 l 875 588 l 910 706 l 1100 706 l 789 0 l 569 0 m 460 1021 q 528 995 503 1021 q 553 925 553 969 q 526 849 553 876 q 451 821 499 821 q 381 846 406 821 q 357 917 357 871 q 385 993 357 965 q 460 1021 413 1021 m 713 1019 q 781 994 757 1019 q 806 925 806 969 q 778 848 806 876 q 704 819 751 819 q 610 917 610 819 q 638 992 610 965 q 713 1019 665 1019 z "},"ẞ":{"ha":938,"x_min":39,"x_max":911,"o":"m 549 910 q 724 886 642 910 q 906 813 807 863 l 911 783 l 701 531 q 824 445 782 479 q 888 371 865 411 q 910 275 910 331 q 863 118 910 183 q 737 19 815 53 q 565 -14 658 -14 q 328 42 435 -14 l 382 240 l 407 253 q 506 179 456 206 q 599 153 557 153 q 662 174 638 153 q 686 232 686 196 q 631 319 686 275 q 433 433 576 364 l 432 464 l 631 707 q 508 733 569 733 q 381 693 424 733 q 326 571 338 653 l 286 288 l 260 0 l 39 0 l 83 264 l 117 571 q 246 818 132 726 q 549 910 360 910 z "},"Ạ":{"ha":833,"x_min":-32,"x_max":775,"o":"m 553 0 l 546 128 l 539 183 l 382 186 l 246 182 l 228 140 l 185 0 l -32 0 l 364 896 l 628 896 l 775 0 l 553 0 m 474 693 l 460 693 l 315 350 l 415 347 l 518 349 l 474 693 m 367 -67 q 444 -95 417 -67 q 472 -174 472 -124 q 442 -260 472 -228 q 358 -292 411 -292 q 279 -264 307 -292 q 251 -183 251 -236 q 283 -98 251 -129 q 367 -67 314 -67 z "},"ạ":{"ha":736,"x_min":-22,"x_max":667,"o":"m 463 0 l 458 111 l 456 128 l 326 129 l 214 126 l 213 122 l 175 0 l -22 0 l 300 706 l 542 706 l 667 0 l 463 0 m 400 522 l 388 522 l 281 278 l 357 276 l 435 278 l 400 522 m 324 -67 q 401 -95 374 -67 q 429 -174 429 -124 q 399 -260 429 -228 q 315 -292 368 -292 q 236 -264 264 -292 q 208 -183 208 -236 q 240 -98 208 -129 q 324 -67 271 -67 z "},"Ả":{"ha":833,"x_min":-32,"x_max":775,"o":"m 553 0 l 546 128 l 539 183 l 382 186 l 246 182 l 228 140 l 185 0 l -32 0 l 364 896 l 628 896 l 775 0 l 553 0 m 474 693 l 460 693 l 315 350 l 415 347 l 518 349 l 474 693 m 486 1292 q 572 1262 538 1292 q 607 1185 607 1232 q 590 1131 607 1157 q 528 1065 572 1106 l 561 1010 l 486 965 l 422 1064 q 476 1116 456 1089 q 496 1164 496 1143 q 456 1196 496 1196 q 364 1161 407 1196 l 329 1217 q 403 1272 363 1251 q 486 1292 444 1292 z "},"ả":{"ha":736,"x_min":-22,"x_max":667,"o":"m 463 0 l 458 111 l 456 128 l 326 129 l 214 126 l 213 122 l 175 0 l -22 0 l 300 706 l 542 706 l 667 0 l 463 0 m 400 522 l 388 522 l 281 278 l 357 276 l 435 278 l 400 522 m 410 1101 q 496 1072 461 1101 q 531 994 531 1042 q 513 941 531 967 q 451 875 496 915 l 485 819 l 410 775 l 346 874 q 399 926 379 899 q 419 974 419 953 q 379 1006 419 1006 q 288 971 331 1006 l 253 1026 q 327 1081 286 1061 q 410 1101 368 1101 z "},"Ấ":{"ha":833,"x_min":-32,"x_max":825,"o":"m 553 0 l 546 128 l 539 183 l 382 186 l 246 182 l 228 140 l 185 0 l -32 0 l 364 896 l 628 896 l 775 0 l 553 0 m 474 693 l 460 693 l 315 350 l 415 347 l 518 349 l 474 693 m 825 1349 l 685 1165 l 672 1165 l 600 1219 l 697 1404 l 711 1411 l 819 1364 l 825 1349 m 543 1217 q 729 1065 619 1146 l 681 981 l 660 981 q 569 1035 628 999 l 517 1067 l 425 1019 q 347 981 372 994 l 326 981 l 297 1065 q 501 1217 414 1143 l 543 1217 z "},"ấ":{"ha":736,"x_min":-22,"x_max":750,"o":"m 463 0 l 458 111 l 456 128 l 326 129 l 214 126 l 213 122 l 175 0 l -22 0 l 300 706 l 542 706 l 667 0 l 463 0 m 400 522 l 388 522 l 281 278 l 357 276 l 435 278 l 400 522 m 750 1158 l 610 975 l 597 975 l 525 1029 l 622 1214 l 636 1221 l 744 1174 l 750 1158 m 468 1026 q 654 875 544 956 l 606 790 l 585 790 q 494 844 553 808 l 442 876 l 350 829 q 272 790 297 804 l 251 790 l 222 875 q 426 1026 339 953 l 468 1026 z "},"Ầ":{"ha":833,"x_min":-32,"x_max":775,"o":"m 553 0 l 546 128 l 539 183 l 382 186 l 246 182 l 228 140 l 185 0 l -32 0 l 364 896 l 628 896 l 775 0 l 553 0 m 474 693 l 460 693 l 315 350 l 415 347 l 518 349 l 474 693 m 749 1219 l 678 1165 l 664 1165 l 525 1349 l 529 1364 l 638 1411 l 651 1404 l 749 1219 m 540 1215 q 725 1064 614 1146 l 676 979 l 656 979 l 513 1065 l 421 1018 q 343 979 368 993 l 322 979 l 294 1064 q 499 1215 411 1142 l 540 1215 z "},"ầ":{"ha":736,"x_min":-22,"x_max":674,"o":"m 463 0 l 458 111 l 456 128 l 326 129 l 214 126 l 213 122 l 175 0 l -22 0 l 300 706 l 542 706 l 667 0 l 463 0 m 400 522 l 388 522 l 281 278 l 357 276 l 435 278 l 400 522 m 674 1029 l 603 975 l 589 975 l 450 1158 l 454 1174 l 563 1221 l 576 1214 l 674 1029 m 465 1025 q 650 874 539 956 l 601 789 l 581 789 l 438 875 l 346 828 q 268 789 293 803 l 247 789 l 219 874 q 424 1025 336 951 l 465 1025 z "},"Ẩ":{"ha":833,"x_min":-32,"x_max":775,"o":"m 553 0 l 546 128 l 539 183 l 382 186 l 246 182 l 228 140 l 185 0 l -32 0 l 364 896 l 628 896 l 775 0 l 553 0 m 474 693 l 460 693 l 315 350 l 415 347 l 518 349 l 474 693 m 654 1475 q 736 1446 703 1475 q 769 1372 769 1417 q 753 1323 769 1347 q 693 1260 736 1299 l 725 1207 l 653 1164 l 592 1258 q 642 1307 624 1281 q 661 1354 661 1333 q 624 1385 661 1385 q 536 1350 582 1385 l 504 1403 q 654 1475 569 1475 m 540 1217 q 725 1065 614 1147 l 676 981 l 656 981 l 513 1067 l 421 1019 q 343 981 368 994 l 322 981 l 293 1065 q 499 1217 407 1140 l 540 1217 z "},"ẩ":{"ha":736,"x_min":-22,"x_max":694,"o":"m 463 0 l 458 111 l 456 128 l 326 129 l 214 126 l 213 122 l 175 0 l -22 0 l 300 706 l 542 706 l 667 0 l 463 0 m 400 522 l 388 522 l 281 278 l 357 276 l 435 278 l 400 522 m 579 1285 q 661 1256 628 1285 q 694 1182 694 1226 q 678 1133 694 1157 q 618 1069 661 1108 l 650 1017 l 578 974 l 517 1068 q 567 1117 549 1090 q 586 1164 586 1143 q 549 1194 586 1194 q 461 1160 507 1194 l 429 1213 q 579 1285 494 1285 m 465 1026 q 650 875 539 957 l 601 790 l 581 790 l 438 876 l 346 829 q 268 790 293 804 l 247 790 l 218 875 q 424 1026 332 950 l 465 1026 z "},"Ẫ":{"ha":833,"x_min":-32,"x_max":796,"o":"m 553 0 l 546 128 l 539 183 l 382 186 l 246 182 l 228 140 l 185 0 l -32 0 l 364 896 l 628 896 l 775 0 l 553 0 m 474 693 l 460 693 l 315 350 l 415 347 l 518 349 l 474 693 m 796 1374 l 701 1247 l 685 1242 q 572 1267 653 1246 q 488 1286 510 1286 q 453 1271 468 1286 q 406 1217 438 1256 l 389 1217 l 331 1275 l 331 1292 l 425 1417 l 442 1424 q 546 1399 465 1421 q 639 1378 618 1378 q 671 1392 656 1378 q 701 1424 686 1406 q 721 1449 717 1443 l 739 1449 l 796 1390 l 796 1374 m 551 1218 q 738 1067 628 1143 l 689 981 l 668 981 q 586 1031 639 997 l 525 1068 l 356 981 l 335 981 l 306 1067 q 510 1218 421 1142 l 551 1218 z "},"ẫ":{"ha":736,"x_min":-22,"x_max":719,"o":"m 463 0 l 458 111 l 456 128 l 326 129 l 214 126 l 213 122 l 175 0 l -22 0 l 300 706 l 542 706 l 667 0 l 463 0 m 400 522 l 388 522 l 281 278 l 357 276 l 435 278 l 400 522 m 719 1183 l 625 1057 l 608 1051 q 496 1076 576 1056 q 411 1096 433 1096 q 376 1081 392 1096 q 329 1026 361 1065 l 313 1026 l 254 1085 l 254 1101 l 349 1226 l 365 1233 q 469 1208 389 1231 q 563 1188 542 1188 q 594 1201 579 1188 q 625 1234 610 1215 q 644 1258 640 1253 l 663 1258 l 719 1200 l 719 1183 m 475 1028 q 661 876 551 953 l 613 790 l 592 790 q 510 840 563 807 l 449 878 l 279 790 l 258 790 l 229 876 q 433 1028 344 951 l 475 1028 z "},"Ậ":{"ha":833,"x_min":-31,"x_max":776,"o":"m 301 1092 q 507 1243 415 1167 l 549 1243 q 733 1092 622 1174 l 685 1007 l 664 1007 l 521 1093 l 429 1046 q 351 1007 376 1021 l 331 1007 l 301 1092 m 553 0 l 546 128 l 539 183 l 382 186 l 246 182 l 228 140 l 186 0 l -31 0 l 365 896 l 629 896 l 776 0 l 553 0 m 475 693 l 461 693 l 317 350 l 415 347 l 518 349 l 475 693 m 367 -67 q 444 -95 417 -67 q 472 -174 472 -124 q 442 -260 472 -228 q 358 -292 411 -292 q 279 -264 307 -292 q 251 -183 251 -236 q 283 -98 251 -129 q 367 -67 314 -67 z "},"ậ":{"ha":736,"x_min":-21,"x_max":668,"o":"m 214 871 q 415 1049 278 922 l 440 1071 l 483 1071 q 667 871 554 983 l 604 789 l 583 789 q 444 911 485 869 q 276 789 392 867 l 256 789 l 214 871 m 464 0 l 460 111 l 457 128 l 326 129 l 214 126 l 213 122 l 176 0 l -21 0 l 301 706 l 543 706 l 668 0 l 464 0 m 401 522 l 389 522 l 281 278 l 357 276 l 436 278 l 401 522 m 324 -67 q 401 -95 374 -67 q 429 -174 429 -124 q 399 -260 429 -228 q 315 -292 368 -292 q 236 -264 264 -292 q 208 -183 208 -236 q 240 -98 208 -129 q 324 -67 271 -67 z "},"Ắ":{"ha":833,"x_min":-32,"x_max":775,"o":"m 553 0 l 546 128 l 539 183 l 382 186 l 246 182 l 228 140 l 185 0 l -32 0 l 364 896 l 628 896 l 775 0 l 553 0 m 474 693 l 460 693 l 315 350 l 415 347 l 518 349 l 474 693 m 692 1335 q 528 1181 601 1247 l 510 1175 l 444 1228 q 575 1411 501 1304 l 590 1415 l 689 1351 l 692 1335 m 743 1128 q 514 971 669 971 q 374 1011 431 971 q 299 1128 318 1051 l 354 1194 l 385 1194 q 437 1140 400 1158 q 522 1121 474 1121 q 674 1194 626 1121 l 704 1194 l 743 1128 z "},"ắ":{"ha":736,"x_min":-22,"x_max":668,"o":"m 463 0 l 458 111 l 456 128 l 326 129 l 214 126 l 213 122 l 175 0 l -22 0 l 300 706 l 542 706 l 667 0 l 463 0 m 400 522 l 388 522 l 281 278 l 357 276 l 435 278 l 400 522 m 617 1144 q 453 990 526 1057 l 435 985 l 369 1038 q 500 1221 426 1114 l 515 1225 l 614 1161 l 617 1144 m 668 938 q 439 781 594 781 q 299 821 356 781 q 224 938 243 861 l 279 1004 l 310 1004 q 362 949 325 968 q 447 931 399 931 q 599 1004 551 931 l 629 1004 l 668 938 z "},"Ằ":{"ha":833,"x_min":-32,"x_max":775,"o":"m 553 0 l 546 128 l 539 183 l 382 186 l 246 182 l 228 140 l 185 0 l -32 0 l 364 896 l 628 896 l 775 0 l 553 0 m 474 693 l 460 693 l 315 350 l 415 347 l 518 349 l 474 693 m 517 1181 q 353 1335 443 1247 l 356 1351 l 454 1415 l 469 1411 q 600 1228 543 1304 l 535 1175 l 517 1181 m 743 1126 q 514 971 672 971 q 374 1011 431 971 q 299 1126 318 1051 l 354 1194 l 385 1194 q 438 1139 401 1158 q 524 1119 474 1119 q 675 1194 624 1119 l 706 1194 l 743 1126 z "},"ằ":{"ha":736,"x_min":-22,"x_max":668,"o":"m 463 0 l 458 111 l 456 128 l 326 129 l 214 126 l 213 122 l 175 0 l -22 0 l 300 706 l 542 706 l 667 0 l 463 0 m 400 522 l 388 522 l 281 278 l 357 276 l 435 278 l 400 522 m 442 990 q 278 1144 368 1057 l 281 1161 l 379 1225 l 394 1221 q 525 1038 468 1114 l 460 985 l 442 990 m 668 936 q 439 781 597 781 q 299 821 356 781 q 224 936 243 861 l 279 1004 l 310 1004 q 363 949 326 968 q 449 929 399 929 q 600 1004 549 929 l 631 1004 l 668 936 z "},"Ẳ":{"ha":833,"x_min":-32,"x_max":775,"o":"m 553 0 l 546 128 l 539 183 l 382 186 l 246 182 l 228 140 l 185 0 l -32 0 l 364 896 l 628 896 l 775 0 l 553 0 m 474 693 l 460 693 l 315 350 l 415 347 l 518 349 l 474 693 m 514 1494 q 600 1465 565 1494 q 635 1388 635 1435 q 617 1333 635 1358 q 556 1268 600 1307 l 589 1213 l 514 1168 l 450 1267 q 503 1319 483 1292 q 524 1367 524 1346 q 483 1399 524 1399 q 392 1364 435 1399 l 357 1419 q 431 1474 390 1454 q 514 1494 472 1494 m 743 1128 q 514 972 669 972 q 374 1013 431 972 q 299 1128 318 1053 l 354 1196 l 385 1196 q 437 1140 400 1160 q 522 1121 474 1121 q 674 1196 625 1121 l 704 1196 l 743 1128 z "},"ẳ":{"ha":736,"x_min":-22,"x_max":668,"o":"m 463 0 l 458 111 l 456 128 l 326 129 l 214 126 l 213 122 l 175 0 l -22 0 l 300 706 l 542 706 l 667 0 l 463 0 m 400 522 l 388 522 l 281 278 l 357 276 l 435 278 l 400 522 m 439 1304 q 525 1274 490 1304 q 560 1197 560 1244 q 542 1142 560 1168 q 481 1078 525 1117 l 514 1022 l 439 978 l 375 1076 q 428 1128 408 1101 q 449 1176 449 1156 q 408 1208 449 1208 q 317 1174 360 1208 l 282 1229 q 356 1284 315 1264 q 439 1304 397 1304 m 668 938 q 439 782 594 782 q 299 822 356 782 q 224 938 243 863 l 279 1006 l 310 1006 q 362 950 325 969 q 447 931 399 931 q 599 1006 550 931 l 629 1006 l 668 938 z "},"Ẵ":{"ha":833,"x_min":-32,"x_max":788,"o":"m 553 0 l 546 128 l 539 183 l 382 186 l 246 182 l 228 140 l 185 0 l -32 0 l 364 896 l 628 896 l 775 0 l 553 0 m 474 693 l 460 693 l 315 350 l 415 347 l 518 349 l 474 693 m 788 1378 l 694 1251 l 676 1246 q 565 1272 638 1251 q 479 1292 493 1292 q 449 1278 464 1292 q 419 1247 435 1265 q 397 1221 404 1229 l 381 1221 l 322 1279 l 322 1296 l 417 1421 l 435 1428 q 536 1403 460 1424 q 631 1382 611 1382 q 662 1394 647 1382 q 692 1426 676 1407 q 714 1453 707 1444 l 731 1453 l 788 1394 l 788 1378 m 725 1118 q 508 971 656 971 q 377 1009 431 971 q 304 1118 324 1047 l 358 1181 l 386 1181 q 517 1111 418 1111 q 660 1181 614 1111 l 689 1181 l 725 1118 z "},"ẵ":{"ha":736,"x_min":-22,"x_max":713,"o":"m 463 0 l 458 111 l 456 128 l 326 129 l 214 126 l 213 122 l 175 0 l -22 0 l 300 706 l 542 706 l 667 0 l 463 0 m 400 522 l 388 522 l 281 278 l 357 276 l 435 278 l 400 522 m 713 1188 l 619 1061 l 601 1056 q 490 1082 563 1061 q 404 1101 418 1101 q 374 1088 389 1101 q 344 1057 360 1075 q 322 1031 329 1039 l 306 1031 l 247 1089 l 247 1106 l 342 1231 l 360 1238 q 461 1213 385 1233 q 556 1192 536 1192 q 587 1204 572 1192 q 617 1235 601 1217 q 639 1263 632 1254 l 656 1263 l 713 1204 l 713 1188 m 650 928 q 433 781 581 781 q 302 819 356 781 q 229 928 249 857 l 283 990 l 311 990 q 442 921 343 921 q 585 990 539 921 l 614 990 l 650 928 z "},"Ặ":{"ha":833,"x_min":-31,"x_max":776,"o":"m 510 999 q 370 1039 426 999 q 294 1156 314 1079 l 350 1222 l 381 1222 q 519 1149 414 1149 q 671 1222 621 1149 l 701 1222 l 739 1156 q 510 999 668 999 m 553 0 l 546 128 l 539 183 l 382 186 l 246 182 l 228 140 l 186 0 l -31 0 l 365 896 l 629 896 l 776 0 l 553 0 m 475 693 l 461 693 l 317 350 l 415 347 l 518 349 l 475 693 m 367 -67 q 444 -95 417 -67 q 472 -174 472 -124 q 442 -260 472 -228 q 358 -292 411 -292 q 279 -264 307 -292 q 251 -183 251 -236 q 283 -98 251 -129 q 367 -67 314 -67 z "},"ặ":{"ha":736,"x_min":-21,"x_max":668,"o":"m 424 796 q 278 847 329 796 q 217 975 228 897 l 271 1046 l 301 1046 q 349 972 314 997 q 435 946 385 946 q 592 1046 543 946 l 622 1046 l 660 975 q 570 846 631 896 q 424 796 510 796 m 464 0 l 460 111 l 457 128 l 326 129 l 214 126 l 213 122 l 176 0 l -21 0 l 301 706 l 543 706 l 668 0 l 464 0 m 401 522 l 389 522 l 281 278 l 357 276 l 436 278 l 401 522 m 324 -67 q 401 -95 374 -67 q 429 -174 429 -124 q 399 -260 429 -228 q 315 -292 368 -292 q 236 -264 264 -292 q 208 -183 208 -236 q 240 -98 208 -129 q 324 -67 271 -67 z "},"Ẹ":{"ha":714,"x_min":58,"x_max":767,"o":"m 342 539 l 486 538 l 629 542 l 640 526 l 606 364 l 450 368 l 317 367 l 306 286 l 294 172 l 440 171 l 661 179 l 671 163 l 638 0 l 58 0 l 101 265 l 169 896 l 756 896 l 767 879 l 731 717 l 519 724 l 368 722 l 342 539 m 383 -67 q 461 -95 433 -67 q 489 -174 489 -124 q 458 -260 489 -228 q 375 -292 428 -292 q 296 -264 324 -292 q 268 -183 268 -236 q 299 -98 268 -129 q 383 -67 331 -67 z "},"ẹ":{"ha":639,"x_min":50,"x_max":656,"o":"m 306 435 l 424 433 l 543 438 l 553 424 l 522 272 l 390 276 l 282 275 l 275 228 l 268 158 l 383 158 l 572 164 l 583 150 l 551 0 l 50 0 l 86 207 l 138 706 l 646 706 l 656 690 l 624 540 l 446 547 l 321 547 l 306 435 m 308 -67 q 386 -95 358 -67 q 414 -174 414 -124 q 383 -260 414 -228 q 300 -292 353 -292 q 221 -264 249 -292 q 193 -183 193 -236 q 224 -98 193 -129 q 308 -67 256 -67 z "},"Ẻ":{"ha":714,"x_min":58,"x_max":767,"o":"m 342 539 l 486 538 l 629 542 l 640 526 l 606 364 l 450 368 l 317 367 l 306 286 l 294 172 l 440 171 l 661 179 l 671 163 l 638 0 l 58 0 l 101 265 l 169 896 l 756 896 l 767 879 l 731 717 l 519 724 l 368 722 l 342 539 m 450 1292 q 536 1262 501 1292 q 571 1185 571 1232 q 553 1131 571 1157 q 492 1065 536 1106 l 525 1010 l 450 965 l 386 1064 q 440 1116 419 1089 q 460 1164 460 1143 q 419 1196 460 1196 q 328 1161 371 1196 l 293 1217 q 367 1272 326 1251 q 450 1292 408 1292 z "},"ẻ":{"ha":639,"x_min":50,"x_max":656,"o":"m 306 435 l 424 433 l 543 438 l 553 424 l 522 272 l 390 276 l 282 275 l 275 228 l 268 158 l 383 158 l 572 164 l 583 150 l 551 0 l 50 0 l 86 207 l 138 706 l 646 706 l 656 690 l 624 540 l 446 547 l 321 547 l 306 435 m 371 1101 q 457 1072 422 1101 q 492 994 492 1042 q 474 941 492 967 q 413 875 457 915 l 446 819 l 371 775 l 307 874 q 360 926 340 899 q 381 974 381 953 q 340 1006 381 1006 q 249 971 292 1006 l 214 1026 q 288 1081 247 1061 q 371 1101 329 1101 z "},"Ẽ":{"ha":714,"x_min":58,"x_max":767,"o":"m 342 539 l 486 538 l 629 542 l 640 526 l 606 364 l 450 368 l 317 367 l 306 286 l 294 172 l 440 171 l 661 179 l 671 163 l 638 0 l 58 0 l 101 265 l 169 896 l 756 896 l 767 879 l 731 717 l 519 724 l 368 722 l 342 539 m 735 1161 l 632 1025 l 613 1018 q 494 1046 581 1022 q 399 1067 417 1067 q 365 1052 381 1067 q 333 1018 349 1038 q 310 992 317 999 l 290 992 l 226 1054 l 226 1072 l 329 1207 l 349 1214 q 468 1188 368 1211 q 563 1167 543 1167 q 597 1181 581 1167 q 631 1215 614 1196 q 653 1242 647 1235 l 671 1242 l 735 1179 l 735 1161 z "},"ẽ":{"ha":639,"x_min":50,"x_max":656,"o":"m 306 435 l 424 433 l 543 438 l 553 424 l 522 272 l 390 276 l 282 275 l 275 228 l 268 158 l 383 158 l 572 164 l 583 150 l 551 0 l 50 0 l 86 207 l 138 706 l 646 706 l 656 690 l 624 540 l 446 547 l 321 547 l 306 435 m 656 971 l 553 835 l 533 828 q 415 856 501 832 q 319 876 338 876 q 285 862 301 876 q 253 828 269 847 q 231 801 238 808 l 211 801 l 147 864 l 147 882 l 250 1017 l 269 1024 q 389 997 289 1021 q 483 976 464 976 q 518 991 501 976 q 551 1025 535 1006 q 574 1051 568 1044 l 592 1051 l 656 989 l 656 971 z "},"Ế":{"ha":714,"x_min":58,"x_max":790,"o":"m 342 539 l 486 538 l 629 542 l 640 526 l 606 364 l 450 368 l 317 367 l 306 286 l 294 172 l 440 171 l 661 179 l 671 163 l 638 0 l 58 0 l 101 265 l 169 896 l 756 896 l 767 879 l 731 717 l 519 724 l 368 722 l 342 539 m 790 1349 l 650 1165 l 638 1165 l 565 1219 l 663 1404 l 676 1411 l 785 1364 l 790 1349 m 508 1217 q 694 1065 585 1146 l 646 981 l 625 981 q 535 1035 593 999 l 482 1067 l 390 1019 q 313 981 338 994 l 292 981 l 263 1065 q 467 1217 379 1143 l 508 1217 z "},"ế":{"ha":639,"x_min":50,"x_max":711,"o":"m 306 435 l 424 433 l 543 438 l 553 424 l 522 272 l 390 276 l 282 275 l 275 228 l 268 158 l 383 158 l 572 164 l 583 150 l 551 0 l 50 0 l 86 207 l 138 706 l 646 706 l 656 690 l 624 540 l 446 547 l 321 547 l 306 435 m 711 1158 l 571 975 l 558 975 l 486 1029 l 583 1214 l 597 1221 l 706 1174 l 711 1158 m 429 1026 q 615 875 506 956 l 567 790 l 546 790 q 456 844 514 808 l 403 876 l 311 829 q 233 790 258 804 l 213 790 l 183 875 q 388 1026 300 953 l 429 1026 z "},"Ề":{"ha":714,"x_min":58,"x_max":767,"o":"m 342 539 l 486 538 l 629 542 l 640 526 l 606 364 l 450 368 l 317 367 l 306 286 l 294 172 l 440 171 l 661 179 l 671 163 l 638 0 l 58 0 l 101 265 l 169 896 l 756 896 l 767 879 l 731 717 l 519 724 l 368 722 l 342 539 m 714 1219 l 643 1165 l 629 1165 l 490 1349 l 494 1364 l 603 1411 l 617 1404 l 714 1219 m 506 1215 q 690 1064 579 1146 l 642 979 l 621 979 l 478 1065 l 386 1018 q 308 979 333 993 l 288 979 l 260 1064 q 464 1215 376 1142 l 506 1215 z "},"ề":{"ha":639,"x_min":50,"x_max":656,"o":"m 306 435 l 424 433 l 543 438 l 553 424 l 522 272 l 390 276 l 282 275 l 275 228 l 268 158 l 383 158 l 572 164 l 583 150 l 551 0 l 50 0 l 86 207 l 138 706 l 646 706 l 656 690 l 624 540 l 446 547 l 321 547 l 306 435 m 635 1029 l 564 975 l 550 975 l 411 1158 l 415 1174 l 524 1221 l 538 1214 l 635 1029 m 426 1025 q 611 874 500 956 l 563 789 l 542 789 l 399 875 l 307 828 q 229 789 254 803 l 208 789 l 181 874 q 385 1025 297 951 l 426 1025 z "},"Ể":{"ha":714,"x_min":58,"x_max":767,"o":"m 342 539 l 486 538 l 629 542 l 640 526 l 606 364 l 450 368 l 317 367 l 306 286 l 294 172 l 440 171 l 661 179 l 671 163 l 638 0 l 58 0 l 101 265 l 169 896 l 756 896 l 767 879 l 731 717 l 519 724 l 368 722 l 342 539 m 619 1475 q 701 1446 668 1475 q 735 1372 735 1417 q 718 1323 735 1347 q 658 1260 701 1299 l 690 1207 l 618 1164 l 557 1258 q 608 1307 589 1281 q 626 1354 626 1333 q 589 1385 626 1385 q 501 1350 547 1385 l 469 1403 q 619 1475 535 1475 m 506 1217 q 690 1065 579 1147 l 642 981 l 621 981 l 478 1067 l 386 1019 q 308 981 333 994 l 288 981 l 258 1065 q 464 1217 372 1140 l 506 1217 z "},"ể":{"ha":639,"x_min":50,"x_max":656,"o":"m 306 435 l 424 433 l 543 438 l 553 424 l 522 272 l 390 276 l 282 275 l 275 228 l 268 158 l 383 158 l 572 164 l 583 150 l 551 0 l 50 0 l 86 207 l 138 706 l 646 706 l 656 690 l 624 540 l 446 547 l 321 547 l 306 435 m 540 1285 q 622 1256 589 1285 q 656 1182 656 1226 q 639 1133 656 1157 q 579 1069 622 1108 l 611 1017 l 539 974 l 478 1068 q 528 1117 510 1090 q 547 1164 547 1143 q 510 1194 547 1194 q 422 1160 468 1194 l 390 1213 q 540 1285 456 1285 m 426 1026 q 611 875 500 957 l 563 790 l 542 790 l 399 876 l 307 829 q 229 790 254 804 l 208 790 l 179 875 q 385 1026 293 950 l 426 1026 z "},"Ễ":{"ha":714,"x_min":58,"x_max":767,"o":"m 342 539 l 486 538 l 629 542 l 640 526 l 606 364 l 450 368 l 317 367 l 306 286 l 294 172 l 440 171 l 661 179 l 671 163 l 638 0 l 58 0 l 101 265 l 169 896 l 756 896 l 767 879 l 731 717 l 519 724 l 368 722 l 342 539 m 714 1219 l 643 1165 l 629 1165 l 490 1349 l 494 1364 l 603 1411 l 617 1404 l 714 1219 m 506 1215 q 690 1064 579 1146 l 642 979 l 621 979 l 478 1065 l 386 1018 q 308 979 333 993 l 288 979 l 260 1064 q 464 1215 376 1142 l 506 1215 z "},"ễ":{"ha":639,"x_min":50,"x_max":682,"o":"m 306 435 l 424 433 l 543 438 l 553 424 l 522 272 l 390 276 l 282 275 l 275 228 l 268 158 l 383 158 l 572 164 l 583 150 l 551 0 l 50 0 l 86 207 l 138 706 l 646 706 l 656 690 l 624 540 l 446 547 l 321 547 l 306 435 m 682 1183 l 588 1057 l 571 1051 q 458 1076 539 1056 q 374 1096 396 1096 q 339 1081 354 1096 q 292 1026 324 1065 l 275 1026 l 217 1085 l 217 1101 l 311 1226 l 328 1233 q 432 1208 351 1231 q 525 1188 504 1188 q 557 1201 542 1188 q 588 1234 572 1215 q 607 1258 603 1253 l 625 1258 l 682 1200 l 682 1183 m 438 1028 q 624 876 514 953 l 575 790 l 554 790 q 472 840 525 807 l 411 878 l 242 790 l 221 790 l 192 876 q 396 1028 307 951 l 438 1028 z "},"Ệ":{"ha":714,"x_min":58,"x_max":767,"o":"m 342 539 l 486 538 l 629 542 l 640 526 l 606 364 l 450 368 l 317 367 l 306 286 l 294 172 l 440 171 l 661 179 l 671 163 l 638 0 l 58 0 l 101 265 l 169 896 l 756 896 l 767 879 l 731 717 l 519 724 l 368 722 l 342 539 m 383 -67 q 461 -95 433 -67 q 489 -174 489 -124 q 458 -260 489 -228 q 375 -292 428 -292 q 296 -264 324 -292 q 268 -183 268 -236 q 299 -98 268 -129 q 383 -67 331 -67 m 267 1092 q 472 1243 381 1167 l 514 1243 q 699 1092 588 1174 l 650 1007 l 629 1007 l 486 1093 l 394 1046 q 317 1007 342 1021 l 296 1007 l 267 1092 z "},"ệ":{"ha":639,"x_min":50,"x_max":656,"o":"m 306 435 l 424 433 l 543 438 l 553 424 l 522 272 l 390 276 l 282 275 l 275 228 l 268 158 l 383 158 l 572 164 l 583 150 l 551 0 l 50 0 l 86 207 l 138 706 l 646 706 l 656 690 l 624 540 l 446 547 l 321 547 l 306 435 m 308 -67 q 386 -95 358 -67 q 414 -174 414 -124 q 383 -260 414 -228 q 300 -292 353 -292 q 221 -264 249 -292 q 193 -183 193 -236 q 224 -98 193 -129 q 308 -67 256 -67 m 176 871 q 378 1049 240 922 l 403 1071 l 446 1071 q 629 871 517 983 l 567 789 l 546 789 q 407 911 447 869 q 239 789 354 867 l 218 789 l 176 871 z "},"Ỉ":{"ha":422,"x_min":58,"x_max":396,"o":"m 279 0 l 58 0 l 103 265 l 169 896 l 393 896 l 304 286 l 279 0 m 275 1292 q 361 1262 326 1292 q 396 1185 396 1232 q 378 1131 396 1157 q 317 1065 361 1106 l 350 1010 l 275 965 l 211 1064 q 265 1116 244 1089 q 285 1164 285 1143 q 244 1196 285 1196 q 153 1161 196 1196 l 118 1217 q 192 1272 151 1251 q 275 1292 233 1292 z "},"ỉ":{"ha":399,"x_min":51,"x_max":353,"o":"m 256 0 l 51 0 l 86 207 l 139 706 l 346 706 l 275 228 l 256 0 m 232 1101 q 318 1072 283 1101 q 353 994 353 1042 q 335 941 353 967 q 274 875 318 915 l 307 819 l 232 775 l 168 874 q 222 926 201 899 q 242 974 242 953 q 201 1006 242 1006 q 110 971 153 1006 l 75 1026 q 149 1081 108 1061 q 232 1101 190 1101 z "},"Ị":{"ha":422,"x_min":43,"x_max":393,"o":"m 279 0 l 58 0 l 103 265 l 169 896 l 393 896 l 304 286 l 279 0 m 158 -67 q 236 -95 208 -67 q 264 -174 264 -124 q 233 -260 264 -228 q 150 -292 203 -292 q 71 -264 99 -292 q 43 -183 43 -236 q 74 -98 43 -129 q 158 -67 106 -67 z "},"ị":{"ha":399,"x_min":29,"x_max":346,"o":"m 256 0 l 51 0 l 86 207 l 139 706 l 346 706 l 275 228 l 256 0 m 144 -67 q 222 -95 194 -67 q 250 -174 250 -124 q 219 -260 250 -228 q 136 -292 189 -292 q 57 -264 85 -292 q 29 -183 29 -236 q 60 -98 29 -129 q 144 -67 92 -67 z "},"Ọ":{"ha":892,"x_min":44,"x_max":879,"o":"m 518 910 q 785 813 690 910 q 879 528 879 717 q 824 244 879 367 q 661 53 768 121 q 404 -15 554 -15 q 139 83 233 -15 q 44 372 44 182 q 99 655 44 533 q 261 843 154 776 q 518 910 368 910 m 493 732 q 329 651 385 732 q 274 374 274 569 q 308 202 274 253 q 426 151 342 151 q 590 233 535 151 q 646 513 646 315 q 612 682 646 632 q 493 732 578 732 m 428 -67 q 506 -95 478 -67 q 533 -174 533 -124 q 503 -260 533 -228 q 419 -292 472 -292 q 340 -264 368 -292 q 313 -183 313 -236 q 344 -98 313 -129 q 428 -67 375 -67 z "},"ọ":{"ha":775,"x_min":36,"x_max":744,"o":"m 436 717 q 665 639 585 717 q 744 404 744 561 q 697 188 744 283 q 560 40 650 93 q 346 -14 469 -14 q 117 65 197 -14 q 36 304 36 144 q 83 519 36 425 q 221 665 131 613 q 436 717 311 717 m 411 554 q 290 501 329 554 q 250 308 250 447 q 261 207 250 243 q 298 156 272 171 q 371 142 324 142 q 491 196 451 142 q 531 388 531 250 q 519 488 531 451 q 483 539 508 524 q 411 554 458 554 m 363 -67 q 440 -95 413 -67 q 468 -174 468 -124 q 438 -260 468 -228 q 354 -292 407 -292 q 275 -264 303 -292 q 247 -183 247 -236 q 278 -98 247 -129 q 363 -67 310 -67 z "},"Ỏ":{"ha":892,"x_min":44,"x_max":879,"o":"m 518 910 q 785 813 690 910 q 879 528 879 717 q 824 244 879 367 q 661 53 768 121 q 404 -15 554 -15 q 139 83 233 -15 q 44 372 44 182 q 99 655 44 533 q 261 843 154 776 q 518 910 368 910 m 493 732 q 329 651 385 732 q 274 374 274 569 q 308 202 274 253 q 426 151 342 151 q 590 233 535 151 q 646 513 646 315 q 612 682 646 632 q 493 732 578 732 m 511 1292 q 597 1262 563 1292 q 632 1185 632 1232 q 615 1131 632 1157 q 553 1065 597 1106 l 586 1010 l 511 965 l 447 1064 q 501 1116 481 1089 q 521 1164 521 1143 q 481 1196 521 1196 q 389 1161 432 1196 l 354 1217 q 428 1272 388 1251 q 511 1292 469 1292 z "},"ỏ":{"ha":775,"x_min":36,"x_max":744,"o":"m 436 717 q 665 639 585 717 q 744 404 744 561 q 697 188 744 283 q 560 40 650 93 q 346 -14 469 -14 q 117 65 197 -14 q 36 304 36 144 q 83 519 36 425 q 221 665 131 613 q 436 717 311 717 m 411 554 q 290 501 329 554 q 250 308 250 447 q 261 207 250 243 q 298 156 272 171 q 371 142 324 142 q 491 196 451 142 q 531 388 531 250 q 519 488 531 451 q 483 539 508 524 q 411 554 458 554 m 424 1101 q 510 1072 475 1101 q 544 994 544 1042 q 527 941 544 967 q 465 875 510 915 l 499 819 l 424 775 l 360 874 q 413 926 393 899 q 433 974 433 953 q 393 1006 433 1006 q 301 971 344 1006 l 267 1026 q 341 1081 300 1061 q 424 1101 382 1101 z "},"Ố":{"ha":892,"x_min":44,"x_max":879,"o":"m 518 910 q 785 813 690 910 q 879 528 879 717 q 824 244 879 367 q 661 53 768 121 q 404 -15 554 -15 q 139 83 233 -15 q 44 372 44 182 q 99 655 44 533 q 261 843 154 776 q 518 910 368 910 m 493 732 q 329 651 385 732 q 274 374 274 569 q 308 202 274 253 q 426 151 342 151 q 590 233 535 151 q 646 513 646 315 q 612 682 646 632 q 493 732 578 732 m 851 1349 l 711 1165 l 699 1165 l 626 1219 l 724 1404 l 738 1411 l 846 1364 l 851 1349 m 569 1217 q 756 1065 646 1146 l 707 981 l 686 981 q 596 1035 654 999 l 543 1067 l 451 1019 q 374 981 399 994 l 353 981 l 324 1065 q 528 1217 440 1143 l 569 1217 z "},"ố":{"ha":775,"x_min":36,"x_max":764,"o":"m 436 717 q 665 639 585 717 q 744 404 744 561 q 697 188 744 283 q 560 40 650 93 q 346 -14 469 -14 q 117 65 197 -14 q 36 304 36 144 q 83 519 36 425 q 221 665 131 613 q 436 717 311 717 m 411 554 q 290 501 329 554 q 250 308 250 447 q 261 207 250 243 q 298 156 272 171 q 371 142 324 142 q 491 196 451 142 q 531 388 531 250 q 519 488 531 451 q 483 539 508 524 q 411 554 458 554 m 764 1158 l 624 975 l 611 975 l 539 1029 l 636 1214 l 650 1221 l 758 1174 l 764 1158 m 482 1026 q 668 875 558 956 l 619 790 l 599 790 q 508 844 567 808 l 456 876 l 364 829 q 286 790 311 804 l 265 790 l 236 875 q 440 1026 353 953 l 482 1026 z "},"Ồ":{"ha":892,"x_min":44,"x_max":879,"o":"m 518 910 q 785 813 690 910 q 879 528 879 717 q 824 244 879 367 q 661 53 768 121 q 404 -15 554 -15 q 139 83 233 -15 q 44 372 44 182 q 99 655 44 533 q 261 843 154 776 q 518 910 368 910 m 493 732 q 329 651 385 732 q 274 374 274 569 q 308 202 274 253 q 426 151 342 151 q 590 233 535 151 q 646 513 646 315 q 612 682 646 632 q 493 732 578 732 m 775 1219 l 704 1165 l 690 1165 l 551 1349 l 556 1364 l 664 1411 l 678 1404 l 775 1219 m 567 1215 q 751 1064 640 1146 l 703 979 l 682 979 l 539 1065 l 447 1018 q 369 979 394 993 l 349 979 l 321 1064 q 525 1215 438 1142 l 567 1215 z "},"ồ":{"ha":775,"x_min":36,"x_max":744,"o":"m 436 717 q 665 639 585 717 q 744 404 744 561 q 697 188 744 283 q 560 40 650 93 q 346 -14 469 -14 q 117 65 197 -14 q 36 304 36 144 q 83 519 36 425 q 221 665 131 613 q 436 717 311 717 m 411 554 q 290 501 329 554 q 250 308 250 447 q 261 207 250 243 q 298 156 272 171 q 371 142 324 142 q 491 196 451 142 q 531 388 531 250 q 519 488 531 451 q 483 539 508 524 q 411 554 458 554 m 688 1029 l 617 975 l 603 975 l 464 1158 l 468 1174 l 576 1221 l 590 1214 l 688 1029 m 479 1025 q 664 874 553 956 l 615 789 l 594 789 l 451 875 l 360 828 q 282 789 307 803 l 261 789 l 233 874 q 438 1025 350 951 l 479 1025 z "},"Ổ":{"ha":892,"x_min":44,"x_max":879,"o":"m 518 910 q 785 813 690 910 q 879 528 879 717 q 824 244 879 367 q 661 53 768 121 q 404 -15 554 -15 q 139 83 233 -15 q 44 372 44 182 q 99 655 44 533 q 261 843 154 776 q 518 910 368 910 m 493 732 q 329 651 385 732 q 274 374 274 569 q 308 202 274 253 q 426 151 342 151 q 590 233 535 151 q 646 513 646 315 q 612 682 646 632 q 493 732 578 732 m 681 1475 q 763 1446 729 1475 q 796 1372 796 1417 q 779 1323 796 1347 q 719 1260 763 1299 l 751 1207 l 679 1164 l 618 1258 q 669 1307 650 1281 q 688 1354 688 1333 q 650 1385 688 1385 q 563 1350 608 1385 l 531 1403 q 681 1475 596 1475 m 567 1217 q 751 1065 640 1147 l 703 981 l 682 981 l 539 1067 l 447 1019 q 369 981 394 994 l 349 981 l 319 1065 q 525 1217 433 1140 l 567 1217 z "},"ổ":{"ha":775,"x_min":36,"x_max":744,"o":"m 436 717 q 665 639 585 717 q 744 404 744 561 q 697 188 744 283 q 560 40 650 93 q 346 -14 469 -14 q 117 65 197 -14 q 36 304 36 144 q 83 519 36 425 q 221 665 131 613 q 436 717 311 717 m 411 554 q 290 501 329 554 q 250 308 250 447 q 261 207 250 243 q 298 156 272 171 q 371 142 324 142 q 491 196 451 142 q 531 388 531 250 q 519 488 531 451 q 483 539 508 524 q 411 554 458 554 m 593 1285 q 675 1256 642 1285 q 708 1182 708 1226 q 692 1133 708 1157 q 632 1069 675 1108 l 664 1017 l 592 974 l 531 1068 q 581 1117 563 1090 q 600 1164 600 1143 q 563 1194 600 1194 q 475 1160 521 1194 l 443 1213 q 593 1285 508 1285 m 479 1026 q 664 875 553 957 l 615 790 l 594 790 l 451 876 l 360 829 q 282 790 307 804 l 261 790 l 232 875 q 438 1026 346 950 l 479 1026 z "},"Ỗ":{"ha":892,"x_min":44,"x_max":879,"o":"m 518 910 q 785 813 690 910 q 879 528 879 717 q 824 244 879 367 q 661 53 768 121 q 404 -15 554 -15 q 139 83 233 -15 q 44 372 44 182 q 99 655 44 533 q 261 843 154 776 q 518 910 368 910 m 493 732 q 329 651 385 732 q 274 374 274 569 q 308 202 274 253 q 426 151 342 151 q 590 233 535 151 q 646 513 646 315 q 612 682 646 632 q 493 732 578 732 m 822 1374 l 728 1247 l 711 1242 q 599 1267 679 1246 q 514 1286 536 1286 q 479 1271 494 1286 q 432 1217 464 1256 l 415 1217 l 357 1275 l 357 1292 l 451 1417 l 468 1424 q 572 1399 492 1421 q 665 1378 644 1378 q 697 1392 682 1378 q 728 1424 713 1406 q 747 1449 743 1443 l 765 1449 l 822 1390 l 822 1374 m 578 1218 q 764 1067 654 1143 l 715 981 l 694 981 q 613 1031 665 997 l 551 1068 l 382 981 l 361 981 l 332 1067 q 536 1218 447 1142 l 578 1218 z "},"ỗ":{"ha":775,"x_min":36,"x_max":744,"o":"m 436 717 q 665 639 585 717 q 744 404 744 561 q 697 188 744 283 q 560 40 650 93 q 346 -14 469 -14 q 117 65 197 -14 q 36 304 36 144 q 83 519 36 425 q 221 665 131 613 q 436 717 311 717 m 411 554 q 290 501 329 554 q 250 308 250 447 q 261 207 250 243 q 298 156 272 171 q 371 142 324 142 q 491 196 451 142 q 531 388 531 250 q 519 488 531 451 q 483 539 508 524 q 411 554 458 554 m 735 1183 l 640 1057 l 624 1051 q 511 1076 592 1056 q 426 1096 449 1096 q 392 1081 407 1096 q 344 1026 376 1065 l 328 1026 l 269 1085 l 269 1101 l 364 1226 l 381 1233 q 485 1208 404 1231 q 578 1188 557 1188 q 610 1201 594 1188 q 640 1234 625 1215 q 660 1258 656 1253 l 678 1258 l 735 1200 l 735 1183 m 490 1028 q 676 876 567 953 l 628 790 l 607 790 q 525 840 578 807 l 464 878 l 294 790 l 274 790 l 244 876 q 449 1028 360 951 l 490 1028 z "},"Ộ":{"ha":892,"x_min":44,"x_max":879,"o":"m 328 1092 q 533 1243 442 1167 l 575 1243 q 760 1092 649 1174 l 711 1007 l 690 1007 l 547 1093 l 456 1046 q 378 1007 403 1021 l 357 1007 l 328 1092 m 518 910 q 785 813 690 910 q 879 528 879 717 q 824 244 879 367 q 661 53 768 121 q 404 -15 554 -15 q 139 83 233 -15 q 44 372 44 182 q 99 655 44 533 q 261 843 154 776 q 518 910 368 910 m 493 732 q 328 651 383 732 q 274 374 274 569 q 308 202 274 253 q 426 151 342 151 q 590 234 535 151 q 646 513 646 317 q 612 682 646 632 q 493 732 578 732 m 428 -67 q 506 -95 478 -67 q 533 -174 533 -124 q 503 -260 533 -228 q 419 -292 472 -292 q 340 -264 368 -292 q 313 -183 313 -236 q 344 -98 313 -129 q 428 -67 375 -67 z "},"ộ":{"ha":775,"x_min":36,"x_max":744,"o":"m 232 871 q 433 1049 296 922 l 458 1071 l 501 1071 q 685 871 572 983 l 622 789 l 601 789 q 463 911 503 869 q 294 789 410 867 l 274 789 l 232 871 m 436 717 q 665 639 585 717 q 744 404 744 561 q 697 188 744 283 q 560 40 650 93 q 344 -14 469 -14 q 116 65 196 -14 q 36 304 36 144 q 83 519 36 426 q 220 665 131 613 q 436 717 310 717 m 411 554 q 290 501 329 554 q 250 308 250 447 q 261 207 250 243 q 298 156 272 171 q 371 142 324 142 q 490 195 451 142 q 529 388 529 249 q 519 488 529 453 q 483 539 508 524 q 411 554 457 554 m 363 -67 q 440 -95 413 -67 q 468 -174 468 -124 q 438 -260 468 -228 q 354 -292 407 -292 q 275 -264 303 -292 q 247 -183 247 -236 q 278 -98 247 -129 q 363 -67 310 -67 z "},"Ớ":{"ha":899,"x_min":44,"x_max":1004,"o":"m 917 1085 q 980 1052 956 1085 q 1004 968 1004 1019 q 951 839 1004 893 q 818 771 899 785 q 878 529 878 678 q 821 246 878 369 q 657 53 764 122 q 403 -15 550 -15 q 137 85 229 -15 q 44 381 44 185 q 103 658 44 538 q 268 844 163 778 q 510 910 374 910 q 674 885 581 910 q 751 869 728 869 q 812 890 789 869 q 835 947 835 910 q 803 1026 835 994 l 808 1043 q 917 1085 872 1085 m 492 732 q 329 650 385 732 q 274 379 274 568 q 308 204 274 257 q 431 151 342 151 q 592 234 536 151 q 647 507 647 317 q 614 680 647 628 q 492 732 581 732 m 738 1117 l 731 1097 q 421 993 610 1053 l 400 999 l 367 1088 q 663 1250 539 1176 l 682 1244 l 738 1117 z "},"ớ":{"ha":785,"x_min":36,"x_max":853,"o":"m 674 821 q 774 858 735 858 q 830 831 807 858 q 853 761 853 803 q 809 649 853 697 q 701 594 765 601 q 744 419 744 525 q 697 190 744 288 q 560 40 650 93 q 344 -14 469 -14 q 118 65 200 -14 q 36 285 36 144 q 84 515 36 418 q 220 665 132 613 q 424 717 308 717 q 565 699 485 717 q 632 688 607 688 q 694 744 694 688 q 669 806 694 781 l 674 821 m 371 142 q 462 164 428 142 q 513 244 496 186 q 531 410 531 303 q 502 522 531 489 q 410 554 474 554 q 319 531 353 554 q 267 449 285 508 q 250 285 250 390 q 278 174 250 206 q 371 142 306 142 m 621 926 l 614 907 q 304 803 493 863 l 283 808 l 250 897 q 546 1060 422 986 l 565 1054 l 621 926 z "},"Ờ":{"ha":899,"x_min":44,"x_max":1004,"o":"m 917 1085 q 980 1052 956 1085 q 1004 968 1004 1019 q 951 839 1004 893 q 818 771 899 785 q 878 529 878 678 q 821 246 878 369 q 657 53 764 122 q 403 -15 550 -15 q 137 85 229 -15 q 44 381 44 185 q 103 658 44 538 q 268 844 163 778 q 510 910 374 910 q 674 885 581 910 q 751 869 728 869 q 812 890 789 869 q 835 947 835 910 q 803 1026 835 994 l 808 1043 q 917 1085 872 1085 m 492 732 q 329 650 385 732 q 274 379 274 568 q 308 204 274 257 q 431 151 342 151 q 592 234 536 151 q 647 507 647 317 q 614 680 647 628 q 492 732 581 732 m 432 1251 q 729 1090 557 1176 l 694 1000 l 675 994 q 365 1099 492 1053 l 358 1118 l 413 1246 l 432 1251 z "},"ờ":{"ha":785,"x_min":36,"x_max":853,"o":"m 674 821 q 774 858 735 858 q 830 831 807 858 q 853 761 853 803 q 809 649 853 697 q 701 594 765 601 q 744 419 744 525 q 697 190 744 288 q 560 40 650 93 q 344 -14 469 -14 q 118 65 200 -14 q 36 285 36 144 q 84 515 36 418 q 220 665 132 613 q 424 717 308 717 q 565 699 485 717 q 632 688 607 688 q 694 744 694 688 q 669 806 694 781 l 674 821 m 371 142 q 462 164 428 142 q 513 244 496 186 q 531 410 531 303 q 502 522 531 489 q 410 554 474 554 q 319 531 353 554 q 267 449 285 508 q 250 285 250 390 q 278 174 250 206 q 371 142 306 142 m 317 1061 q 614 900 442 986 l 579 810 l 560 804 q 250 908 376 863 l 243 928 l 297 1056 l 317 1061 z "},"Ở":{"ha":899,"x_min":44,"x_max":1004,"o":"m 917 1085 q 980 1052 956 1085 q 1004 968 1004 1019 q 951 839 1004 893 q 818 771 899 785 q 878 529 878 678 q 821 246 878 369 q 657 53 764 122 q 403 -15 550 -15 q 137 85 229 -15 q 44 381 44 185 q 103 658 44 538 q 268 844 163 778 q 510 910 374 910 q 674 885 581 910 q 751 869 728 869 q 812 890 789 869 q 835 947 835 910 q 803 1026 835 994 l 808 1043 q 917 1085 872 1085 m 492 732 q 329 650 385 732 q 274 379 274 568 q 308 204 274 257 q 431 151 342 151 q 592 234 536 151 q 647 507 647 317 q 614 680 647 628 q 492 732 581 732 m 511 1292 q 597 1262 563 1292 q 632 1185 632 1232 q 615 1131 632 1157 q 553 1065 597 1106 l 586 1010 l 511 965 l 447 1064 q 501 1116 481 1089 q 521 1164 521 1143 q 481 1196 521 1196 q 389 1161 432 1196 l 354 1217 q 428 1272 388 1251 q 511 1292 469 1292 z "},"ở":{"ha":785,"x_min":36,"x_max":853,"o":"m 674 821 q 774 858 735 858 q 830 831 807 858 q 853 761 853 803 q 809 649 853 697 q 701 594 765 601 q 744 419 744 525 q 697 190 744 288 q 560 40 650 93 q 344 -14 469 -14 q 118 65 200 -14 q 36 285 36 144 q 84 515 36 418 q 220 665 132 613 q 424 717 308 717 q 565 699 485 717 q 632 688 607 688 q 694 744 694 688 q 669 806 694 781 l 674 821 m 371 142 q 462 164 428 142 q 513 244 496 186 q 531 410 531 303 q 502 522 531 489 q 410 554 474 554 q 319 531 353 554 q 267 449 285 508 q 250 285 250 390 q 278 174 250 206 q 371 142 306 142 m 396 1101 q 482 1072 447 1101 q 517 994 517 1042 q 499 941 517 967 q 438 875 482 915 l 471 819 l 396 775 l 332 874 q 385 926 365 899 q 406 974 406 953 q 365 1006 406 1006 q 274 971 317 1006 l 239 1026 q 313 1081 272 1061 q 396 1101 354 1101 z "},"Ỡ":{"ha":899,"x_min":44,"x_max":1004,"o":"m 917 1085 q 980 1052 956 1085 q 1004 968 1004 1019 q 951 839 1004 893 q 818 771 899 785 q 878 529 878 678 q 821 246 878 369 q 657 53 764 122 q 403 -15 550 -15 q 137 85 229 -15 q 44 381 44 185 q 103 658 44 538 q 268 844 163 778 q 510 910 374 910 q 674 885 581 910 q 751 869 728 869 q 812 890 789 869 q 835 947 835 910 q 803 1026 835 994 l 808 1043 q 917 1085 872 1085 m 492 732 q 329 650 385 732 q 274 379 274 568 q 308 204 274 257 q 431 151 342 151 q 592 234 536 151 q 647 507 647 317 q 614 680 647 628 q 492 732 581 732 m 796 1161 l 693 1025 l 674 1018 q 556 1046 642 1022 q 460 1067 478 1067 q 426 1052 442 1067 q 394 1018 410 1038 q 371 992 378 999 l 351 992 l 288 1054 l 288 1072 l 390 1207 l 410 1214 q 529 1188 429 1211 q 624 1167 604 1167 q 658 1181 642 1167 q 692 1215 675 1196 q 714 1242 708 1235 l 732 1242 l 796 1179 l 796 1161 z "},"ỡ":{"ha":785,"x_min":36,"x_max":853,"o":"m 674 821 q 774 858 735 858 q 830 831 807 858 q 853 761 853 803 q 809 649 853 697 q 701 594 765 601 q 744 419 744 525 q 697 190 744 288 q 560 40 650 93 q 344 -14 469 -14 q 118 65 200 -14 q 36 285 36 144 q 84 515 36 418 q 220 665 132 613 q 424 717 308 717 q 565 699 485 717 q 632 688 607 688 q 694 744 694 688 q 669 806 694 781 l 674 821 m 371 142 q 462 164 428 142 q 513 244 496 186 q 531 410 531 303 q 502 522 531 489 q 410 554 474 554 q 319 531 353 554 q 267 449 285 508 q 250 285 250 390 q 278 174 250 206 q 371 142 306 142 m 681 971 l 578 835 l 558 828 q 440 856 526 832 q 344 876 363 876 q 310 862 326 876 q 278 828 294 847 q 256 801 263 808 l 236 801 l 172 864 l 172 882 l 275 1017 l 294 1024 q 414 997 314 1021 q 508 976 489 976 q 543 991 526 976 q 576 1025 560 1006 q 599 1051 593 1044 l 617 1051 l 681 989 l 681 971 z "},"Ợ":{"ha":899,"x_min":44,"x_max":1004,"o":"m 917 1085 q 980 1052 956 1085 q 1004 968 1004 1019 q 951 839 1004 893 q 818 771 899 785 q 878 529 878 678 q 821 246 878 369 q 657 53 764 122 q 403 -15 550 -15 q 137 85 229 -15 q 44 381 44 185 q 103 658 44 538 q 268 844 163 778 q 510 910 374 910 q 674 885 581 910 q 751 869 728 869 q 812 890 789 869 q 835 947 835 910 q 803 1026 835 994 l 808 1043 q 917 1085 872 1085 m 492 732 q 329 650 385 732 q 274 379 274 568 q 308 204 274 257 q 431 151 342 151 q 592 234 536 151 q 647 507 647 317 q 614 680 647 628 q 492 732 581 732 m 428 -67 q 506 -95 478 -67 q 533 -174 533 -124 q 503 -260 533 -228 q 419 -292 472 -292 q 340 -264 368 -292 q 313 -183 313 -236 q 344 -98 313 -129 q 428 -67 375 -67 z "},"ợ":{"ha":785,"x_min":36,"x_max":853,"o":"m 674 821 q 774 858 735 858 q 830 831 807 858 q 853 761 853 803 q 809 649 853 697 q 701 594 765 601 q 744 419 744 525 q 697 190 744 288 q 560 40 650 93 q 344 -14 469 -14 q 118 65 200 -14 q 36 285 36 144 q 84 515 36 418 q 220 665 132 613 q 424 717 308 717 q 565 699 485 717 q 632 688 607 688 q 694 744 694 688 q 669 806 694 781 l 674 821 m 371 142 q 462 164 428 142 q 513 244 496 186 q 531 410 531 303 q 502 522 531 489 q 410 554 474 554 q 319 531 353 554 q 267 449 285 508 q 250 285 250 390 q 278 174 250 206 q 371 142 306 142 m 363 -67 q 440 -95 413 -67 q 468 -174 468 -124 q 438 -260 468 -228 q 354 -292 407 -292 q 275 -264 303 -292 q 247 -183 247 -236 q 278 -98 247 -129 q 363 -67 310 -67 z "},"Ụ":{"ha":881,"x_min":74,"x_max":875,"o":"m 796 314 q 676 71 776 156 q 400 -14 576 -14 q 160 53 246 -14 q 74 244 74 121 q 78 310 74 275 l 97 444 l 147 896 l 367 896 l 289 339 q 286 293 286 306 q 318 195 286 226 q 418 164 350 164 q 541 205 499 164 q 593 333 583 246 l 653 896 l 875 896 l 813 442 l 796 314 m 394 -67 q 472 -95 444 -67 q 500 -174 500 -124 q 469 -260 500 -228 q 386 -292 439 -292 q 307 -264 335 -292 q 279 -183 279 -236 q 310 -98 279 -129 q 394 -67 342 -67 z "},"ụ":{"ha":768,"x_min":61,"x_max":743,"o":"m 678 236 q 577 51 663 115 q 342 -12 492 -12 q 135 40 208 -12 q 61 189 61 92 q 65 236 61 214 l 81 349 l 119 706 l 324 706 l 260 265 q 258 238 258 256 q 361 150 258 150 q 492 265 479 150 l 536 706 l 743 706 l 693 347 l 678 236 m 351 -67 q 429 -95 401 -67 q 457 -174 457 -124 q 426 -260 457 -228 q 343 -292 396 -292 q 264 -264 292 -292 q 236 -183 236 -236 q 267 -98 236 -129 q 351 -67 299 -67 z "},"Ủ":{"ha":881,"x_min":74,"x_max":875,"o":"m 796 314 q 676 71 776 156 q 400 -14 576 -14 q 160 53 246 -14 q 74 244 74 121 q 78 310 74 275 l 97 444 l 147 896 l 367 896 l 289 339 q 286 293 286 306 q 318 195 286 226 q 418 164 350 164 q 541 205 499 164 q 593 333 583 246 l 653 896 l 875 896 l 813 442 l 796 314 m 507 1292 q 593 1262 558 1292 q 628 1185 628 1232 q 610 1131 628 1157 q 549 1065 593 1106 l 582 1010 l 507 965 l 443 1064 q 497 1116 476 1089 q 517 1164 517 1143 q 476 1196 517 1196 q 385 1161 428 1196 l 350 1217 q 424 1272 383 1251 q 507 1292 465 1292 z "},"ủ":{"ha":768,"x_min":61,"x_max":743,"o":"m 678 236 q 577 51 663 115 q 342 -12 492 -12 q 135 40 208 -12 q 61 189 61 92 q 65 236 61 214 l 81 349 l 119 706 l 324 706 l 260 265 q 258 238 258 256 q 361 150 258 150 q 492 265 479 150 l 536 706 l 743 706 l 693 347 l 678 236 m 424 1101 q 510 1072 475 1101 q 544 994 544 1042 q 527 941 544 967 q 465 875 510 915 l 499 819 l 424 775 l 360 874 q 413 926 393 899 q 433 974 433 953 q 393 1006 433 1006 q 301 971 344 1006 l 267 1026 q 341 1081 300 1061 q 424 1101 382 1101 z "},"Ứ":{"ha":897,"x_min":74,"x_max":983,"o":"m 983 983 q 951 888 983 932 q 864 819 919 844 l 813 442 l 796 314 q 676 71 776 156 q 400 -14 576 -14 q 160 53 246 -14 q 74 244 74 121 q 78 310 74 275 l 97 444 l 147 896 l 367 896 l 289 339 q 286 293 286 306 q 318 195 286 226 q 418 164 350 164 q 541 205 499 164 q 593 333 583 246 l 653 896 l 735 896 q 817 964 817 896 q 775 1046 817 1011 l 779 1063 q 883 1104 839 1104 q 954 1069 925 1104 q 983 983 983 1035 m 710 1117 l 703 1097 q 393 993 582 1053 l 372 999 l 339 1088 q 635 1250 511 1176 l 654 1244 l 710 1117 z "},"ứ":{"ha":786,"x_min":61,"x_max":851,"o":"m 851 788 q 819 701 851 742 q 733 638 788 661 l 693 347 l 678 236 q 577 51 663 115 q 342 -12 492 -12 q 135 40 208 -12 q 61 189 61 92 q 65 236 61 214 l 82 349 l 119 706 l 324 706 l 260 265 q 258 238 258 256 q 361 150 258 150 q 492 265 479 150 l 538 706 l 621 706 q 677 720 661 706 q 693 767 693 735 q 667 822 693 800 l 672 838 q 774 875 729 875 q 830 850 808 875 q 851 788 851 825 m 642 926 l 635 907 q 325 803 514 863 l 304 808 l 271 897 q 567 1060 443 986 l 586 1054 l 642 926 z "},"Ừ":{"ha":897,"x_min":74,"x_max":983,"o":"m 983 983 q 951 888 983 932 q 864 819 919 844 l 813 442 l 796 314 q 676 71 776 156 q 400 -14 576 -14 q 160 53 246 -14 q 74 244 74 121 q 78 310 74 275 l 97 444 l 147 896 l 367 896 l 289 339 q 286 293 286 306 q 318 195 286 226 q 418 164 350 164 q 541 205 499 164 q 593 333 583 246 l 653 896 l 735 896 q 817 964 817 896 q 775 1046 817 1011 l 779 1063 q 883 1104 839 1104 q 954 1069 925 1104 q 983 983 983 1035 m 406 1251 q 703 1090 531 1176 l 668 1000 l 649 994 q 339 1099 465 1053 l 332 1118 l 386 1246 l 406 1251 z "},"ừ":{"ha":786,"x_min":61,"x_max":851,"o":"m 851 788 q 819 701 851 742 q 733 638 788 661 l 693 347 l 678 236 q 577 51 663 115 q 342 -12 492 -12 q 135 40 208 -12 q 61 189 61 92 q 65 236 61 214 l 82 349 l 119 706 l 324 706 l 260 265 q 258 238 258 256 q 361 150 258 150 q 492 265 479 150 l 538 706 l 621 706 q 677 720 661 706 q 693 767 693 735 q 667 822 693 800 l 672 838 q 774 875 729 875 q 830 850 808 875 q 851 788 851 825 m 338 1061 q 635 900 463 986 l 600 810 l 581 804 q 271 908 397 863 l 264 928 l 318 1056 l 338 1061 z "},"Ử":{"ha":897,"x_min":74,"x_max":983,"o":"m 983 983 q 951 888 983 932 q 864 819 919 844 l 813 442 l 796 314 q 676 71 776 156 q 400 -14 576 -14 q 160 53 246 -14 q 74 244 74 121 q 78 310 74 275 l 97 444 l 147 896 l 367 896 l 289 339 q 286 293 286 306 q 318 195 286 226 q 418 164 350 164 q 541 205 499 164 q 593 333 583 246 l 653 896 l 735 896 q 817 964 817 896 q 775 1046 817 1011 l 779 1063 q 883 1104 839 1104 q 954 1069 925 1104 q 983 983 983 1035 m 485 1292 q 571 1262 536 1292 q 606 1185 606 1232 q 588 1131 606 1157 q 526 1065 571 1106 l 560 1010 l 485 965 l 421 1064 q 474 1116 454 1089 q 494 1164 494 1143 q 454 1196 494 1196 q 363 1161 406 1196 l 328 1217 q 402 1272 361 1251 q 485 1292 443 1292 z "},"ử":{"ha":786,"x_min":61,"x_max":851,"o":"m 851 788 q 819 701 851 742 q 733 638 788 661 l 693 347 l 678 236 q 577 51 663 115 q 342 -12 492 -12 q 135 40 208 -12 q 61 189 61 92 q 65 236 61 214 l 82 349 l 119 706 l 324 706 l 260 265 q 258 238 258 256 q 361 150 258 150 q 492 265 479 150 l 538 706 l 621 706 q 677 720 661 706 q 693 767 693 735 q 667 822 693 800 l 672 838 q 774 875 729 875 q 830 850 808 875 q 851 788 851 825 m 417 1101 q 503 1072 468 1101 q 538 994 538 1042 q 520 941 538 967 q 458 875 503 915 l 492 819 l 417 775 l 353 874 q 406 926 386 899 q 426 974 426 953 q 386 1006 426 1006 q 294 971 338 1006 l 260 1026 q 334 1081 293 1061 q 417 1101 375 1101 z "},"Ữ":{"ha":897,"x_min":74,"x_max":983,"o":"m 983 983 q 951 888 983 932 q 864 819 919 844 l 813 442 l 796 314 q 676 71 776 156 q 400 -14 576 -14 q 160 53 246 -14 q 74 244 74 121 q 78 310 74 275 l 97 444 l 147 896 l 367 896 l 289 339 q 286 293 286 306 q 318 195 286 226 q 418 164 350 164 q 541 205 499 164 q 593 333 583 246 l 653 896 l 735 896 q 817 964 817 896 q 775 1046 817 1011 l 779 1063 q 883 1104 839 1104 q 954 1069 925 1104 q 983 983 983 1035 m 769 1161 l 667 1025 l 647 1018 q 529 1046 615 1022 q 433 1067 451 1067 q 399 1052 415 1067 q 367 1018 383 1038 q 344 992 351 999 l 325 992 l 261 1054 l 261 1072 l 364 1207 l 383 1214 q 503 1188 403 1211 q 597 1167 578 1167 q 632 1181 615 1167 q 665 1215 649 1196 q 688 1242 682 1235 l 706 1242 l 769 1179 l 769 1161 z "},"ữ":{"ha":786,"x_min":61,"x_max":851,"o":"m 851 788 q 819 701 851 742 q 733 638 788 661 l 693 347 l 678 236 q 577 51 663 115 q 342 -12 492 -12 q 135 40 208 -12 q 61 189 61 92 q 65 236 61 214 l 82 349 l 119 706 l 324 706 l 260 265 q 258 238 258 256 q 361 150 258 150 q 492 265 479 150 l 538 706 l 621 706 q 677 720 661 706 q 693 767 693 735 q 667 822 693 800 l 672 838 q 774 875 729 875 q 830 850 808 875 q 851 788 851 825 m 701 971 l 599 835 l 579 828 q 461 856 547 832 q 365 876 383 876 q 331 862 347 876 q 299 828 315 847 q 276 801 283 808 l 257 801 l 193 864 l 193 882 l 296 1017 l 315 1024 q 435 997 335 1021 q 529 976 510 976 q 564 991 547 976 q 597 1025 581 1006 q 619 1051 614 1044 l 638 1051 l 701 989 l 701 971 z "},"Ự":{"ha":897,"x_min":74,"x_max":983,"o":"m 983 983 q 951 888 983 932 q 864 819 919 844 l 813 442 l 796 314 q 676 71 776 156 q 400 -14 576 -14 q 160 53 246 -14 q 74 244 74 121 q 78 310 74 275 l 97 444 l 147 896 l 367 896 l 289 339 q 286 293 286 306 q 318 195 286 226 q 418 164 350 164 q 541 205 499 164 q 593 333 583 246 l 653 896 l 735 896 q 817 964 817 896 q 775 1046 817 1011 l 779 1063 q 883 1104 839 1104 q 954 1069 925 1104 q 983 983 983 1035 m 404 -67 q 482 -95 454 -67 q 510 -174 510 -124 q 479 -260 510 -228 q 396 -292 449 -292 q 317 -264 344 -292 q 289 -183 289 -236 q 320 -98 289 -129 q 404 -67 351 -67 z "},"ự":{"ha":786,"x_min":61,"x_max":851,"o":"m 851 788 q 819 701 851 742 q 733 638 788 661 l 693 347 l 678 236 q 577 51 663 115 q 342 -12 492 -12 q 135 40 208 -12 q 61 189 61 92 q 65 236 61 214 l 82 349 l 119 706 l 324 706 l 260 265 q 258 238 258 256 q 361 150 258 150 q 492 265 479 150 l 538 706 l 621 706 q 677 720 661 706 q 693 767 693 735 q 667 822 693 800 l 672 838 q 774 875 729 875 q 830 850 808 875 q 851 788 851 825 m 349 -67 q 426 -95 399 -67 q 454 -174 454 -124 q 424 -260 454 -228 q 340 -292 393 -292 q 261 -264 289 -292 q 233 -183 233 -236 q 265 -98 233 -129 q 349 -67 296 -67 z "},"Ỳ":{"ha":782,"x_min":71,"x_max":865,"o":"m 471 244 l 450 0 l 231 0 l 272 244 l 276 299 l 71 896 l 300 896 l 311 829 l 403 514 l 417 514 l 601 822 l 638 896 l 865 896 l 479 296 l 471 244 m 378 1251 q 675 1090 503 1176 l 640 1000 l 621 994 q 311 1099 438 1053 l 304 1118 l 358 1246 l 378 1251 z "},"ỳ":{"ha":696,"x_min":56,"x_max":742,"o":"m 414 188 l 400 0 l 196 0 l 229 188 l 232 222 l 56 706 l 271 706 l 281 649 l 351 425 l 364 425 l 500 642 l 533 706 l 742 706 l 419 219 l 414 188 m 314 1078 q 575 861 438 968 l 525 781 l 506 779 q 221 939 399 838 l 217 960 l 294 1076 l 314 1078 z "},"Ỵ":{"ha":782,"x_min":71,"x_max":865,"o":"m 471 244 l 450 0 l 231 0 l 272 244 l 276 299 l 71 896 l 300 896 l 311 829 l 403 514 l 417 514 l 601 822 l 638 896 l 865 896 l 479 296 l 471 244 m 331 -67 q 408 -95 381 -67 q 436 -174 436 -124 q 406 -260 436 -228 q 322 -292 375 -292 q 243 -264 271 -292 q 215 -183 215 -236 q 247 -98 215 -129 q 331 -67 278 -67 z "},"ỵ":{"ha":696,"x_min":56,"x_max":742,"o":"m 414 188 l 400 0 l 196 0 l 229 188 l 232 222 l 56 706 l 271 706 l 281 649 l 351 425 l 364 425 l 500 642 l 533 706 l 742 706 l 419 219 l 414 188 m 290 -67 q 368 -95 340 -67 q 396 -174 396 -124 q 365 -260 396 -228 q 282 -292 335 -292 q 203 -264 231 -292 q 175 -183 175 -236 q 206 -98 175 -129 q 290 -67 238 -67 z "},"Ỷ":{"ha":782,"x_min":71,"x_max":865,"o":"m 471 244 l 450 0 l 231 0 l 272 244 l 276 299 l 71 896 l 300 896 l 311 829 l 403 514 l 417 514 l 601 822 l 638 896 l 865 896 l 479 296 l 471 244 m 458 1292 q 544 1262 510 1292 q 579 1185 579 1232 q 562 1131 579 1157 q 500 1065 544 1106 l 533 1010 l 458 965 l 394 1064 q 448 1116 428 1089 q 468 1164 468 1143 q 428 1196 468 1196 q 336 1161 379 1196 l 301 1217 q 376 1272 335 1251 q 458 1292 417 1292 z "},"ỷ":{"ha":696,"x_min":56,"x_max":742,"o":"m 414 188 l 400 0 l 196 0 l 229 188 l 232 222 l 56 706 l 271 706 l 281 649 l 351 425 l 364 425 l 500 642 l 533 706 l 742 706 l 419 219 l 414 188 m 386 1101 q 472 1072 438 1101 q 507 994 507 1042 q 490 941 507 967 q 428 875 472 915 l 461 819 l 386 775 l 322 874 q 376 926 356 899 q 396 974 396 953 q 356 1006 396 1006 q 264 971 307 1006 l 229 1026 q 303 1081 263 1061 q 386 1101 344 1101 z "},"Ỹ":{"ha":782,"x_min":71,"x_max":865,"o":"m 471 244 l 450 0 l 231 0 l 272 244 l 276 299 l 71 896 l 300 896 l 311 829 l 403 514 l 417 514 l 601 822 l 638 896 l 865 896 l 479 296 l 471 244 m 743 1161 l 640 1025 l 621 1018 q 503 1046 589 1022 q 407 1067 425 1067 q 373 1052 389 1067 q 341 1018 357 1038 q 318 992 325 999 l 299 992 l 235 1054 l 235 1072 l 338 1207 l 357 1214 q 476 1188 376 1211 q 571 1167 551 1167 q 606 1181 589 1167 q 639 1215 622 1196 q 661 1242 656 1235 l 679 1242 l 743 1179 l 743 1161 z "},"ỹ":{"ha":696,"x_min":56,"x_max":742,"o":"m 414 188 l 400 0 l 196 0 l 229 188 l 232 222 l 56 706 l 271 706 l 281 649 l 351 425 l 364 425 l 500 642 l 533 706 l 742 706 l 419 219 l 414 188 m 671 971 l 568 835 l 549 828 q 431 856 517 832 q 335 876 353 876 q 301 862 317 876 q 269 828 285 847 q 246 801 253 808 l 226 801 l 163 864 l 163 882 l 265 1017 l 285 1024 q 404 997 304 1021 q 499 976 479 976 q 533 991 517 976 q 567 1025 550 1006 q 589 1051 583 1044 l 607 1051 l 671 989 l 671 971 z "},"–":{"ha":639,"x_min":-24,"x_max":671,"o":"m 646 286 l -11 286 l -24 301 l 3 432 l 660 432 l 671 417 l 646 286 z "},"—":{"ha":1210,"x_min":-28,"x_max":1247,"o":"m 1221 286 l -15 286 l -28 301 l -1 432 l 1235 432 l 1247 417 l 1221 286 z "},"‘":{"ha":310,"x_min":88,"x_max":304,"o":"m 168 519 q 88 661 88 565 q 226 907 88 774 l 300 858 l 303 844 q 247 724 247 783 q 304 618 247 654 l 304 600 q 168 519 235 547 z "},"’":{"ha":310,"x_min":90,"x_max":307,"o":"m 226 907 q 307 765 307 861 q 168 519 307 653 l 94 568 l 92 582 q 147 703 147 643 q 90 808 147 772 l 90 826 q 226 907 160 879 z "},"‚":{"ha":317,"x_min":-15,"x_max":239,"o":"m 175 208 q 239 79 239 154 q 56 -183 239 -56 l -12 -124 l -15 -108 q 63 33 63 -43 q 18 125 63 85 l 18 143 q 175 208 97 188 z "},"“":{"ha":554,"x_min":86,"x_max":551,"o":"m 415 519 q 335 661 335 565 q 474 907 335 774 l 547 858 l 550 844 q 494 724 494 783 q 551 618 494 654 l 551 600 q 415 519 482 547 m 167 519 q 86 661 86 565 q 225 907 86 774 l 299 858 l 301 844 q 246 724 246 783 q 303 618 246 654 l 303 600 q 167 519 233 547 z "},"”":{"ha":549,"x_min":89,"x_max":544,"o":"m 464 907 q 544 765 544 861 q 406 519 544 653 l 332 568 l 329 582 q 385 703 385 643 q 328 808 385 772 l 328 826 q 464 907 397 879 m 225 907 q 306 765 306 861 q 167 519 306 653 l 93 568 l 90 582 q 146 703 146 643 q 89 808 146 772 l 89 826 q 225 907 158 879 z "},"„":{"ha":567,"x_min":-15,"x_max":486,"o":"m 422 208 q 486 79 486 154 q 303 -183 486 -56 l 235 -124 l 232 -108 q 310 33 310 -43 q 265 125 310 85 l 265 143 q 422 208 344 188 m 175 208 q 239 79 239 154 q 56 -183 239 -56 l -12 -124 l -15 -108 q 63 33 63 -43 q 18 125 63 85 l 18 143 q 175 208 97 188 z "},"†":{"ha":708,"x_min":68,"x_max":685,"o":"m 435 435 l 431 403 l 368 -121 l 235 -131 l 224 -115 l 285 389 l 290 435 l 81 435 l 68 449 l 96 576 l 308 576 l 338 811 l 475 822 l 486 810 l 454 576 l 672 576 l 685 563 l 658 435 l 435 435 z "},"‡":{"ha":708,"x_min":26,"x_max":686,"o":"m 411 229 l 629 229 l 642 215 l 615 86 l 393 86 l 368 -121 l 235 -131 l 224 -115 l 249 86 l 38 86 l 26 101 l 53 229 l 265 229 l 285 389 l 293 453 l 83 453 l 71 467 l 97 594 l 311 594 l 338 811 l 475 822 l 485 810 l 457 594 l 674 594 l 686 581 l 660 453 l 439 453 l 432 403 l 411 229 z "},"•":{"ha":415,"x_min":76,"x_max":363,"o":"m 226 551 q 327 515 292 551 q 362 412 362 478 q 322 300 362 342 q 215 259 283 259 q 113 296 149 259 q 77 399 77 333 q 117 510 77 469 q 226 551 158 551 z "},"․":{"ha":319,"x_min":21,"x_max":242,"o":"m 136 215 q 215 187 188 215 q 242 107 242 158 q 211 21 242 53 q 128 -11 181 -11 q 49 17 76 -11 q 21 97 21 46 q 52 183 21 151 q 136 215 83 215 z "},"‥":{"ha":613,"x_min":15,"x_max":528,"o":"m 422 215 q 501 187 474 215 q 528 107 528 158 q 497 21 528 53 q 414 -11 467 -11 q 335 17 363 -11 q 307 97 307 46 q 338 183 307 151 q 422 215 369 215 m 131 215 q 209 187 182 215 q 236 107 236 158 q 206 21 236 53 q 122 -11 175 -11 q 43 17 71 -11 q 15 97 15 46 q 47 183 15 151 q 131 215 78 215 z "},"…":{"ha":907,"x_min":-11,"x_max":796,"o":"m 397 215 q 476 187 449 215 q 503 107 503 158 q 472 21 503 53 q 389 -11 442 -11 q 310 17 338 -11 q 282 97 282 46 q 313 183 282 151 q 397 215 344 215 m 690 215 q 769 187 742 215 q 796 107 796 158 q 765 21 796 53 q 682 -11 735 -11 q 603 17 631 -11 q 575 97 575 46 q 606 183 575 151 q 690 215 638 215 m 104 215 q 183 187 156 215 q 210 107 210 158 q 179 21 210 53 q 96 -11 149 -11 q 17 17 44 -11 q -11 97 -11 46 q 20 183 -11 151 q 104 215 51 215 z "},"‰":{"ha":1735,"x_min":74,"x_max":1689,"o":"m 1022 875 l 251 -129 l 167 -74 l 161 -53 l 933 957 l 1013 904 l 1022 875 m 346 906 q 482 853 435 906 q 529 707 529 801 q 458 478 529 561 q 258 396 388 396 q 121 447 168 396 q 74 594 74 499 q 145 823 74 740 q 346 906 217 906 m 315 769 q 206 615 206 769 q 283 521 206 521 q 371 560 346 521 q 396 675 396 600 q 315 769 396 769 m 985 501 q 1121 450 1074 501 q 1168 303 1168 399 q 1097 74 1168 157 q 897 -8 1026 -8 q 760 43 808 -8 q 713 190 713 94 q 784 419 713 336 q 985 501 856 501 m 1506 501 q 1642 450 1594 501 q 1689 303 1689 399 q 1618 74 1689 157 q 1419 -8 1547 -8 q 1281 43 1329 -8 q 1233 190 1233 94 q 1305 419 1233 336 q 1506 501 1376 501 m 954 365 q 846 211 846 365 q 922 117 846 117 q 1010 156 985 117 q 1035 271 1035 196 q 954 365 1035 365 m 1475 365 q 1367 211 1367 365 q 1444 117 1367 117 q 1532 156 1507 117 q 1557 271 1557 196 q 1475 365 1557 365 z "},"′":{"ha":307,"x_min":110,"x_max":322,"o":"m 226 554 l 125 538 l 110 551 l 143 883 l 311 893 l 322 879 l 226 554 z "},"″":{"ha":542,"x_min":110,"x_max":557,"o":"m 461 554 l 360 538 l 344 551 l 378 883 l 546 893 l 557 879 l 461 554 m 226 554 l 125 538 l 110 551 l 143 883 l 311 893 l 322 879 l 226 554 z "},"‹":{"ha":347,"x_min":39,"x_max":353,"o":"m 43 339 l 257 581 l 351 528 l 353 508 l 197 318 l 306 128 l 300 108 l 192 54 l 39 307 l 43 339 z "},"›":{"ha":350,"x_min":10,"x_max":324,"o":"m 319 300 l 106 58 l 11 111 l 10 131 l 165 321 l 57 511 l 63 531 l 171 585 l 324 332 l 319 300 z "},"⁄":{"ha":161,"x_min":-362,"x_max":497,"o":"m 497 875 l -272 -129 l -357 -74 l -362 -53 l 410 957 l 489 904 l 497 875 z "}}}
